<svg xmlns="http://www.w3.org/2000/svg" height="48" viewBox="0 -960 960 960" width="48"><path d="M453-274h60v-45h48q15 0 24.5-12t9.5-27v-114.745q0-16.255-9.5-27.755T561-512H425v-69h170v-60h-82v-45h-60v45h-49q-15 0-27 12t-12 28.117v113.766Q365-471 377-461.5t27 9.5h131v73H365v60h88v45ZM140-148q-28.725 0-50.862-22.137Q67-192.275 67-221v-518q0-28.725 22.138-50.862Q111.275-812 140-812h680q28.725 0 50.862 22.138Q893-767.725 893-739v518q0 28.725-22.138 50.863Q848.725-148 820-148H140Zm0-73h680v-518H140v518Zm0 0v-518 518Z"/></svg>