<svg xmlns="http://www.w3.org/2000/svg" height="48" viewBox="0 -960 960 960" width="48"><path d="M242-111q-14 0-24.5-8T207-139.343V-225q-29-17-41.5-47.5T153-336v-403q0-78 77-113t251-35q168 0 247 36.112Q807-814.775 807-739v403q0 33-12.5 63.5T753-225v85.657Q753-127 742.5-119t-24.5 8h-23.491Q681-111 670-119t-11-21v-53H301v53q0 13-10.925 21T265-111h-23Zm238-656h260-522 262Zm180 298H218h524-82Zm-442-65h524v-168H218v168Zm107.176 228q24.324 0 41.074-16.926Q383-339.853 383-364.176q0-24.324-16.926-41.074Q349.147-422 324.824-422q-24.324 0-41.074 16.926Q267-388.147 267-363.824q0 24.324 16.926 41.074Q300.853-306 325.176-306Zm310 0q24.324 0 41.074-16.926Q693-339.853 693-364.176q0-24.324-16.927-41.074Q659.147-422 634.824-422q-24.324 0-41.074 16.926Q577-388.147 577-363.824q0 24.324 16.927 41.074Q610.853-306 635.176-306ZM218-767h522q-25-25-94-40t-166-15q-115 0-180.5 13.5T218-767Zm82 509h360.374Q695-258 718.5-285.706q23.5-27.707 23.5-62.725V-469H218v120.784Q218-313 241.5-285.5T300-258Z"/></svg>