<svg xmlns="http://www.w3.org/2000/svg" height="48" viewBox="0 -960 960 960" width="48"><path d="M137-64q-28.725 0-50.862-22.138Q64-108.275 64-137v-519q0-28.725 22.138-50.862Q108.275-729 137-729h169v-100q0-28.725 22.138-50.862Q350.275-902 379-902h202q28.725 0 50.862 22.138Q654-857.725 654-829v100h169q28.725 0 50.862 22.138Q896-684.725 896-656v519q0 28.725-22.138 50.862Q851.725-64 823-64H137Zm0-73h686v-519H137v519Zm242-592h202v-100H379v100ZM137-137v-519 519Zm307-223v120h73v-120h120v-73H517v-120h-73v120H324v73h120Z"/></svg>