<svg xmlns="http://www.w3.org/2000/svg" height="48" viewBox="0 -960 960 960" width="48"><path d="M202-67v-309h-56v-230q0-31.888 23.618-55.444T224.952-685h115.332Q372-685 395.5-661.444T419-606v230h-56v309H202Zm80.08-672q-32.08 0-54.58-22.42-22.5-22.421-22.5-54.5 0-32.08 22.42-54.58 22.421-22.5 54.5-22.5 32.08 0 54.58 22.42 22.5 22.421 22.5 54.5 0 32.08-22.42 54.58-22.421 22.5-54.5 22.5ZM634-67v-248H526l88-316q8.378-25.185 29.817-39.593Q665.257-685 693.829-685q28.571 0 50.155 14.407Q765.569-656.185 774-631l88 316H755v248H634Zm60.08-672q-32.08 0-54.58-22.42-22.5-22.421-22.5-54.5 0-32.08 22.42-54.58 22.421-22.5 54.5-22.5 32.08 0 54.58 22.42 22.5 22.421 22.5 54.5 0 32.08-22.42 54.58-22.421 22.5-54.5 22.5Z"/></svg>