<svg xmlns="http://www.w3.org/2000/svg" height="48" viewBox="0 -960 960 960" width="48"><path d="M153-335v-385.857q0-43.143 18.81-74.502 18.811-31.36 59-51.5Q271-867 333-877t147-10q86 0 147.353 9.125 61.353 9.125 101.5 29T788-797.315q19 31.686 19 76.315v386q0 60.314-41.843 102.157Q723.314-191 663-191l61 61v22h-74l-83-83H394l-82.5 83H236v-22l61-61q-60.314 0-102.157-41.843Q153-274.686 153-335Zm327-487q-121 0-175 15t-77 44h505q-19-26-78.5-42.5T480-822ZM218-548h234v-150H218v150Zm445 65H218h524-79Zm-146-65h225v-150H517v150ZM334.209-309Q357-309 374.5-326.709q17.5-17.71 17.5-40.5Q392-390 374.291-407.5q-17.71-17.5-40.5-17.5Q311-425 293.5-407.291q-17.5 17.71-17.5 40.5Q276-344 293.709-326.5q17.71 17.5 40.5 17.5Zm292 0Q649-309 666.5-326.709q17.5-17.71 17.5-40.5Q684-390 666.291-407.5q-17.71-17.5-40.5-17.5Q603-425 585.5-407.291q-17.5 17.71-17.5 40.5Q568-344 585.709-326.5q17.71 17.5 40.5 17.5ZM297-251h366.404Q697-251 719.5-275.283 742-299.567 742-335v-148H218v148.47q0 34.53 22.283 59.03Q262.567-251 297-251Zm183-512h253-505 252Z"/></svg>