<svg xmlns="http://www.w3.org/2000/svg" xmlns:xlink="http://www.w3.org/1999/xlink" id="Ebene_1" x="0px" y="0px" viewBox="0 0 176.3 210.7" style="enable-background:new 0 0 176.3 210.7;" xml:space="preserve"><style type="text/css">	.st0{fill:#FFFFFF;stroke:#FFFFFF;stroke-width:0.3402;stroke-miterlimit:10;}	.st1{fill:#FFFFFF;}	.st2{fill:none;stroke:#FFFFFF;stroke-width:1.21;stroke-miterlimit:10;}	.st3{stroke:#FFFFFF;stroke-width:1.3304;stroke-linejoin:round;stroke-miterlimit:10;}	.st4{stroke:#FFFFFF;stroke-width:1.486;stroke-miterlimit:10;}	.st5{fill:none;stroke:#FFFFFF;stroke-width:1.406;stroke-miterlimit:10;}	.st6{stroke:#FFFFFF;stroke-width:1.2899;stroke-miterlimit:10;}	.st7{fill:none;stroke:#FFFFFF;stroke-width:1.389;stroke-miterlimit:10;}	.st8{fill:#FFFFFF;stroke:#FFFFFF;stroke-width:0.6695;stroke-miterlimit:10;}	.st9{fill:#FFFFFF;stroke:#FFFFFF;stroke-width:0.6366;stroke-miterlimit:10;}	.st10{stroke:#FFFFFF;stroke-width:0.9291;stroke-miterlimit:10;}</style><rect x="0.5" y="0.4" width="175.3" height="209.9"></rect><path class="st0" d="M25,173.2c0-0.6-0.2-1.2-0.6-1.6c-0.4-0.4-0.9-0.8-1.4-1.1c-0.6-0.3-1.2-0.6-1.9-0.9s-1.3-0.6-1.9-1  s-1.1-0.9-1.4-1.5c-0.4-0.6-0.6-1.3-0.6-2.2c0-1.3,0.4-2.3,1.3-3c0.9-0.7,2.1-1.1,3.7-1.1c0.9,0,1.8,0.1,2.6,0.2s1.4,0.3,1.8,0.5  l-0.6,1.7c-0.4-0.2-0.9-0.3-1.6-0.5c-0.7-0.2-1.5-0.2-2.3-0.2c-1,0-1.8,0.2-2.3,0.7c-0.5,0.5-0.8,1-0.8,1.6c0,0.6,0.2,1.1,0.6,1.5  s0.9,0.8,1.4,1.1c0.6,0.3,1.2,0.6,1.9,0.9c0.7,0.3,1.3,0.7,1.9,1.1s1.1,0.9,1.4,1.5s0.6,1.3,0.6,2.1c0,0.7-0.1,1.3-0.4,1.9  s-0.6,1-1.1,1.4c-0.5,0.4-1.1,0.7-1.7,0.9c-0.7,0.2-1.4,0.3-2.3,0.3c-1.2,0-2.1-0.1-2.9-0.3c-0.8-0.2-1.3-0.4-1.8-0.6l0.6-1.7  c0.4,0.2,0.9,0.4,1.6,0.6s1.5,0.3,2.3,0.3c0.5,0,1,0,1.4-0.1c0.4-0.1,0.8-0.3,1.2-0.5c0.3-0.2,0.6-0.5,0.8-0.8  C24.9,174,25,173.6,25,173.2z"></path><path class="st0" d="M40.6,176.6c-0.5,0.4-1,0.6-1.8,0.7s-1.5,0.2-2.3,0.2c-1,0-1.9-0.2-2.7-0.5c-0.8-0.3-1.6-0.8-2.2-1.5  c-0.6-0.7-1.1-1.5-1.5-2.6c-0.4-1.1-0.6-2.3-0.6-3.8c0-1.5,0.2-2.8,0.6-3.8s0.9-1.9,1.6-2.6s1.4-1.2,2.3-1.5  c0.8-0.3,1.7-0.5,2.5-0.5c0.9,0,1.7,0,2.3,0.2c0.6,0.1,1.1,0.2,1.5,0.4l-0.5,1.7c-0.7-0.4-1.8-0.6-3.2-0.6c-0.6,0-1.3,0.1-1.9,0.3  c-0.6,0.2-1.2,0.6-1.7,1.1c-0.5,0.5-0.9,1.2-1.2,2.1c-0.3,0.8-0.4,1.9-0.4,3.1c0,1.1,0.1,2.1,0.4,2.9c0.3,0.8,0.7,1.5,1.1,2.1  c0.5,0.6,1.1,1,1.7,1.2s1.4,0.4,2.1,0.4c0.7,0,1.3-0.1,1.8-0.2c0.5-0.1,1-0.3,1.3-0.5L40.6,176.6z"></path><path class="st0" d="M53.5,169.9h-7.8v7.4h-1.9v-16.2h1.9v7h7.8v-7h1.9v16.2h-1.9V169.9z"></path><path class="st0" d="M67.3,172.8h-5.9l-1.6,4.5h-1.9l6.1-16.4h0.9l6.1,16.4h-2L67.3,172.8z M62,171.1h4.7l-1.8-4.9l-0.6-2.4h0  l-0.6,2.5L62,171.1z"></path><path class="st0" d="M73.5,161.1h8.8v1.7h-6.9v5.5h6.4v1.7h-6.4v7.2h-1.9V161.1z"></path><path class="st0" d="M91.9,172.9c0-0.6,0.1-1.2,0.3-1.8c0.2-0.6,0.5-1.1,0.9-1.6c0.4-0.5,0.8-0.9,1.3-1.3s1-0.8,1.5-1.1  c-0.4-0.6-0.7-1.1-1-1.7s-0.4-1.2-0.4-1.8c0-0.4,0.1-0.7,0.2-1.1s0.3-0.7,0.6-0.9s0.6-0.5,1-0.7c0.4-0.2,0.9-0.3,1.5-0.3  c0.6,0,1.2,0.1,1.6,0.2c0.4,0.2,0.8,0.4,1,0.6s0.5,0.6,0.6,0.9s0.2,0.7,0.2,1c0,0.6-0.2,1.3-0.8,2c-0.5,0.7-1.3,1.3-2.4,2  c0.2,0.4,0.5,0.9,0.9,1.4s0.7,0.9,1.1,1.4c0.4,0.5,0.7,0.9,1.1,1.4c0.4,0.5,0.8,0.9,1.2,1.3c0.2-0.2,0.3-0.4,0.5-0.7  c0.2-0.3,0.3-0.6,0.5-0.9s0.3-0.6,0.4-1c0.1-0.3,0.3-0.7,0.4-1l1.4,0.7c-0.1,0.3-0.2,0.6-0.4,0.9c-0.2,0.4-0.4,0.7-0.6,1.1  c-0.2,0.4-0.4,0.7-0.6,1.1c-0.2,0.3-0.4,0.6-0.6,0.9c0.3,0.3,0.6,0.6,0.9,0.8c0.3,0.2,0.5,0.4,0.7,0.6c0.2,0.2,0.4,0.3,0.6,0.4  s0.4,0.3,0.6,0.4l-1.2,1.3c-0.8-0.4-1.7-1.1-2.8-2.1c-0.3,0.3-0.6,0.5-0.9,0.8s-0.7,0.5-1.1,0.7s-0.9,0.4-1.4,0.5  c-0.5,0.1-1.1,0.2-1.7,0.2c-0.7,0-1.4-0.1-2-0.3c-0.6-0.2-1.2-0.5-1.7-0.9c-0.5-0.4-0.9-0.9-1.1-1.4  C92.1,174.3,91.9,173.7,91.9,172.9z M101.2,174.2c-0.4-0.4-0.9-0.9-1.3-1.5c-0.4-0.5-0.8-1-1.2-1.6s-0.8-1-1.1-1.5s-0.6-0.9-0.8-1.3  c-0.4,0.3-0.8,0.6-1.2,0.9s-0.7,0.7-0.9,1s-0.5,0.8-0.6,1.2c-0.1,0.4-0.2,0.9-0.2,1.3c0,0.5,0.1,0.9,0.3,1.3  c0.2,0.4,0.5,0.7,0.8,0.9s0.7,0.5,1.2,0.6c0.4,0.1,0.9,0.2,1.4,0.2c0.4,0,0.8,0,1.1-0.2c0.4-0.1,0.7-0.2,1-0.4  c0.3-0.2,0.6-0.3,0.9-0.5S101,174.5,101.2,174.2z M96.3,163.8c0,0.5,0.1,0.9,0.3,1.4c0.2,0.5,0.4,0.9,0.8,1.4c0.8-0.5,1.4-1,1.7-1.4  c0.3-0.4,0.5-0.8,0.5-1.1c0-0.5-0.1-0.9-0.4-1.2c-0.2-0.3-0.7-0.5-1.2-0.5c-0.6,0-1,0.1-1.2,0.4S96.3,163.3,96.3,163.8z"></path><path class="st0" d="M128.6,166.4l0.2-2.4h-0.1l-0.9,2.2l-4.2,7.3H123l-4.5-7.3l-0.8-2.2h-0.1l0.3,2.4v10.9h-1.8v-16.2h1.4l5.1,8.3  l0.8,1.8h0l0.7-1.8l4.8-8.2h1.5v16.2h-1.9V166.4z"></path><path class="st0" d="M135.1,161.1h8.8v1.7H137v5.3h6.3v1.7H137v5.8h7v1.7h-8.9V161.1z"></path><path class="st0" d="M157.6,169.9h-7.8v7.4H148v-16.2h1.9v7h7.8v-7h1.9v16.2h-1.9V169.9z"></path><g>	<path class="st1" d="M65.7,192.8l0.3,1.9h0l0.3-1.9l2.3-7.5h0.6l2.3,7.5l0.3,1.9h0l0.3-1.9l1.9-7.5h1.3l-3.1,11.4h-0.7l-2.3-7.5   l-0.3-1.7h-0.1l-0.3,1.7l-2.3,7.5h-0.7l-3.2-11.4h1.4L65.7,192.8z"></path>	<path class="st1" d="M82,193.4h-4.1l-1.1,3.1h-1.3l4.2-11.4h0.6l4.3,11.4h-1.4L82,193.4z M78.3,192.2h3.3l-1.2-3.4l-0.4-1.7h0   l-0.4,1.7L78.3,192.2z"></path>	<path class="st1" d="M93,196.5h-6.6v-11.2h1.3v10H93V196.5z"></path>	<path class="st1" d="M101.3,196.5h-6.6v-11.2H96v10h5.3V196.5z"></path>	<path class="st1" d="M103.2,185.3h1.3v11.2h-1.3V185.3z"></path>	<path class="st1" d="M112.7,193.6c0-0.4-0.1-0.8-0.4-1.1c-0.3-0.3-0.6-0.5-1-0.8c-0.4-0.2-0.8-0.4-1.3-0.6   c-0.5-0.2-0.9-0.4-1.3-0.7c-0.4-0.3-0.7-0.6-1-1c-0.3-0.4-0.4-0.9-0.4-1.5c0-0.9,0.3-1.6,0.9-2.1s1.5-0.8,2.6-0.8   c0.7,0,1.2,0,1.8,0.1s0.9,0.2,1.2,0.4l-0.4,1.2c-0.2-0.1-0.6-0.2-1.1-0.3c-0.5-0.1-1-0.2-1.6-0.2c-0.7,0-1.2,0.2-1.6,0.5   c-0.4,0.3-0.5,0.7-0.5,1.1c0,0.4,0.1,0.8,0.4,1s0.6,0.5,1,0.7c0.4,0.2,0.8,0.4,1.3,0.6c0.5,0.2,0.9,0.5,1.3,0.7   c0.4,0.3,0.7,0.6,1,1s0.4,0.9,0.4,1.5c0,0.5-0.1,0.9-0.3,1.3c-0.2,0.4-0.4,0.7-0.8,1c-0.3,0.3-0.7,0.5-1.2,0.6   c-0.5,0.1-1,0.2-1.6,0.2c-0.8,0-1.5-0.1-2-0.2c-0.5-0.1-0.9-0.3-1.2-0.4l0.4-1.2c0.2,0.1,0.6,0.3,1.1,0.4c0.5,0.1,1,0.2,1.6,0.2   c0.4,0,0.7,0,1-0.1s0.6-0.2,0.8-0.3c0.2-0.2,0.4-0.3,0.5-0.6C112.6,194.2,112.7,193.9,112.7,193.6z"></path></g><g>	<g>		<path id="_x31__00000023277822704628600770000005679434523434442128_" class="st1" d="M136.8,56.3c1.2,1,2.2,2.3,2.9,3.7    c1,1.8,1.5,3.7,1.8,5.8c0.4,3.2,0.4,6.4-0.1,9.6c-1.1,7.4-3.5,14.3-7.2,20.6c-1.1,1.8-2.2,3.6-3.7,5c-0.6,0.6-1.1,1.3-1.5,2.1    c-1.2,2.5-2.7,4.9-4.6,6.9c-1.3,1.4-2.4,2.8-3.5,4.4c-2,3-4.5,5.4-7.5,7.2c-3.3,2-6.7,2.9-10.5,2.4c-0.7-0.1-1.3-0.3-2-0.3    c-1.7,0-3.4-0.2-5-0.8c-0.3-0.1-0.6-0.1-0.9,0.1c-0.1,0.1-0.3,0.1-0.4,0.2c-4,1.8-8.1,2.3-12.4,1.6c-2.7-0.5-5.3-1.4-7.7-2.7    c-6-3.1-11-7.6-15.2-13.2c-0.3-0.4-0.5-0.7-0.8-1c-2.8-0.4-5.4-1.5-7.7-3.2c-7.4-5.2-11.2-12.5-13.2-21.9c-1-4.6-0.9-9.1,0.1-13.7    c1.4-5.9,3.3-10.6,7.8-14.1c0.2-0.2,0.4-0.4,0.6-0.5c0-0.2,0-0.3,0-0.4c0-0.3,0-0.5-0.1-0.8c-0.3-2.3-0.1-4.6,0.4-6.8    c0.8-3.7,2.4-6.8,4.7-9.5c2.2-2.6,4.8-4.7,7.7-6.3c4.6-2.6,9.5-4,14.6-4.5c3.1-0.3,6.2-0.2,9.3,0.1c3.6,0.4,7.1,1.3,10.5,2.6    c0.3,0.1,0.6,0.2,0.9,0.2c2.2,0.2,4.3,0.7,6.5,1.3c0.3,0.1,0.6,0.1,0.9,0.1c2.3-0.4,4.7-0.3,7-0.1c3.4,0.4,6.7,1.3,10,2.5    c3.3,1.3,6.4,2.9,9.3,5.2c4.6,3.8,7.2,8.9,7.9,15.2c0.1,0.8,0.2,1.7,0.2,2.6C136.4,55.9,136.6,56.1,136.8,56.3z M94.1,120.6    c0,0,0,0-0.1,0c0-0.4-0.1-0.5-0.5-0.6c-0.1-0.4-0.4-0.5-0.7-0.6c0.1,0.5,0.4,0.6,0.7,0.6c0.2,0.2,0.3,0.4,0.5,0.6    C94,120.6,94.1,120.6,94.1,120.6z M86.4,92c-0.1,0-0.2,0.2-0.3,0.3c-0.3,0.3-0.5,0.7-0.8,1.1c0.1,0,0.2,0,0.3,0    c0.7-0.5,1.4-1.1,2.1-1.6c0.1-0.1,0.2-0.2,0.2-0.3c0.7-0.1,1.3-0.5,2.1-0.8c-0.2-0.2-0.3-0.3-0.3-0.3c-0.6,0.3-1.2,0.7-1.8,1.1    C87.5,91.6,86.9,91.8,86.4,92z M78.8,58c0.5-0.1,0.7-0.4,0.9-0.9c-1,0.3-1.9,0.6-2.7,1c0,0,0,0.1,0,0.2c-0.1-0.1-0.3-0.1-0.4,0.1    c0.2-0.1,0.3-0.1,0.4-0.2C77.6,58.2,78.2,58.1,78.8,58z M114.9,41.9c0,0.1,0,0.1,0,0.2c0.3,1.3,0.6,2.6,0.8,3.9    c0,0.2,0.1,0.4,0.4,0.4c0-0.1,0.1-0.3,0.1-0.4c-0.1-1.4-0.5-2.6-1.1-3.8c0,0-0.1-0.1-0.2-0.1C114.9,42,114.9,41.9,114.9,41.9z     M129.7,82.5c-0.4,0.9-0.8,1.9-1.2,2.8c-0.3,0.6-0.3,1.1-0.1,1.6c0.6-0.9,1.5-3.6,1.6-5c0-0.1,0.1-0.1,0.1-0.2    c0,0.1-0.1,0.1-0.1,0.2C129.8,82,129.8,82.3,129.7,82.5z M105.7,33.8c-0.1,0-0.1,0-0.2-0.1c-0.1-0.1-0.1-0.3-0.2-0.3    c-1.2-0.5-2.4-1-3.6-1.5c-0.5-0.2-0.7-0.1-1.4,0.2c0.3,0.4,0.7,0.7,1.1,0.8c1.4,0.3,2.8,0.6,4.2,0.8    C105.6,33.7,105.6,33.7,105.7,33.8z M57.1,105.2c-1.5-2.7-2.8-5.5-3.5-8.6c-0.1-0.4-0.2-0.9-0.3-1.4c-0.1-0.6-0.3-1-0.6-1.4    c-1.6-2.1-3-4.4-4.1-6.9c-0.9-2-1.4-4.2-1.7-6.4c-0.3-2.7,0.1-5.3,1.2-7.8c0.3-0.7,0.4-1.3,0.2-2c-0.6-3.1-0.7-6.2-0.2-9.3    c0.1-0.4,0.1-0.7-0.1-1.1c-0.6-1.4-1.1-2.9-1.4-4.3c-0.3-0.2-0.5,0.1-0.7,0.2c-3.3,2.7-4.7,6.1-6.2,10.3c-1.7,5.1-2.1,10.3-1,15.5    c1.9,9.4,5.6,16.6,12.9,21.6c1.5,1,3.1,1.8,4.8,2.3c0.3,0.1,0.6,0.1,1,0.2C57.4,105.7,57.3,105.4,57.1,105.2z M72.2,30.8    c-4.8,1-8.9,3.5-12.3,7.4c-1.9,2.2-3.4,4.6-4.5,7.4c-0.4,0.9-0.6,1.9-0.9,2.8c-0.1,0.2,0,0.4-0.1,0.7c2.7-2.6,5.6-4.6,8.8-6    c3.2-1.4,6.5-2.2,10-2.1c0.2-0.3,0.4-0.7,0.7-1c1.7-2.6,3.6-5,5.9-7c0.8-0.7,1.8-1.3,2.6-1.9c0.2-0.1,0.3-0.2,0.7-0.5    C79.5,30.1,75.8,30.1,72.2,30.8z M87.2,28.1c-4-0.9-8.1-1.2-12.2-0.9c-5.2,0.4-10.2,1.6-14.9,4.2c-2.9,1.6-5.5,3.5-7.7,6.1    c-2.3,2.7-3.9,5.8-4.7,9.4c-0.4,2-0.5,4.1-0.3,6.1c0,0.1,0.1,0.2,0.1,0.4c0.2,0,0.3-0.1,0.5-0.1c1.4-0.8,2.9-1.5,4.4-2    c0.2-0.1,0.3-0.2,0.5-0.3c0.1-0.4,0.2-0.7,0.2-1.1c0.2-1.7,0.7-3.4,1.3-5c2.6-6,6.5-10.5,12-13.4c2.4-1.3,4.9-1.9,7.5-2.3    c1.6-0.2,3.1-0.2,4.7-0.2c2.1,0,4.1,0.3,6.1,0.7c0.4,0.1,0.8,0.1,1.2-0.1c1.1-0.3,2.2-0.6,3.2-0.8c0-0.1,0-0.1,0-0.2    C88.6,28.5,87.9,28.3,87.2,28.1z M135.7,60.8c-0.6,3.8-1.8,7.3-3.6,10.5c-0.3,0.5-0.4,0.9-0.4,1.5c0.1,0.9,0.1,1.8,0.2,2.7    c0,0.2,0.2,0.4,0.3,0.6c1.5,2.2,2.1,4.8,2.2,7.5c0.1,2-0.2,4-0.5,6c-0.5,2.5-1.2,4.9-2.1,7.3c-0.1,0.3-0.2,0.6-0.4,1.1    c0.5-0.2,0.6-0.6,0.8-0.9c1.3-2,2.5-4.1,3.5-6.3c1.9-4.2,3.3-8.5,4.2-13.1c0.5-2.8,0.8-5.7,0.7-8.6c-0.1-1.9-0.3-3.8-0.8-5.6    c-0.6-2.1-1.6-3.9-3.1-5.4c-0.1-0.1-0.3-0.3-0.6-0.5C136,58.7,135.9,59.7,135.7,60.8z M134.6,51.8c-0.9-5.3-3.3-9.6-7.3-12.8    c-2.4-1.9-5-3.4-7.7-4.5c-3.2-1.3-6.4-2.3-9.8-2.8c-1.8-0.3-3.9-0.4-5.3-0.2c0,0.3,0.2,0.3,0.4,0.3c1.1,0.6,2.3,1.2,3.4,1.8    c1.3,0.7,2.3,1.9,3.4,2.8c1.1,1,2.3,1.8,3.3,3c0,0.1,0.1,0.1,0.1,0.1c1.5,0.4,3,0.7,4.4,1.1c1.6,0.4,3,1.1,4.5,2    c3.4,2.1,5.7,5.2,6.8,9.4c0.1,0.3,0.2,0.7,0.3,1c1.3,0.6,2.5,1.2,3.9,1.8C134.9,53.6,134.7,52.7,134.6,51.8z M67,101.4    c0.7,0.2,1.4,0.2,2.1,0.2c1.7-0.1,3.3-0.3,4.9-0.9c0.3-0.1,0.7-0.3,0.9-0.5c1.5-1.3,2.8-2.7,4-4.2c0.1-0.1,0.1-0.2,0.2-0.3    c-0.2-0.1-0.4-0.3-0.5-0.4c-2-1.3-3.8-2.8-5.4-4.8c-0.6-0.7-1.3-1.3-2-1.8c-0.6-0.4-1.2-0.5-1.9-0.3c-1.9,0.6-3.9,0.8-5.9,0.5    c-0.1,0-0.2,0-0.4,0C62.8,91.8,64.6,97.5,67,101.4z M88.2,116.9c-0.6-0.8-1.2-1.7-1.8-2.6c-0.2,0-0.5,0-0.8,0    c-3.9,0.6-7.5-0.3-10.8-2.5c-2-1.3-3.8-3-5.4-4.9c-0.2-0.3-0.4-0.5-0.7-0.7c0,0-0.1,0-0.2-0.1c-0.5,0-0.9,0.3-1.4,0.5    c-0.5,0.2-1,0.4-1.5,0.6c0.1,0.2,0.1,0.4,0.2,0.5c2.6,4.1,5.7,7.7,9.6,10.4c1.8,1.3,3.8,2.3,5.9,2.8c3.1,0.8,5.9,0.1,8.7-1.4    c0.1,0,0.1-0.1,0.1-0.2C89.5,118.5,88.9,117.7,88.2,116.9z M92.8,34.9c-0.6-0.8-0.8-0.9-1.4-0.9c-2.1,0.2-4.2,0.6-6.3,1.3    c-2.5,0.9-4.8,2.3-6.6,4.4c-0.6,0.6-1.1,1.3-1.5,2.1c0.2,0.1,0.4,0.3,0.6,0.4c0.6,0.4,1.3,0.7,1.8,1.1c0.6,0.5,1.2,0.7,1.9,0.7    c1.8,0.1,3.5,0.5,5.2,1.2c0.3,0.1,0.5,0.1,0.8,0.2C88.2,41.2,90,37.7,92.8,34.9z M106.2,114.5c1.4,0.5,2.8,0.7,4.2,0.7    c1.1,0,2.2-0.1,3.3-0.3c0.4-0.1,0.7-0.2,1-0.6c0.8-1.1,1.7-2.1,2.4-3.2c1.3-1.8,2.3-3.7,3.3-5.8c0.1-0.2,0.1-0.4,0.2-0.7    c-0.5-0.1-0.9-0.2-1.3-0.4c-0.9-0.5-1.5-0.1-2.3,0.5c-2.3,1.9-4.8,3.4-7.6,4.2c-0.4,0.1-0.7,0.3-0.9,0.7c-0.8,1.4-1.7,2.7-2.6,4.1    c-0.1,0.1-0.2,0.3-0.3,0.5C105.9,114.3,106.1,114.4,106.2,114.5z M115.7,58.6c0.2,0.3,0.4,0.5,0.7,0.5c0.8,0.1,1.6,0.2,2.4,0.3    c1.8,0.3,3.5,0.8,5.1,1.5c1.5,0.7,2.9,1.5,4.1,2.7c0.2,0.1,0.3,0.3,0.5,0.4c0-0.2,0.1-0.3,0.1-0.4c-0.2-2.5-0.8-4.9-1.8-7.1    c-0.5-1-1-2-1.7-2.9c-0.2-0.3-0.5-0.5-0.9-0.5c-2.7-0.1-5.3,0.2-7.8,1.1c-1.4,0.5-1.4,0.6-1.9,2.2C115,57.2,115.4,57.9,115.7,58.6    z M92.7,48.6c1.3-0.2,2.6-0.3,4-0.5c0.4-0.3,0.5-0.8,0.6-1.4c0.2-2.1,0.2-4.2-0.5-6.2c-0.6-1.9-1.5-3.5-2.9-4.9    c-0.2,0.1-0.3,0.2-0.5,0.3c-2.5,2.6-4.1,5.7-4.8,9.4c0,0.2,0,0.4,0,0.6C90,46.8,91.4,47.7,92.7,48.6z M70.4,106.2    c2.3,2.6,4.9,4.7,8,6c2.3,0.9,4.7,1.1,7.3,0.8c-0.1-0.3-0.1-0.5-0.1-0.7c-0.6-1.6-1.1-3.2-1.4-4.8c-0.2-1.2-0.6-2.3-1-3.4    c-0.3-0.1-0.6,0.1-0.8,0.3c-1.3,0.8-2.6,1.4-4.1,1.8c-2.4,0.7-4.9,0.7-7.3-0.1c-0.2-0.1-0.4-0.1-0.6-0.1c0,0,0,0-0.1,0.1    C70.3,106,70.4,106.2,70.4,106.2z M85.3,103.5c0,0.5-0.1,1.1-0.1,1.6c0,1,0.1,1.9,0.5,2.8c0.6,1.3,1.3,2.6,2,3.8    c0.1,0.2,0.3,0.4,0.5,0.7c2.9-0.9,5.5-2.3,7.9-4.3c-0.1-0.2-0.2-0.4-0.3-0.6c-0.4-0.7-0.9-1.3-1.2-2c-0.2-0.4-0.5-0.6-0.9-0.7    c-0.7-0.2-1.5-0.5-2.2-0.8c-1.4-0.6-2.8-1.4-4-2.4c-0.2-0.2-0.5-0.3-0.7-0.5C85.8,101.5,85.4,102.4,85.3,103.5z M121.1,72.3    c0.3,0,0.5,0,0.7,0c1.4-0.1,2.7-0.2,4.1,0.1c0.2,0,0.5,0,0.8,0.1c0.7-1.3,1.2-2.6,1.7-4c-0.3-0.6-0.7-1-1.1-1.4    c-1.4-1.4-3.1-2.4-4.8-3.1c-1.4-0.6-2.8-0.9-4.3-1.2c-0.2,0-0.5,0-0.8,0c0,0.1-0.1,0.3-0.1,0.4c0.3,1.8,0.5,3.6,0.4,5.5    C119.1,69.6,120.2,70.8,121.1,72.3z M91.4,120.3c-0.7,0.3-1.4,0.7-2,1c-2.1,0.9-4.2,1.3-6.4,1.1c-1.6-0.1-3.2-0.6-4.6-1.3    c-3-1.4-5.7-3.4-8.1-5.9c-1.9-2-3.6-4.2-5.1-6.5c-0.2-0.4-0.5-0.8-0.7-1.1c-1.3,0.1-2.5,0.3-3.9,0.4c0.2,0.3,0.3,0.6,0.5,0.8    c1.5,2,3.2,3.8,5,5.5c3.1,2.8,6.4,5.2,10.1,7c2.5,1.2,5.1,2.1,7.8,2.4c3.3,0.4,6.6-0.1,9.8-1.4c0.1,0,0.1-0.1,0.2-0.1    c0,0,0-0.1,0.1-0.2C93.1,121.4,92.2,120.8,91.4,120.3z M59.9,62.9c0.9-0.3,1.8-0.6,2.7-0.8c2.2-0.6,4.4-1,6.7-1    c0.9,0,0.9,0,1.7-0.9c-0.2-0.7-0.4-1.4-0.5-2.1c-0.1-0.7-0.3-1.4-0.3-2c-0.1-0.7-0.1-1.4-0.2-2.2c-0.5-0.2-1,0-1.5,0.1    c-3.1,0.6-5.8,2.1-8.2,4.3c-1,0.9-1.5,2-1.8,3.4C58.9,62.1,59.4,62.5,59.9,62.9z M117.5,46.8c0.2,0.1,0.5,0.2,0.7,0.3    c1.1,0.5,2.1,1,3.2,1.5c1.4,0.7,2.6,1.7,3.7,2.9c0.3,0.3,0.6,0.5,1,0.5c1,0.1,2.1,0.3,3.1,0.5c0.1,0,0.3,0,0.5,0.1    c0-0.2,0-0.4-0.1-0.5c-0.9-3.6-2.9-6.3-5.8-8.2c-2.3-1.5-4.8-2.3-7.4-2.7c0,0-0.1,0-0.2,0.1C116.9,43,117.4,44.8,117.5,46.8z     M131.8,79.1c-0.4,3.6-1.4,6.9-2.9,10.1c-0.3,0.6-0.5,1.3-0.5,2c-0.1,3.3-0.6,6.6-1.5,9.8c-0.1,0.4-0.2,0.8-0.3,1.2    c0.2,0.2,0.4,0.1,0.5,0c0.1-0.1,0.2-0.2,0.4-0.2c0.9-0.5,1.4-1.2,1.9-2.2c1.5-3.5,2.7-7.1,3.4-10.9c0.4-2.1,0.6-4.3,0.3-6.5    c-0.1-1.2-0.4-2.4-0.8-3.5c-0.1-0.2-0.2-0.4-0.4-0.7C131.9,78.6,131.8,78.8,131.8,79.1z M99.8,93.8c-1.4,0.9-2.9,1.6-4.5,2.2    c-0.4,0.1-0.6,0.4-0.6,0.8c-0.1,0.9,0,1.9,0.2,2.8c0.4,1.5,1.1,2.8,2,4c0.3,0.4,0.6,0.5,1,0.5c0.5,0,0.9,0,1.4,0.1    c0.5,0.1,0.9-0.1,1.2-0.5c0.6-0.7,1.1-1.5,1.7-2.2c0.3-0.3,0.4-0.7,0.4-1.2c0-1.2-0.1-2.5-0.4-3.7c-0.4-1.3-1.1-2.3-2.1-3.1    C99.9,93.8,99.8,93.8,99.8,93.8z M82.6,53.3c0.5-3-0.3-5.5-2.2-7.6c-0.2-0.2-0.4-0.5-0.8-0.5c-1.4,0-2.8,0.1-4.2,0.5    c-0.7,2.1-0.9,4.3-0.9,6.6c0.9,0.2,1.7,0.4,2.5,0.7c0.8,0.2,1.5,0.5,2.3,0.9c0.8,0.3,1.5,0.8,2.2,1.2    C82.2,54.7,82.5,54.1,82.6,53.3z M57.4,49.9c2.3-0.4,4.6-0.6,7-0.5c0.5,0,1-0.1,1.5-0.5c1.5-1.2,3.1-2.1,4.7-2.9    c0.5-0.2,0.8-0.5,1-1.1c0.2-0.6,0.5-1.3,0.8-1.9c0.1-0.2,0.1-0.3,0.2-0.5c-0.3-0.3-0.6-0.2-0.9-0.2c-1.9,0-3.7,0.4-5.4,1    c-3.7,1.2-7,3.3-10,6c-0.3,0.2-0.6,0.4-0.7,0.9C56.1,50.1,56.8,50,57.4,49.9z M54.2,68.5c-0.1,0.3-0.2,0.5-0.3,0.7    c-0.9,3.4-1.1,6.9-0.6,10.4c0.1,0.7,0.3,1.3,0.7,1.8c0.3,0.4,0.6,0.9,1,1.2c0.7-0.8,1.4-1.7,2.2-2.5c0.8-0.8,1.6-1.4,2.5-2.1    c-0.6-1.3-1.2-2.5-1.7-3.9c-0.5-1.3-0.8-2.6-1.2-4C56,69.7,55.1,69.1,54.2,68.5z M105,39.4c-1-2-2.4-3.7-4.1-5.1    c-0.3-0.2-0.6-0.4-1-0.4c-1.1-0.1-2.3-0.2-3.4-0.2c-0.2,0-0.5,0.1-0.7,0.2c-0.3,0.2-0.6,0.5-0.9,0.7c0.7,1,1.4,2,2,3    c0.6,1,1,2.2,1.3,3.4c0.2,1.2,0.3,2.4,0.5,3.7c0.4-0.2,0.6-0.7,1-1c0.3-0.3,0.6-0.6,0.9-0.9c0.3-0.3,0.7-0.6,1.1-0.9    c0.4-0.3,0.8-0.5,1.2-0.8c0.4-0.2,0.8-0.4,1.1-0.6c0.4-0.2,0.8-0.4,1.3-0.6C105.2,39.8,105.1,39.6,105,39.4z M119.1,88.7    c-0.6-0.7-1.4-1.1-2.1-1.6c-0.2-0.1-0.5-0.1-0.7,0c-0.4,0.2-0.8,0.3-1.3,0.5c-1.1,0.4-2.2,0.6-3.4,0.6c-0.2,0-0.4,0-0.7,0.1    c0,0.2-0.1,0.4-0.1,0.5c0.2,3.3,0.9,6.3,2.5,9.1c0,0.1,0.1,0.1,0.3,0.2C116,95.3,117.8,92.2,119.1,88.7z M77.1,77.4    c-2.9-0.4-5.7,0-8.4,1.5c0.2,1.3,0.7,2.5,1.2,3.7c0.5,1.2,1,2.4,1.7,3.5c0.2-0.1,0.4-0.1,0.6-0.2c1.7-1,3.2-2.4,4.4-4    c0.6-0.8,1.2-1.6,1.8-2.5C77.9,78.7,77.5,78.1,77.1,77.4z M48,77.5c-0.2,2.5,0.2,4.9,1,7.3c0.8,2.4,2,4.6,3.4,6.6    c0.1,0.1,0.1,0.2,0.2,0.2c0.3,0,0.3-0.3,0.3-0.4c0-1.6,0.2-3.2,0.6-4.8c0.1-0.3,0.1-0.6,0-0.9c-0.4-1.3-0.7-2.6-1-3.9    c-0.1-0.3-0.2-0.6-0.3-0.8c-1.2-2-2.2-4.2-2.9-6.5c0-0.1-0.1-0.3-0.3-0.4C48.4,75,48.2,76.3,48,77.5z M103.2,122.2    c1.7-0.4,3.3-1.1,4.8-2c1.5-0.9,2.8-2,4.1-3.2c0.1-0.1,0.2-0.3,0.4-0.5c-0.5-0.2-1,0-1.4-0.1c-0.4,0-0.8,0-1.3,0    c-0.5,0-0.9-0.1-1.3-0.2c-0.4-0.1-0.8-0.1-1.2-0.2c-0.4-0.1-0.9-0.2-1.3-0.4c-0.4-0.1-0.8-0.3-1.2-0.4c-0.7,0.8-1.3,1.5-2,2.2    c-0.7,0.7-1.4,1.3-2.1,1.9c-0.7,0.6-1.5,1.2-2.4,1.9C100,122.1,101.5,122.6,103.2,122.2z M106.3,51.5c-0.1-0.1-0.3-0.2-0.4-0.3    c-1.8-0.8-3.7-1.2-5.6-1.5c-0.4-0.1-0.8,0-1.1,0.4c-0.5,0.6-1,1.1-1.6,1.7c-0.4,0.5-0.6,1.1-0.8,1.6c-0.2,0.7,0.1,1.3,0.8,1.5    c0.6,0.2,1.3,0.3,1.9,0.5c1.3,0.4,2.6,1,3.6,2c0.1,0.1,0.2,0.1,0.3,0.2C104.7,56.3,105.9,53.7,106.3,51.5z M58.5,58    c1.2-2.5,2.7-4.6,4.5-6.5c0.2-0.2,0.4-0.4,0.5-0.6c0,0,0-0.1,0-0.1c0-0.3-0.2-0.2-0.4-0.2c-1.8,0-3.6,0.2-5.4,0.5    c-0.9,0.2-1.8,0.4-2.8,0.6c-0.2,0.1-0.5,0.2-0.7,0.3c0,3,0.8,5.7,2.7,8C57.5,59.4,58.1,58.8,58.5,58z M82.6,97.1    c-0.3-0.1-0.5-0.1-0.8,0.2c-0.2,0.2-0.3,0.3-0.5,0.4c-1.7,1.5-3.6,2.8-5.6,3.7c-0.3,0.1-0.6,0.3-0.9,0.5c-1.1,0.8-2.2,1.6-3.2,2.4    c-0.1,0.1-0.2,0.1-0.3,0.3c0.2,0.1,0.3,0.2,0.5,0.3c3.2,0.8,6.2,0.3,9.2-1.2c0.7-0.3,1.3-0.8,1.9-1.1c0-0.9,0-1.7,0-2.6    c0.1-0.8,0.2-1.7,0.3-2.6C83,97.3,82.8,97.2,82.6,97.1z M53.6,66.1c0.4-0.9,0.8-1.7,1.2-2.5c0.4-0.8,0.9-1.6,1.3-2.4    c-0.5-0.8-1.1-1.6-1.6-2.4c-0.4-0.8-0.8-1.7-1.1-2.6c-0.3-0.9-0.4-1.9-0.6-2.9c-0.1,0-0.1,0-0.2,0c-0.8,1-1.4,2.2-2,3.4    c-0.6,1.2-1,2.5-1.2,3.8C50.6,62.7,52.4,65.2,53.6,66.1z M124.6,80.4c-0.7,0.9-1.5,1.7-2.2,2.6c-0.2,0.2-0.4,0.4-0.4,0.8    c-0.4,1.4-0.8,2.8-1.2,4.2c0,0.1,0,0.2,0,0.4c0.4,0.6,0.9,1.1,1.3,1.7c0.4,0.6,0.7,1.3,1.2,2c0.2-0.2,0.3-0.3,0.4-0.4    c1.2-1.6,2.2-3.3,3.2-5.1c0.2-0.3,0.3-0.7,0.2-1.1c-0.3-1.8-0.9-3.5-1.8-5c-0.1-0.1-0.2-0.1-0.3-0.2    C124.8,80.2,124.7,80.3,124.6,80.4z M115.6,73.7c0.4-0.9,0.8-2.7,0.8-4.2c-1.6-1.4-6.2-2.6-8.2-2.1c-0.1,1.8,0.8,4.5,2.1,6.4    C112.1,73.7,113.8,73.7,115.6,73.7z M134.9,56.5c-0.9-0.8-2.2-1.5-3.6-1.9c0,0.2,0,0.4,0,0.5c0.3,3.5,0,7-0.9,10.4    c-0.1,0.6-0.1,1,0.1,1.5c0.4,0.8,0.6,1.7,1,2.7C133.4,66.9,135.2,60,134.9,56.5z M114.1,54c0.5-2.1,0.8-4.3,0.6-6.6    c-2.1-0.7-4.3-0.9-6.5-0.9c-0.2,0.5-0.1,1-0.2,1.4c0,0.4-0.1,0.8-0.1,1.3c0,0.5-0.1,0.9-0.1,1.4c1,0.6,1.9,1.2,2.8,1.8    c0.9,0.6,1.7,1.4,2.5,2.1C113.4,54.4,113.7,54.2,114.1,54z M93.2,111.6c-1.3,0.7-2.7,1.3-4,1.9c0.4,0.9,2.2,2.9,3.6,4.1    c1.6-0.8,4.6-4,6-6.5c-0.2-0.4-0.6-0.7-0.9-1.1c-0.3-0.3-0.6-0.7-0.8-1C95.7,110,94.5,110.9,93.2,111.6z M96.8,120.6    c1.6-0.7,5.7-4.2,6.7-5.9c-0.6-0.4-1.2-0.8-1.8-1.3c-0.6-0.4-1.2-0.9-1.8-1.4c-0.6,0.8-1.2,1.6-1.8,2.3c-0.6,0.8-1.3,1.5-2,2.2    c-0.7,0.7-1.4,1.3-2.2,2C94.8,119.4,95.9,120,96.8,120.6z M63.5,106.2c-0.1-0.2-0.1-0.3-0.2-0.5c-0.6-1.4-1.3-2.8-1.9-4.1    c-0.2-0.4-0.3-0.7-0.7-0.8c-2-1.1-3.8-2.5-5.5-4.1c-0.1-0.1-0.2-0.1-0.3-0.2c-0.3,0.1-0.1,0.3-0.1,0.5c0.6,2.2,1.4,4.2,2.4,6.1    c0.6,1.2,1.2,2.3,2,3.4C61.1,106.6,62.2,106.6,63.5,106.2z M105.1,61.2c0.1,0,0.2,0,0.4-0.1c0.8-0.5,1.6-0.9,2.5-1.2    c0.2-0.1,0.5-0.2,0.6-0.4c0.9-1.6,2-2.9,3.4-4.1c-0.1-0.2-0.2-0.4-0.4-0.5c-1.2-1.2-2.5-2.1-4-2.8c-0.5,1.2-0.8,2.4-1.4,3.5    c-0.5,1.1-1.2,2.2-1.9,3.3C104.6,59.6,104.8,60.4,105.1,61.2z M79,62.6c0.4,0.6,1,0.9,1.6,1.2c1.3,0.7,2.7,1.1,4.2,0.9    c1-0.1,2-0.3,2.9-1c-0.7-1.5-1.6-2.7-2.6-3.9c-0.1-0.2-0.3-0.3-0.5-0.3c-1-0.2-1.9-0.4-2.9-0.3C80.8,60.3,79.9,61.4,79,62.6z     M73,87.9c2.2,0.4,4.4,0.4,6.5-0.4c0.1,0,0.2-0.1,0.3-0.2c0-1.8,0.2-3.6,0.9-5.3c-0.4-0.6-0.9-1-1.5-1.6c-0.2,0.3-0.4,0.5-0.6,0.8    c-1.4,2-3,3.7-4.9,5.1c-0.4,0.3-0.8,0.6-1.3,0.9C72.5,87.7,72.7,87.9,73,87.9z M74.9,70c0-0.6,0.1-1.2,0.1-1.8    c0-0.2-0.1-0.4-0.2-0.5c-0.3-0.4-0.6-0.8-0.9-1.3c-0.2,0-0.3,0-0.4,0c-0.9,0.2-1.7,0.5-2.6,0.7c-0.2,0.1-0.4,0.1-0.6,0.3    c-0.9,0.7-1.8,1.4-2.8,2.2c-0.2,1.3-0.1,2.7,0,4.2C71.2,71.3,70,71.8,74.9,70z M57.9,69c1.6,1.1,4.3,1.2,6.5,0.4    c0.1-0.1,0.1-0.3,0.2-0.5c0.2-0.6,0.5-1.3,0.7-1.9c-1-0.4-2-0.7-2.9-1.1c-0.9-0.4-1.8-1-2.8-1.5c-0.6,0.2-1.3,0.4-1.9,0.9    C57.6,66.6,57.8,67.8,57.9,69z M108,45.1c0.1,0,0.3,0.1,0.4,0.1c1.9,0,3.7,0.3,5.6,0.7c0.1,0,0.3,0,0.4,0c0-0.1,0.1-0.2,0.1-0.2    c-0.2-1.5-0.6-3-1.2-4.4c-0.1-0.4-0.4-0.5-0.7-0.6c-1.8-0.1-3.6-0.1-5.4,0.2c0,0,0,0-0.1,0.1C107.4,42.3,107.7,43.7,108,45.1z     M89.3,32.5c-1-0.4-2-0.8-3.1-1.1c-0.5-0.2-0.9-0.1-1.4,0.1c-1.7,0.8-3.3,1.9-4.8,3.2c-1.9,1.7-3.5,3.7-4.9,6    c-0.1,0.2-0.2,0.3-0.3,0.6c0.3,0.1,0.6,0.2,0.9,0.3c0.1-0.2,0.3-0.3,0.4-0.4c2.1-3.5,5-5.7,8.6-7c1.3-0.5,2.5-0.8,3.9-1    c0.4-0.1,0.8-0.2,1.3-0.3C89.5,32.7,89.4,32.6,89.3,32.5z M62.2,83c0.2-0.2,0.2-0.6,0.3-0.9c-0.7-1-1.3-1.9-2-2.9    c-1.8,0.9-3.7,2.8-4.5,4.5c1.2,1.3,2.6,2.3,4.3,3C60.8,85.4,61.4,84.2,62.2,83z M64,76c0-0.5-0.1-1.1-0.1-1.6c0-0.5,0-1.1,0-1.6    c0-0.5,0.1-1.1,0.2-1.7c-0.2,0-0.4-0.1-0.6,0c-1.6,0.3-3.1,0.2-4.6-0.2c-0.1,0-0.3,0-0.5-0.1c-0.1,0.4,0.1,0.8,0.2,1.1    c0.6,1.9,1.3,3.7,2.3,5.5C62,76.9,63,76.5,64,76z M99.8,47.9c1.6-1.2,3.4-2,5.3-2.4c0.5-0.1,1-0.2,1.6-0.3c0-1.4-0.4-2.7-0.8-3.9    c-1.2,0.1-3,1-4.4,2.3c-1.4,1.3-2.8,3.3-3.1,4.4C98.9,48.4,99.4,48.3,99.8,47.9z M113.5,100.2c-0.8,0.7-1.6,1.4-2.4,2    c-0.2,0.9-0.3,1.8-0.5,2.6c-0.2,0.8-0.5,1.6-0.8,2.5c1.6-0.2,5.3-2.3,7.1-4.1C115.6,102.4,114.5,101.4,113.5,100.2z M122.1,104.8    c-0.5,1.1-1,2.1-1.6,3.1c-0.6,1-1.1,2-1.8,3c-0.6,1-1.3,1.9-2,2.9c0.2,0,0.3,0,0.5,0c1.4-0.6,2.8-1.4,4-2.4    c0.3-0.2,0.6-0.5,0.8-0.9c1-1.7,1.8-3.6,2.4-5.5c0-0.1,0-0.2,0-0.4C123.7,104.7,122.9,104.8,122.1,104.8z M115.8,62.5    c-0.7-0.1-1.3-0.1-2,0c-0.6,0.1-1.2,0.2-1.9,0.3c-0.4,0.5-0.8,1-1.1,1.5c-0.4,0.5-0.8,1-1.2,1.6c0.8,0.3,1.6,0.2,2.3,0.4    c0.8,0.2,1.6,0.4,2.3,0.6c0.7,0.2,1.4,0.6,2.1,0.9C116.6,66.2,116.4,64,115.8,62.5z M113.5,120.2c2.3-1.5,4.3-3.5,6.1-5.8    c-0.4-0.2-0.5,0-0.8,0.1c-1,0.4-2.1,0.9-3.1,1.2c-0.5,0.2-0.9,0.4-1.3,0.8c-1.3,1.4-2.8,2.7-4.3,3.8c-1.1,0.7-2.2,1.4-3.3,1.9    c-0.2,0.1-0.3,0.2-0.4,0.3c0,0,0,0.1,0,0.2C108.9,122.5,111.3,121.6,113.5,120.2z M82,45.5c0.4,0.8,0.8,1.5,1.1,2.2    c0.4,0.8,0.6,1.6,0.7,2.4c0.1,0.8,0.1,1.7,0.1,2.6c0.1,0,0.2,0,0.3,0c1-0.7,2-1.3,3-2c0.1,0,0.1-0.1,0.2-0.2    c0-1.2-0.1-2.4-0.1-3.6C85.9,46.1,83.3,45.4,82,45.5z M83.3,56.2c0.2,0.2,0.3,0.3,0.4,0.5c0.6,0.5,1.1,1.1,1.7,1.5    c0.6,0.4,1.4,0.5,2.1,0.7c1.1,0.4,2.1,0.8,3.1,1.4c0.2,0.1,0.4,0.2,0.7,0.4c0.5-0.3,0.8-0.8,1.2-1.4c-0.5-0.6-1.1-1.2-1.6-1.8    c-0.5-0.6-0.9-1.2-1.4-1.9C87.3,55.6,85.3,55.8,83.3,56.2z M89.9,78.6c-0.3,0.8-0.7,1.5-1.1,2.2c-0.4,0.8-1,1.4-1.3,2.2    c0.1,0.1,0.2,0.2,0.3,0.2c2.1,0,4-0.7,5.8-1.9c-0.1-1.8-1.4-4.1-2.8-5.3C90.5,77,90.3,77.8,89.9,78.6z M112,39.4    c0.2-0.3,0-0.4-0.1-0.6c-0.6-0.9-1.4-1.6-2.3-2.1c-1.9-1-3.9-1.6-6-2.1c-0.1,0-0.3,0-0.5,0c0.2,0.6,0.6,0.8,0.9,1.2    c0.3,0.4,0.6,0.8,0.9,1.2c0.3,0.4,0.6,0.9,0.8,1.3c0.2,0.4,0.5,0.9,0.7,1.3C108.4,39.4,110.2,39.3,112,39.4z M106.3,104.6    c-1.1,0.4-2.2,0.6-3.4,0.9c-0.3,0.6-0.5,1.3-0.7,2c1.5,0.8,4,0.9,5.9,0.4c0.7-1.4,1.3-2.9,1.6-4.7    C108.5,103.7,107.4,104.3,106.3,104.6z M114.8,99.6c0,0.5,0.3,0.6,0.6,0.9c0.8,0.7,1.6,1.4,2.6,1.8c0.2-0.2,0.4-0.3,0.6-0.5    c1.2-1.2,2.4-2.5,3.5-3.8c0.4-0.5,0.6-1,0.6-1.7c0-0.5,0-0.9-0.2-1.5C120.1,97.2,117.7,98.8,114.8,99.6z M78.1,69.4    c0.1,0.1,0.3,0.2,0.5,0.2c0.9,0.1,1.9,0.2,2.8,0.2c0.1,0,0.1,0,0.3-0.1c0-0.2,0.1-0.4,0-0.6c-0.2-1.5-0.7-2.7-1.7-3.8    c-0.6-0.6-1.2-1-1.9-1.4c-0.4-0.2-0.7-0.1-0.9,0.3c0,0.1-0.1,0.1-0.1,0.2c-0.4,1-0.7,2-0.8,3.1C76.8,68.2,77.5,68.8,78.1,69.4z     M109.7,100.6c0-0.2-0.1-0.4-0.2-0.7c-1.4-0.3-2.6-0.7-3.9-1.5c-0.2,0.2-0.3,0.4-0.4,0.5c-0.4,0.6-0.7,1.3-1.2,1.9    c-0.3,0.5-0.6,1.1-0.6,1.7c0,0.4-0.1,0.9-0.2,1.4c0.8,0.1,1.6-0.2,2.3-0.4c1.5-0.4,2.9-1.1,4.2-2    C109.8,101.2,109.8,100.9,109.7,100.6z M124.9,103.2c0.1,0,0.2-0.2,0.3-0.3c0.1-0.2,0.1-0.4,0.2-0.5c0.8-2.7,1.4-5.5,1.7-8.3    c0-0.3,0-0.6,0-0.9c-0.3,0-0.3,0.2-0.4,0.4c-0.9,1.3-1.7,2.6-2.6,3.9c-0.2,0.3-0.3,0.6-0.4,0.9c-0.2,1.7-0.6,3.3-1,4.8    c0,0.1,0,0.2,0,0.3C123.4,103.6,124.1,103.3,124.9,103.2z M54.2,89c-0.1,1.4-0.1,2.8,0,4.2c0,0.4,0.2,0.7,0.4,1    c1.6,1.8,3.4,3.4,5.4,4.7c0.1,0.1,0.2,0.1,0.3,0.1c0,0,0.1,0,0.1-0.1c-0.1-0.6-0.2-1.1-0.5-1.6c-2.1-2.7-3.9-5.6-5.3-8.8    c0-0.1-0.1-0.1-0.3-0.3C54.3,88.6,54.2,88.8,54.2,89z M59.9,88.1c-0.8-0.5-1.6-0.9-2.3-1.4c-0.7-0.5-1.4-1.1-2.2-1.7    c-0.3,0.4-0.5,0.8-0.3,1.4c1.1,2.9,2.5,5.5,4.2,8c0,0,0.1,0,0.3,0.1C59.3,92.3,59.4,90.2,59.9,88.1z M120,89.6    c-0.4,1-0.9,1.9-1.3,2.9c-0.5,0.9-0.9,1.8-1.5,2.7c-0.5,0.9-1.1,1.7-1.8,2.7c0.3,0,0.5,0,0.6-0.1c2.3-0.9,4.3-2.5,6-4.5    C121.8,91.9,121.1,90.6,120,89.6z M83,70c0.5,0.3,0.9,0.4,1.3-0.1c1.3-1.3,2.8-2.1,4.5-2.5c0.1,0,0.2-0.1,0.3-0.1    c0,0,0-0.1,0.1-0.1c-0.2-1-0.3-1.4-0.8-2.3c-4,1.5-4,0.9-6.3,0.9C82.6,67.3,82.9,68.6,83,70z M109.1,88.1    c-0.1,0.1-0.1,0.1-0.1,0.1c-0.4,2-0.8,4.1-1.5,6c0.6,0.7,1.2,1.4,1.7,2.1c0.5,0.7,0.9,1.5,1.4,2.3c0.5,0.2,1.1,0.2,1.7,0    c-0.1-0.2-0.1-0.5-0.2-0.6c-1.2-2.2-1.9-4.6-2.2-7.1c-0.1-0.8-0.1-1.7-0.2-2.7C109.4,88.2,109.2,88.2,109.1,88.1z M60.6,90.7    c-0.2,1.9,0,3.8,0.4,5.6c0.1,0.4,0.2,0.8,0.5,1.1c1,1.2,2.1,2.3,3.3,3.4c0.1,0,0.1,0.1,0.2,0.1c0.2-0.2,0.1-0.3,0-0.5    c-0.6-1.2-1.1-2.5-1.6-3.7c-0.9-2.2-1.4-4.6-1.6-7c0-0.2,0-0.4-0.1-0.6c0-0.4-0.3-0.5-0.7-0.5C60.7,89.3,60.7,90,60.6,90.7z     M105.3,72.9c0.7,0.5,1.3,1.1,2,1.8c0.5-0.2,1-0.3,1.6-0.5c-0.4-1-0.9-1.9-1.2-2.8c-0.3-1-0.6-2-0.8-3c-1,0.5-2,0.9-3.1,1.5    c-0.2,0.5-0.5,1.1-0.7,1.7C103.8,72,104.6,72.4,105.3,72.9z M128.3,76.4c-0.4,0.4-0.9,0.8-1.3,1.2c-0.4,0.4-1,0.6-1.3,1.2    c0.4,0.8,0.9,1.6,1.2,2.4c0.3,0.8,0.6,1.6,0.9,2.5c0.1-0.2,0.2-0.3,0.3-0.5c0.8-2,1.5-4,2-6.2c0-0.2,0.1-0.3,0.1-0.4    c0.2-0.7,0-1.1-0.7-1.4C129.1,75.6,128.7,76,128.3,76.4z M104.3,109.4c-0.9-0.1-1.8-0.3-2.8-0.5c-0.3,0.7-0.7,1.3-1,1.9    c0.7,1,2.5,2.3,3.9,2.9c1-1,2.5-3.3,2.7-4.1C106.2,109.5,105.2,109.5,104.3,109.4z M95.1,67c0-0.1,0-0.3-0.1-0.3    c-0.3-0.6-0.7-1.3-1-1.9c-0.1-0.2-0.2-0.4-0.3-0.6c-0.7-0.7-1.4-1.3-2.2-1.8c-0.7,0.6-1.4,1.2-2.1,1.9c0.4,1,0.7,2,1.1,3    c0.7,0.1,1.4,0.1,2.1,0.2c0.7,0.1,1.3,0.2,2,0.4C94.8,67.5,94.9,67.3,95.1,67z M92.6,50.3c-0.1-0.1-0.4-0.2-0.6-0.2    c-1,0.3-2.1,0.6-3,1.1c0.1,1,0.4,1.7,1.1,2.9c1.4,0.1,2.9,0.1,4.5,0.2c0.2-0.3,0.3-0.6,0.5-0.9C94.4,52.2,93.5,51.2,92.6,50.3z     M112.4,78c-0.9-0.9-1.7-1.7-2.6-2.6c-0.6,0-1.1,0.2-1.7,0.4c0,0.2,0,0.3,0.1,0.4c0.7,1.6,0.9,3.3,0.7,5.1c0,0.1,0,0.3,0,0.5    c0.4,0.4,0.9,0.6,1.5,0.8C110.8,80.9,111.5,79.4,112.4,78z M116.3,52.9c0.1,0,0.3,0,0.5,0c1.9-0.6,3.9-0.9,5.9-1    c0.2,0,0.4,0,0.7-0.1c-0.1-0.2-0.2-0.3-0.2-0.4c-1.7-1.4-3.5-2.4-5.6-3.1C117.1,49.9,116.7,51.3,116.3,52.9z M113.6,81.2    c-0.4,0.6-0.8,1.2-1.2,1.8c0.2,0.1,0.4,0.2,0.5,0.2c1.4,0.1,2.8-0.2,4.1-0.7c1.1-0.4,2.1-1,3.1-1.7c0.1-0.1,0.2-0.2,0.3-0.3    c0,0,0-0.1,0-0.1c-0.9-0.1-1.9-0.1-2.8-0.3c-0.9-0.2-1.8-0.5-2.8-0.8C114.4,80,114,80.6,113.6,81.2z M117.2,75.3    c-0.4-0.1-0.8,0.1-1,0.5c-0.3,0.7-0.6,1.5-0.9,2.2c1.6,1,4.2,1.3,5.8,0.8c0.2-0.8,0.2-1,0-2.2C120,76,118.6,75.6,117.2,75.3z     M76.4,72c0.3,0.9,0.5,1.8,0.8,2.7c0.1,0.3,0.3,0.5,0.6,0.6c0.8,0.2,1.5,0.5,2.3,0.7c0.5-0.7,0.9-1.6,1.2-3.1    c-0.2-0.1-0.4-0.2-0.6-0.4c-0.6-0.4-1.3-0.7-1.9-1.2c-0.5-0.4-1-0.6-1.7-0.5c-0.2,0-0.5,0.1-0.8,0.1C76.3,71.5,76.3,71.8,76.4,72z     M89.6,75.5c-0.1,0-0.2-0.1-0.3-0.1c-1.6,0.5-4,2.1-5.1,3.5c0.2,0.4,0.6,0.6,0.9,0.9c0.3,0.3,0.6,0.6,0.9,0.8    c0.3,0.3,0.6,0.7,0.9,1C87.9,80.6,89.2,77.8,89.6,75.5z M92.6,101.2c-0.2-0.6-0.4-1.2-0.7-1.8c-0.2-0.6-0.4-1.3-0.6-2    c-0.5-0.1-0.9,0.1-1.3,0.2c-0.1,0-0.3,0.1-0.4,0.2c-0.6,0.7-1.2,1.5-1.8,2.2c1,1.2,4,2.9,5.6,3.1    C93.2,102.4,92.8,101.8,92.6,101.2z M98.2,62c-0.3,0.8-0.3,0.8,0.2,1.3c1.1,1,2.4,1.4,3.8,1.3c0.2-0.4,0.5-0.7,0.7-1.1    c0.3-0.4,0.6-0.7,0.8-1.1c0.1-0.2,0.1-0.4,0.1-0.6c0-0.7-0.2-1.3-0.5-1.9C100,62.2,99.7,61.7,98.2,62z M68.5,74.9    c2.4-0.3,4.8-0.3,7.2,0c0.1-0.5-0.1-0.8-0.2-1.1c-0.1-0.4-0.2-0.7-0.3-1.1c-0.1-0.4-0.2-0.7-0.3-1.2    C73.1,71.6,69.6,73.4,68.5,74.9z M101.2,82.2c-0.7-1.4-1.3-2.8-1.6-4.4c-0.3-0.1-0.4,0.1-0.5,0.2c-0.8,0.8-1.1,1.9-1.5,2.9    c-0.1,0.2-0.1,0.4,0,0.6c0.5,1.3,1.2,2.4,2.3,3.3C100.5,83.9,100.9,83.1,101.2,82.2z M94,30.2c-0.1-0.1-0.3-0.1-0.4-0.1    C91.8,30,89.9,30,88,30.5c0.2,0.2,0.3,0.3,0.4,0.3c1.1,0.5,2.2,1,3.2,1.5c0.4,0.2,0.7,0.3,1.1,0.3c0.8-0.1,1.6-0.1,2.4-0.1    c0.7,0,1.2-0.2,1.8-0.8C95.9,31.1,95,30.7,94,30.2z M106.9,87.5c-0.3,0.1-0.6,0.2-0.8,0.5c-0.9,1.2-1.9,2.3-3,3.3    c0.5,0.5,1.1,0.7,1.6,1c0.5,0.3,1.1,0.7,1.6,1c0.7-1.1,1.3-3.6,1.3-5.5C107.4,87.6,107.2,87.5,106.9,87.5z M97.9,84.2    c-0.4-0.5-0.7-1-1.1-1.6c-0.4,0.3-0.5,0.7-0.7,1c-0.7,0.9-1.2,2-1.2,3.2c0,0.5-0.2,0.9-0.3,1.4c0.2,0,0.3,0.1,0.4,0.1    c1.5-0.4,2.8-1.2,4-2.4c0,0,0.1-0.1,0.1-0.2C98.7,85.2,98.3,84.8,97.9,84.2z M95.8,79.7c-0.3-1.7-0.5-3.5,0-5.3    c-0.7-0.3-1.4-0.1-2.1-0.1c-0.7,0-1.4,0.2-2.1,0.4c0.1,0.2,0.1,0.3,0.2,0.4c1.3,1.5,2.3,3.1,2.9,5.1c0,0.1,0.1,0.1,0.2,0.2    C95.2,80.3,95.5,80,95.8,79.7z M104.2,79.3c-0.6,0.6-1,1.6-1.4,3.1c0.5,0.8,1.1,1.5,1.8,2.1c0.7-0.2,1.3-0.3,2-0.5    c0.3-0.1,0.4-0.2,0.5-0.5c0.1-0.3,0.2-0.6,0.3-1C106.2,81.5,105.1,80.5,104.2,79.3z M51.3,65.6c-0.3-0.4-0.7-0.9-1-1.3    c-0.3-0.5-0.7-1-1-1.5c-0.5,1.4-0.3,5.5,0.2,7.3c0.6-0.4,1-1.1,1.5-1.6c0.5-0.5,1-1,1.5-1.5C52.1,66.5,51.7,66,51.3,65.6z     M62,55.2c2.3-1.5,4.7-2.4,7.3-2.8c0.2,0,0.5,0,0.6-0.5c-0.1-0.1-0.2-0.2-0.4-0.2c-1.1-0.4-2.3-0.6-3.5-0.8    c-0.3-0.1-0.6,0-0.9,0.2c-1.4,1.2-2.6,2.6-3.6,4.4C61.7,55.4,61.9,55.3,62,55.2z M98.3,60.5c1.4,0.2,3-0.5,4.2-1.8    c-0.8-1.1-2.8-2.1-4.8-2.3C97.9,57.8,98.1,59.1,98.3,60.5z M126.7,53.4c0.5,1,1,1.8,1.4,2.7c0.4,0.9,0.7,1.9,1,2.9    c0.3,0.9,0.5,1.9,0.7,2.9c0.5-1.3,0.6-5.4,0.1-7.8C128.8,53.7,127.8,53.5,126.7,53.4z M66.9,64.5c0.2-0.3,0.5-0.7,0.7-1    c0.3-0.3,0.5-0.7,0.8-1c-1.3-0.2-4.8,0.4-6.9,1.2c0,0.1,0,0.2,0.1,0.3c1.3,0.8,2.6,1.4,4.1,1.7c0.1,0,0.2,0,0.4,0    C66.4,65.2,66.6,64.9,66.9,64.5z M72,59.3c0.9-0.3,1.5-0.9,2.3-1.3c-0.1-0.3-0.1-0.5-0.2-0.7c-0.2-0.7-0.4-1.5-0.5-2.2    c-0.2-1.1-0.7-1.5-1.7-1.5c-0.2,0-0.5,0.1-0.8,0.1C71.1,55.6,71.4,57.4,72,59.3z M63,87.5c1.1,0.5,3.7,0.5,5.1,0c0,0,0-0.1,0-0.1    c0,0,0-0.1,0-0.1c-0.9-0.7-1.8-1.4-2.7-2.1c-0.6-0.5-1.2-1.1-1.7-1.7c0,0-0.1,0-0.2,0C63,84.9,62.8,86.3,63,87.5z M97.7,64.3    c-0.3,0.7-0.5,1.3-0.8,1.9c0.4,1.5,1.4,2,2.6,2.3c0.2,0.1,0.5,0,0.7-0.1c0,0,0.1,0,0.1-0.1c1.2-0.6,1.2-0.6,1.5-2.4    C100.2,65.8,98.9,65.3,97.7,64.3z M52,74.5c0.1-1,0.2-2,0.3-3c0.1-0.9,0.4-1.8,0.6-3c-1.1,1-2,2-2.8,3.2c-0.2,0.2-0.2,0.5-0.1,0.8    c0.5,1.7,1,3.4,1.8,4.9c0,0,0.1,0,0.2,0.1C51.9,76.4,51.9,75.4,52,74.5z M104,49.2c0.8,0.3,1.7,0.6,2.5,0.8c0.4-0.8,0.5-2,0.3-3.4    c-0.9-0.1-1.8,0.2-2.6,0.5c-0.9,0.3-1.8,0.7-2.8,1.3C102.3,48.9,103.1,48.9,104,49.2z M128.5,65.9c-0.6-0.9-1.4-1.6-2.2-2.3    c-1.7-1.3-3.6-2.1-5.6-2.6c-1.3-0.3-2.6-0.6-3.9-0.7c-0.1,0.7,0,0.8,0.4,0.8c0.9,0.2,1.7,0.3,2.6,0.5c1.9,0.4,3.7,1.1,5.4,2.1    c1,0.6,2,1.4,2.9,2.2c0.2,0.2,0.4,0.3,0.5,0.5c0.1-0.1,0.1-0.1,0.2-0.2C128.7,66.3,128.6,66.1,128.5,65.9z M73.9,46.4    c-0.1-0.3-0.3-0.2-0.5-0.2c-0.4,0.1-0.8,0.3-1.2,0.4c-0.5,1.2-0.9,3-1,4.3c0.6,0.4,1.2,0.8,2,1.3C73.3,50.1,73.5,48.2,73.9,46.4z     M67.6,104.9c0.1-0.3-0.1-0.5-0.2-0.6c-0.9-0.7-1.8-1.4-2.7-2c-0.5-0.3-1.1-0.4-1.8-0.6c0,0.2,0,0.3,0,0.5    c0.5,1.3,1.1,2.5,1.8,3.7C65.8,105.8,66.7,105.5,67.6,104.9z M92.1,86.8c0.4-0.4,0.7-0.8,1.1-1.2c0.8-0.7,0.9-1.6,0.7-2.6    c-0.1,0-0.1-0.1-0.2-0.1c-1,0.4-2,0.9-3,1.3c-0.1,0.9-0.1,2.3,0.2,3.5C91.5,87.5,91.8,87.1,92.1,86.8z M91.2,73.2    c0.1,0,0.2,0.1,0.2,0.1c0.6-0.1,1.1-0.2,1.7-0.2c1-0.1,2.1-0.2,3.2-0.3c0.2-0.4,0.5-0.9,0.8-1.5c-0.4-0.1-0.7-0.1-1-0.2    c-0.7,0-1.4-0.1-2.1-0.1c-0.6,0-1.2,0.1-1.7,0.6c-0.4,0.3-0.8,0.5-1.2,0.8C91.2,72.8,91.2,73,91.2,73.2z M86.7,96.4    c0.2,0,0.4-0.1,0.5-0.3c0.9-1.2,2-2.2,3.1-3.1c0-0.3-0.1-0.6-0.1-0.9c-0.9,0.1-2,0.7-3,1.5c-1,0.8-1.6,1.6-2,2.6    C85.6,96.4,86.2,96.5,86.7,96.4z M123.9,76.9c0.7-0.6,1.1-1.4,1.5-2.2c0.2-0.3,0.5-0.6,0.4-1.1c-1.3-0.2-2.6-0.4-4,0    c0.2,0.7,0.3,1.4,0.5,2.2C122.9,76.2,123.4,76.5,123.9,76.9z M76.9,90.6c1.2,0.4,2.4,0.7,3.7,0.8c-0.2-0.9-0.4-1.7-0.6-2.6    c-0.5,0.1-0.9,0.2-1.3,0.3c-0.4,0.1-0.9,0.2-1.3,0.2c-0.4,0.1-0.8,0.1-1.2,0.1c-0.4,0-0.9,0-1.5,0C75.4,90.1,76.1,90.4,76.9,90.6z     M75.3,55.5c0.1,0.5,0.2,1,0.3,1.6c0.6-0.1,3.5-1.2,4-1.5c-1.2-0.7-2.4-1.1-3.6-1.5c-0.4-0.1-0.9-0.4-1.3-0.2    C74.9,54.5,75.2,55,75.3,55.5z M124.3,95c0.8-1.3,1.6-2.7,2.4-4c0.5-0.8,0.7-1.7,0.5-2.6c-0.2-0.1-0.3,0.1-0.4,0.3    c-0.9,1.6-1.9,3.1-3,4.5c-0.2,0.3-0.3,0.6-0.2,0.9c0.1,0.4,0.1,0.9,0.2,1.5C124,95.3,124.2,95.1,124.3,95z M85.4,85.6    c-0.4-0.4-1.8-1.7-2.2-2c-0.5-0.3-0.9-0.5-1.5-0.8c-0.6,1.3-0.7,2.6-0.7,3.9C82.2,86.5,84.6,86.6,85.4,85.6z M89.8,70.4    c0.1-0.6-0.1-1.1-0.2-1.6c-1.3-0.1-3.1,0.6-4.3,1.9c0.1,0.1,0.3,0.2,0.4,0.3c0.4,0.2,0.9,0.4,1.3,0.6    C87.9,71.2,88.8,70.8,89.8,70.4z M85.5,90.9c0.7-1.2,1.3-2.4,1.5-3.9c-1.6-0.1-2.1,0.3-1.2-1.2c-0.4,1.9-1.1,3.6-2,5.4    C84.5,91.3,84.9,91.1,85.5,90.9z M47.9,54.9c0,1.1,0.3,2.3,0.9,3.6c0.3-0.4,0.4-0.9,0.6-1.3c0.2-0.4,0.4-0.9,0.6-1.4    c0.2-0.4,0.4-0.8,0.6-1.2c0.2-0.4,0.5-0.8,0.7-1.3C50,53.6,48.9,54.2,47.9,54.9z M81.3,88.3c-0.1,1,0.2,2.3,0.7,3.1    c0.8-0.7,1.8-2.6,2-4.1C82.9,87.6,82.3,87.7,81.3,88.3z M70.6,62.8c-0.8,0.7-1.4,1.5-1.9,2.5c-0.1,0.2-0.1,0.3-0.2,0.6    c0.8,0.1,1.4,0.2,2-0.4c0.6-0.7,1.3-1.3,1.7-2.1C71.8,62.1,71.5,62,70.6,62.8z M88.6,54.2c-0.2-0.8-0.5-1.5-0.8-2.2    c-1.3,0.5-3.1,1.8-3.8,2.7C85.5,54.6,87,54.4,88.6,54.2z M116.4,85.4c0.2,0.1,0.5,0.1,0.7-0.1c1.3-0.7,2.4-1.5,3.5-2.5    c0.2-0.2,0.4-0.4,0.3-0.9c-0.5,0.1-0.8,0.5-1.2,0.7c-0.4,0.2-0.8,0.5-1.2,0.7c-0.4,0.2-0.8,0.4-1.2,0.5c-0.4,0.2-0.9,0.3-1.3,0.4    c-0.4,0.1-0.9,0.2-1.4,0.4C115.3,84.9,115.9,85.1,116.4,85.4z M81.2,93c-0.5-0.3-1.1-0.2-1.6-0.3c-0.5-0.1-1.1-0.2-1.6-0.3    c-0.5-0.1-1-0.3-1.7-0.5c0.3,0.4,0.5,0.6,0.7,0.7c1.1,0.9,2.2,1.6,3.2,2.1C80.5,94.1,80.8,93.6,81.2,93z M96.3,64.4    c0.1-0.4,0.2-0.7,0.3-1.1c-0.3-0.6-0.6-1.1-0.9-1.7c-0.3-0.5-0.8-0.6-1.4-0.8c-0.1,1.7,0.3,3.2,1.7,4.2    C96.2,64.7,96.3,64.6,96.3,64.4z M65.7,75.5c0.8-0.3,0.8-0.4,0.8-1.2c-0.1-1.3-0.2-2.6-0.3-3.9c-0.5-0.1-0.6,0-0.8,0.4    c-0.1,0.4-0.2,0.7-0.2,1.1c-0.1,0.7-0.1,1.5-0.1,2.2c0,0.5,0.1,0.9,0.1,1.4C65.5,75.6,65.6,75.6,65.7,75.5z M92.8,93.2    c-0.5,0.2-0.7,0.7-0.8,1.2c-0.1,0.4,0,0.9,0.2,1.3c0.6,0,1-0.2,1.5-0.4c0.3-0.8,0.7-1.7,1.1-2.6C94,92.6,93.4,92.9,92.8,93.2z     M66.5,80.4c0.8,2,1.9,3.6,3.3,5.3c0-0.5-0.2-0.8-0.3-1c-0.1-0.3-0.3-0.7-0.5-1c-0.1-0.3-0.3-0.6-0.4-0.9c-0.1-0.3-0.2-0.6-0.4-1    c-0.1-0.4-0.3-0.7-0.4-1.1c-0.1-0.3-0.2-0.6-0.4-1C67.1,79.8,66.8,80,66.5,80.4z M85.7,75.9c0.4-0.3,0.9-0.6,1.4-0.8    c0.5-0.3,1-0.5,1.5-0.8c-0.2-0.4-0.5-0.5-0.8-0.5c-0.2,0-0.4,0.1-0.6,0.1c-1.1-0.2-1.7,0.6-2.2,1.4c-0.3,0.5-0.6,1-0.7,1.8    C84.8,76.5,85.3,76.2,85.7,75.9z M70.1,50.4c0.2-1,0.4-1.9,0.6-2.9c-0.3,0.1-0.5,0.1-0.7,0.2c-1.3,0.7-2.1,1.2-2.8,1.9    C68.2,50,69.1,50.1,70.1,50.4z M119.8,72.6c-0.2-0.6-0.6-1-0.9-1.4c-0.3-0.4-0.7-0.7-1.1-1c-0.1,0-0.1,0-0.1,0c0,0,0,0.1-0.1,0.1    c-0.2,1-0.3,2-0.5,3.2C118,73.3,118.9,72.9,119.8,72.6z M111.2,85.1c-0.3,0.8-0.3,0.8-0.3,1.8c0.2,0,0.5,0.1,0.7,0.1    c1.1,0,2.3-0.3,3.4-0.8C113.7,85.6,112.5,85.2,111.2,85.1z M82.8,77.7c0.1-0.5,0.2-0.9,0.3-1.3c0.1-0.4,0.2-0.8,0.4-1.2    c-0.2-0.3-0.6-0.3-0.6-0.8c0-0.3-0.1-0.7-0.2-1c-0.1,0-0.2,0-0.2,0.1c-0.4,1-0.8,2-1.2,3.1C81.8,77,82.3,77.3,82.8,77.7z     M67.1,84.1c-0.3-0.4-0.5-0.9-0.8-1.3c-0.3-0.5-0.5-1-0.8-1.5c-0.5,0.2-0.8,0.6-1.1,1c0.7,1.1,2.5,2.8,3.6,3.3    C67.8,85,67.4,84.6,67.1,84.1z M106,75.4c-0.6-1-1.7-1.8-3.1-2.4c0,0.7,0.2,1.3,0.5,1.9c0.1,0.1,0.2,0.2,0.3,0.3    c0.4,0.3,0.9,0.6,1.4,0.9C105.4,75.8,105.7,75.6,106,75.4z M94,55.9c-0.8-0.3-1.9-0.3-3-0.2c0,0.1,0.1,0.3,0.1,0.4    c0.6,0.8,1.2,1.5,2,2C93.7,57.4,93.7,56.6,94,55.9z M101,88c-0.8,0.3-1.8,1.1-2.4,2c0.9,0.2,1.7,0.5,2.8,0.7    C101.1,89.7,101.2,88.9,101,88z M64.3,77.7c0,0,0-0.1-0.1-0.2c-0.7,0-1.6,0.4-2.6,1.1c0.3,0.8,0.8,1.3,1.3,2.1    C63.5,79.6,63.9,78.6,64.3,77.7z M121.3,103.3c0.5-1,0.7-2.1,1-3.3c-0.6,0.4-2.2,2.1-2.9,2.9C120,103.2,120.6,103.4,121.3,103.3z     M87,60.1c0.5,1.1,1.2,1.9,1.6,2.8c0.7-0.2,1.1-0.7,1.7-1.3C89.3,61,88.3,60.5,87,60.1z M97.2,74.3c-0.5,0.5-0.7,2.6-0.3,4.1    c0.3,0,0.5-0.3,0.6-0.6c0.3-1.1,0.5-2.2,0.5-3.4C97.6,74.4,97.4,74.4,97.2,74.3z M91,49.1c-0.8-0.7-1.6-1.2-2.4-1.6    c-0.2,0.9-0.2,1.4,0.1,2.5C89.5,49.7,90.2,49.4,91,49.1z M105.3,96.3c0.2-0.5,0.5-1,0.7-1.5c-0.6-0.8-1.6-1.4-2.7-1.7    C103.8,94.4,104.3,95.4,105.3,96.3z M113.2,76.8c0.5-0.6,1.1-1.1,1.6-1.7c-0.7-0.3-2.2-0.3-3.4,0C112,75.9,112.5,76.4,113.2,76.8z     M93.5,96.9c-0.4-0.1-0.4-0.1-0.9,0.1c0,0.1,0,0.2,0,0.3c0.4,1.1,0.7,2.3,1.1,3.4c0.3,0.9,0.7,1.7,1.1,2.5    c0.1,0.2,0.2,0.3,0.4,0.5C93.1,99.1,93.7,98.7,93.5,96.9z M108.9,98.3c-0.3-1-1-1.9-1.9-2.6c-0.1,0.1-0.2,0.2-0.2,0.4    c-0.2,0.3-0.3,0.7-0.5,1.1C107.3,97.9,107.9,98.2,108.9,98.3z M98.5,93c-0.7-0.4-0.7-0.4-2-0.6c-0.6,0.5-0.8,1.2-1.1,2    C96.6,94.2,97.6,93.7,98.5,93z M89.5,87.2c0.2-0.9,0.3-1.5-0.1-2.7c-0.4-0.1-0.8-0.1-1.2,0.1c-0.2,0.5,0,1.1,0,1.6    C88.7,86.7,89.1,87.1,89.5,87.2z M70.4,76.7c0.7-0.2,1.4-0.4,2.1-0.7C71,76,69.5,76,68,76.4c0.1,0.4,0.1,0.7,0.2,1.2    C69,77.3,69.7,77,70.4,76.7z M100.4,108.4c-0.5-0.5-1-0.7-1.4-1c-0.4,0.2-0.7,0.5-1,0.9c0.4,0.6,0.9,1.1,1.5,1.8    C99.9,109.4,100.2,108.9,100.4,108.4z M74.1,42.5c-0.6,0.7-0.9,1.5-1.2,2.4c0.6,0.1,1-0.1,1.4-0.3c0.1,0,0.2-0.2,0.3-0.3    c0.2-0.4,0.4-0.9,0.6-1.5C74.8,42.7,74.5,42.6,74.1,42.5z M126.9,103.8c-0.7,0.2-1.1,0.6-1.3,1.4c-0.2,0.8-0.5,1.6-0.9,2.4    c0.8-0.6,2-2.4,2.6-4C127.2,103.7,127.1,103.7,126.9,103.8z M96.1,56c-0.1,0-0.2,0.1-0.2,0.1c-0.2,1.3,0,2.5,0.4,3.7    c0.1,0.3,0.1,0.3,0.6,0.4C97,58.6,96.7,57,96.1,56z M102.4,87.8c-0.1,1-0.1,1,0.2,2.2c0.8-0.4,1.3-1.1,2-2    C103.6,88,103,87.9,102.4,87.8z M74.2,64.5c0.8-0.3,1.4-0.7,2-1.3c-0.7-0.5-1.3-0.5-2.1-0.6c-0.2,0.3-0.3,0.5-0.5,0.8    C73.8,63.8,74,64.1,74.2,64.5z M54.7,67.1c0.5,0.7,0.9,1,1.8,1.3c0-0.1,0.1-0.1,0.1-0.2c0-0.7,0-1.4-0.1-2.2    C55.8,66.2,55.2,66.6,54.7,67.1z M82.2,79.3c-0.5-0.5-1.1-0.7-1.7-0.9c-0.2,0.3-0.3,0.6-0.5,0.9c0.4,0.6,0.8,1,1.3,1.4    C81.6,80.2,81.9,79.8,82.2,79.3z M93.4,69c-0.8-0.4-1.6-0.4-2.5-0.4c-0.1,0.5,0.1,0.9,0.1,1.5C92,70.1,92.9,70,93.4,69z M128.6,73    c0.2,0.1,0.4,0.3,0.7,0.4c0.3-0.5,0.6-0.9,0.9-1.3c-0.2-0.6-0.4-1.1-0.7-1.8C129.1,71.2,128.9,72.1,128.6,73z M101.1,75.5    c-0.3,0-0.4,0.3-0.4,0.5c0,0.2,0,0.4,0,0.6c0.2,0.9,0.4,1.7,0.6,2.6c0,0.2,0.1,0.5,0.3,0.5C101.8,78.6,101.6,76.9,101.1,75.5z     M69.5,104c0.1,0,0.3,0,0.4-0.1c0.5-0.3,1.1-0.6,1.6-1c0-0.1,0-0.2,0-0.2c-1.1,0-2.2,0.1-3.5,0.2C68.4,103.6,68.9,103.8,69.5,104z     M94,49.7c0.3,0.7,0.7,1.2,1.4,1.8c0.3-0.6,0.4-1.3,0.7-2C95.4,49.5,94.7,49.7,94,49.7z M107,62.7c0.4-0.2,0.4-0.7,0.5-1.1    c-0.1-0.2-0.3-0.1-0.5-0.1c-0.5,0.3-1,0.6-1.5,0.9c-0.4,0.3-0.5,0.7-0.3,1.2C105.9,63.5,106.5,63.1,107,62.7z M89.5,89    c-0.4-0.5-0.5-0.6-1.4-1c-0.2,0.7-0.5,1.3-0.8,2.2C88.2,89.9,88.8,89.5,89.5,89z M85.2,99.4c-0.3-0.3-0.5-0.6-0.8-1    c-0.3,0.6-0.3,0.6-0.4,0.9c0,0.3,0,0.7,0,1c0,0.3,0,0.7,0.1,1C84.7,101.1,84.7,101.1,85.2,99.4z M118.2,86.2    c0.4,0.5,0.9,0.7,1.4,1.1c0.4-0.7,0.6-1.5,0.8-2.5C119.5,85.3,118.9,85.8,118.2,86.2z M115.3,61.2c0-0.2,0-0.4-0.1-0.6    c-0.1-0.1-0.3-0.3-0.4-0.3c-0.4,0-0.8,0-1.1,0c-0.5,0-0.8,0.2-0.9,1C113.7,61.2,114.5,61.2,115.3,61.2z M110.9,59.1    c0.4-0.4,0.8-0.9,1.1-1.4c0.3-0.4,0.6-0.7,0.9-1.4c-1.2,0.8-2,1.7-2.8,2.8C110.5,59.4,110.7,59.3,110.9,59.1z M66.6,78.7    c0.2-0.1,0.3-0.3,0.5-0.4c0-0.6-0.1-1.1-0.3-1.6c-0.4,0.3-0.7,0.7-0.9,1.1c-0.1,0.2-0.1,0.3,0.2,1.1    C66.3,78.9,66.4,78.8,66.6,78.7z M103.8,98.9c0.4-0.4,0.6-0.9,0.8-1.4c-0.4-0.5-0.8-1-1.2-1.4c0,0-0.1,0-0.1,0.1    C103.5,97.1,103.6,97.9,103.8,98.9z M91.6,118.6c0-0.1,0-0.3,0-0.3c-1-1.1-2-2.1-3-3.2C89.4,116.6,90.6,117.9,91.6,118.6z     M106.8,76.4c-0.2,0.2-0.5,0.3-0.7,0.5c0,0.1,0.1,0.2,0.1,0.3c0.4,0.5,0.8,1,1.2,1.5C107.5,77.9,107.4,77.1,106.8,76.4z     M109.8,63.4c-0.5,0.1-0.9,0.3-1.3,0.5c-0.2,0.1-0.3,0.3-0.4,0.5c-0.1,0.3-0.1,0.6-0.1,1C109,64.7,109.3,64.3,109.8,63.4z     M97.1,107.1c0.2-0.2,0.4-0.3,0.6-0.4c0-0.1,0-0.2,0-0.3c-0.3-0.3-0.5-0.6-0.8-0.9c-0.2-0.2-0.5-0.3-0.8-0.1    C96.4,106.1,96.8,106.5,97.1,107.1z M100.9,107c0.3-0.4,0.4-0.8,0.6-1.2c-0.9-0.3-0.9-0.3-1.5,0.6    C100.2,106.8,100.6,106.8,100.9,107z M106.8,65c-0.1,0-0.2-0.1-0.2-0.1c-0.6,0.3-1.1,0.7-1.7,1.4c0.7-0.1,1.2-0.2,1.8-0.3    C106.8,65.6,106.8,65.3,106.8,65z M83,80.4c-0.4,0.3-0.6,0.6-0.7,1.1c0.4,0.4,0.7,0.6,1.3,0.7C83.4,81.5,83.2,81,83,80.4z     M83.1,94.1c0.5-0.4,0.8-0.8,1.2-1.5c-0.7,0-1.2-0.1-1.7,0.5C82.8,93.5,82.9,93.8,83.1,94.1z M76.4,43.2c-0.1,0.3-0.3,0.6-0.4,0.9    c0.5,0.2,0.8,0.1,1.8-0.1C77.3,43.5,77.3,43.5,76.4,43.2z M120.4,73.8c-0.4,0.1-0.9,0.1-1.4,0.6c0.6,0.2,1.1,0.4,1.7,0.6    C120.7,74.3,120.7,74.3,120.4,73.8z M76.7,59.8c0,0.5,0.2,0.7,0.5,1c0.5-0.2,0.6-0.8,0.9-1.3C77.6,59.5,77.1,59.6,76.7,59.8z     M76,61.7c0.1,0,0.1,0,0.2-0.1c-0.2-0.5-0.5-1-0.9-1.4c-0.3,0.5-0.3,0.5-0.4,1.2C75.2,61.5,75.6,61.6,76,61.7z M56.8,62.9    c-0.5,0.3-0.5,0.4-1.1,1.8C56.8,64.3,56.8,64.3,56.8,62.9z M105.1,77.8c0.2,0.9,0.5,1.4,1.6,2.3C106.4,79.2,105.8,78.5,105.1,77.8    z M96.9,89.8c0.3-0.2,0.6-0.6,0.9-1c-0.2,0-0.2-0.1-0.3-0.1c-0.6,0.3-1.2,0.6-1.9,0.9c0,0.1,0,0.1,0,0.2    C96.1,89.8,96.4,89.8,96.9,89.8z M105,86.5c-0.6-0.7-0.6-0.7-1.6-0.1C104.1,86.8,104.2,86.8,105,86.5z M92.4,61.3    c0.1,0.4,0.4,0.5,0.7,0.7c0.1-0.8,0.1-0.8-0.1-1.3C92.8,60.9,92.6,61.1,92.4,61.3z M92.5,88.2c0.4,0.4,0.7,0.4,0.9,0    c0.1-0.2,0.1-0.4,0.2-0.5c0-0.1,0-0.2,0-0.4C93.1,87.5,92.8,87.9,92.5,88.2z M102.3,85.4c0.3-0.1,0.6-0.2,0.9-0.3    c0-0.1,0-0.3-0.1-0.3c-0.2-0.2-0.4-0.4-0.7-0.7C102.4,84.6,102.4,84.9,102.3,85.4z M113.1,79.2c-0.3,0.5-0.5,1-0.8,1.6    c0.6-0.4,0.9-0.9,1.2-2.1C113.3,78.9,113.2,79.1,113.1,79.2z M79.5,97.7c0.4-0.3,0.8-0.7,1.2-1c-0.1-0.3-0.3-0.4-0.4-0.3    c-0.4,0.4-0.7,0.8-1,1.3C79.3,97.8,79.4,97.7,79.5,97.7z M102.9,78.5c0.3,0.1,0.4-0.2,0.5-0.5c-0.2-0.4-0.3-0.8-0.7-1.1    C102.8,77.4,102.8,78,102.9,78.5z M111.6,60.7c-0.1-0.2-0.2-0.2-0.3-0.1c-0.3,0.3-0.7,0.6-0.9,1.1    C111.2,61.9,111.3,61.2,111.6,60.7z M85.6,72.6c-0.4-0.4-0.8-0.5-1.2-0.6c-0.1,0-0.2,0.2-0.3,0.3C84.6,72.6,85,72.6,85.6,72.6z     M91.2,89.9c0,0.1,0.1,0.2,0.1,0.3c0.5,0.1,0.9-0.2,1.4-0.3c-0.5-0.3-1-0.4-1.5-0.4C91.2,89.7,91.1,89.8,91.2,89.9z M96,81.4    c-0.9,0.4-0.9,0.4-0.8,1.4C95.5,82.3,95.8,81.9,96,81.4z M101.2,92.9c0.3,0.4,0.6,0.7,1,1.1c-0.1-0.6-0.2-1-0.5-1.4    C101.5,92.7,101.4,92.8,101.2,92.9z M116.2,47.7c-0.1,0.2-0.2,0.3-0.2,0.4c0,0.4,0,0.8,0,1.3C116.2,49,116.3,48.4,116.2,47.7z     M81.2,95.2c0.2,0.1,0.3,0.2,0.4,0.2c0.4,0.1,0.6-0.2,0.4-0.6c-0.1-0.1-0.2-0.2-0.3-0.4C81.6,94.7,81.4,94.9,81.2,95.2z     M93.5,91.4c0.7,0.2,1.2-0.3,1.8-0.3C94.7,91.1,94.2,91,93.5,91.4z M99.1,73.2c0,0.1,0.2,0.2,0.2,0.2c0.1,0,0.2-0.1,0.3-0.3    c0.1-0.4-0.2-0.6-0.6-0.9C99.1,72.7,99.1,72.9,99.1,73.2z M94.8,59.4c0.2-0.4,0.1-0.8-0.1-1.2C94.4,58.9,94.4,58.9,94.8,59.4z     M80.6,71c0.4,0.4,0.6,0.6,0.9,0.5c0,0,0-0.1,0.1-0.3C81.3,71.2,81.1,71.1,80.6,71z M109.2,86.3c-0.1,0.1-0.1,0.3-0.1,0.4    c0,0.1,0.2,0.1,0.3,0.1c0.1,0,0.2-0.1,0.3-0.2c0-0.2,0-0.3,0-0.6C109.5,86.1,109.3,86.1,109.2,86.3z M98.9,91.5    c0.8,0.6,0.8,0.6,1.4,0.4C99.8,91.7,99.4,91.6,98.9,91.5z M122.3,80.9c0.5-0.3,0.7-0.6,0.8-0.9C122.8,80.1,122.5,80.3,122.3,80.9z     M123,78c0-0.1-0.2-0.3-0.3-0.4c-0.2,0.3-0.2,0.5-0.1,0.8C122.8,78.4,123,78.2,123,78z M96.1,68c0,0-0.1,0-0.2,0.1    c0,0,0,0.2,0,0.2c0.2,0.1,0.4,0.3,0.7,0.4c0-0.1,0.1-0.1,0.1-0.2C96.5,68.3,96.3,68.1,96.1,68z M79.3,60.1    c0.3-0.1,0.5-0.4,0.7-0.9C79.6,59.4,79.4,59.8,79.3,60.1z M95.5,69.8c0-0.1,0-0.2,0-0.2c-0.2-0.1-0.3-0.2-0.5-0.2    c-0.1,0-0.2,0.2-0.4,0.3C95,69.8,95.2,69.8,95.5,69.8z M114.2,58.3c-0.4,0-0.3,0.3-0.5,0.6c0.3,0,0.5,0,0.8,0    C114.4,58.6,114.3,58.5,114.2,58.3z M99.3,74.8c-0.2,0.3-0.2,0.3-0.2,0.9C99.5,75.5,99.5,75.2,99.3,74.8z M92,91.7    c-0.2-0.3-0.4-0.2-0.5,0c-0.1,0.2-0.1,0.4,0.2,0.5C91.8,92,91.9,91.8,92,91.7z M100.4,70.4c0.1-0.1,0.1-0.2,0.1-0.3    c0,0-0.1-0.1-0.2-0.1c-0.1,0-0.2,0-0.3,0.1c-0.1,0.1-0.1,0.2-0.1,0.3c0,0,0.1,0.1,0.2,0.1C100.2,70.5,100.3,70.5,100.4,70.4z     M66.6,67.7c-0.4,0.2-0.4,0.5-0.4,0.9C66.5,68.4,66.5,68.1,66.6,67.7z M111.2,100.1c-0.1,0-0.2,0.1-0.3,0.2c0,0,0,0.2,0.1,0.2    c0.1,0,0.2,0,0.3,0c0.1,0,0.1-0.2,0.3-0.3C111.4,100.1,111.3,100,111.2,100.1z M88,97.9c-0.5-0.1-0.5-0.1-0.7,0.7    C87.5,98.4,87.7,98.2,88,97.9z M89.7,95.5c-0.5,0.3-0.5,0.3-0.9,0.8C89.3,96.2,89.5,95.9,89.7,95.5z M72.9,64.8    c-0.3,0-0.4,0.2-0.4,0.5c0.3,0.1,0.4,0,0.6-0.3C73,64.9,72.9,64.8,72.9,64.8z M84.3,74c0,0-0.1-0.1-0.2-0.2C84,73.9,84,74,83.9,74    c0,0,0.1,0.1,0.2,0.2C84.2,74.2,84.3,74.1,84.3,74z M128.1,74.4c-0.1,0.1-0.1,0.2-0.1,0.2c0,0,0.1,0.1,0.1,0.1    c0.1-0.1,0.2-0.2,0.3-0.3C128.2,74.4,128.2,74.4,128.1,74.4z M76.3,69.4c0,0.1-0.1,0.1-0.1,0.2c0.1,0.1,0.1,0.1,0.2,0.2    c0,0,0.1-0.1,0.1-0.2C76.4,69.5,76.3,69.5,76.3,69.4z M75.4,65.8c0-0.1-0.1-0.2-0.1-0.3c-0.1,0.1-0.2,0.1-0.2,0.2    c0,0.1,0.1,0.2,0.1,0.3C75.3,65.9,75.4,65.9,75.4,65.8z M82.8,57.7c-0.1-0.1-0.1-0.2-0.2-0.2c0,0-0.1,0.1-0.2,0.2    c0.1,0.1,0.2,0.1,0.2,0.2C82.8,57.8,82.8,57.8,82.8,57.7z M82.9,72c0-0.1,0.1-0.3,0.1-0.4c0,0-0.1,0-0.1,0c0,0.1-0.1,0.3-0.1,0.4    C82.8,72,82.8,72,82.9,72C82.9,72,82.9,72,82.9,72z M85,94.1C84.9,94.1,84.9,94.1,85,94.1c-0.1,0-0.2,0-0.2,0.1c0,0,0,0,0,0.1    C84.9,94.2,84.9,94.1,85,94.1z M83.9,95.2c0,0.1,0,0.2,0,0.3c0.1,0,0.1,0,0.2-0.1c0.1-0.1,0.1-0.2,0.1-0.3c0,0-0.1-0.1-0.1-0.1    C84.1,95.1,84,95.1,83.9,95.2z M100.1,86.8c0,0-0.1-0.1-0.1-0.1c0,0.1-0.1,0.2-0.1,0.3c0,0,0.1,0,0.1,0    C100,86.9,100.1,86.9,100.1,86.8z M85.6,97.9c0.1,0.1,0.1,0.2,0.2,0.2c0.1,0,0.1-0.1,0.2-0.2c-0.1-0.1-0.1-0.1-0.2-0.2    C85.7,97.8,85.7,97.8,85.6,97.9z M64.9,79.7c-0.1,0.1-0.2,0.1-0.2,0.2c0,0,0.1,0.1,0.1,0.2c0.1-0.1,0.2-0.1,0.2-0.2    C64.9,79.8,64.9,79.8,64.9,79.7z M104.7,67.8c-0.1,0-0.1,0-0.2,0.1c0,0,0,0.1,0,0.1C104.6,67.9,104.7,67.9,104.7,67.8    C104.7,67.9,104.7,67.8,104.7,67.8z M73.5,61c0,0-0.1,0-0.1,0.1c0,0,0,0.1,0,0.1c0,0,0.1,0,0.1-0.1C73.5,61,73.5,61,73.5,61z     M79.1,77.8c0,0-0.1,0-0.2,0.1C79,78,79,78,79.1,78.1c0,0,0-0.1,0.1-0.1C79.1,78,79.1,77.9,79.1,77.8z M58.2,63.2    c-0.1,0.1-0.1,0.1-0.2,0.2c0.1,0,0.1,0.1,0.2,0.1c0,0,0.1-0.1,0.1-0.1C58.3,63.3,58.3,63.3,58.2,63.2z M97.8,72.9    C97.8,72.8,97.8,72.8,97.8,72.9c-0.1,0-0.1,0.1-0.1,0.1c0,0,0.1,0,0.1,0C97.8,73,97.8,72.9,97.8,72.9z M107.8,85.3    C107.7,85.4,107.7,85.4,107.8,85.3c0,0.1,0,0.2,0,0.3c0,0,0-0.1,0.1-0.1C107.8,85.4,107.8,85.4,107.8,85.3z M101.1,72.5    L101.1,72.5L101.1,72.5L101.1,72.5z M61.6,86.9C61.5,87,61.5,87,61.6,86.9c-0.1,0.1,0,0.2,0,0.3c0,0,0,0,0.1-0.1    C61.6,87,61.6,87,61.6,86.9z M68,67.5c0.1,0,0.1-0.1,0.1-0.1c0,0-0.1-0.1-0.1-0.1C68.1,67.4,68,67.4,68,67.5    C68,67.5,68,67.5,68,67.5z"></path>		<path id="_x31__00000034812596019832556160000000158070091120742784_" class="st1" d="M133.9,86c-0.1,0.9-0.1,1.7-0.2,2.6    c-0.7,6.4-3.3,11.5-7.9,15.4c-2.8,2.3-6,4-9.3,5.3c-3.2,1.3-6.6,2.2-10,2.5c-2.3,0.2-4.7,0.3-7-0.1c-0.3-0.1-0.6,0-0.9,0.1    c-2.1,0.6-4.3,1.1-6.5,1.3c-0.3,0-0.6,0.1-0.9,0.2c-3.4,1.3-6.9,2.1-10.5,2.6c-3.1,0.4-6.2,0.5-9.3,0.2    c-5.1-0.5-10.1-1.9-14.7-4.5c-2.9-1.7-5.5-3.7-7.7-6.4c-2.3-2.8-3.9-6-4.8-9.6c-0.5-2.3-0.7-4.5-0.4-6.9c0-0.3,0.1-0.5,0.1-0.8    c0-0.1,0-0.2,0-0.4c-0.2-0.2-0.4-0.4-0.6-0.5c-4.5-3.5-6.4-8.3-7.8-14.3c-1.1-4.6-1.1-9.2-0.1-13.8c2-9.6,5.8-16.9,13.2-22.2    c2.4-1.7,4.9-2.8,7.7-3.2c0.3-0.3,0.5-0.7,0.8-1.1c4.2-5.7,9.3-10.2,15.2-13.3c2.5-1.3,5.1-2.3,7.8-2.8c4.3-0.8,8.4-0.2,12.5,1.6    c0.1,0.1,0.3,0.1,0.4,0.2c0.3,0.2,0.6,0.2,0.9,0.1c1.6-0.6,3.3-0.9,5.1-0.8c0.7,0,1.3-0.2,2-0.3c3.7-0.5,7.2,0.5,10.5,2.4    c3,1.8,5.5,4.2,7.5,7.2c1.1,1.6,2.2,3.1,3.5,4.5c1.9,2,3.4,4.4,4.6,6.9c0.4,0.8,0.8,1.5,1.5,2.1c1.5,1.5,2.7,3.2,3.7,5    c3.7,6.4,6.1,13.3,7.2,20.8c0.5,3.2,0.5,6.5,0.1,9.7c-0.3,2.1-0.9,4-1.8,5.8c-0.8,1.5-1.8,2.7-3,3.8    C134.3,85.6,134.1,85.8,133.9,86z M91.5,20.6c-0.2,0.2-0.3,0.4-0.5,0.6c-0.4,0-0.6,0.2-0.7,0.6c0.3-0.1,0.6-0.3,0.7-0.6    C91.4,21,91.5,21,91.5,20.6c0.1,0,0.1,0,0.1,0C91.6,20.6,91.6,20.6,91.5,20.6z M85.5,50c0.6,0.4,1.2,0.7,1.8,1.1    c0,0,0.1-0.1,0.3-0.3C86.8,50.5,86.2,50.1,85.5,50c-0.1-0.1-0.2-0.2-0.3-0.3c-0.7-0.6-1.4-1.1-2.1-1.7c0,0-0.1,0-0.3,0    c0.3,0.4,0.5,0.8,0.8,1.1c0.1,0.1,0.2,0.2,0.3,0.3C84.5,49.6,85,49.8,85.5,50z M74.4,83.5c-0.1,0-0.2-0.1-0.4-0.2    C74.2,83.6,74.3,83.5,74.4,83.5c0,0,0,0.2,0,0.2c0.8,0.5,1.7,0.8,2.7,1c-0.2-0.6-0.5-0.9-0.9-0.9C75.7,83.7,75.1,83.6,74.4,83.5z     M112.6,99.9c0.1,0,0.2,0,0.2-0.1c0.6-1.2,1-2.5,1.1-3.8c0-0.1,0-0.3-0.1-0.4c-0.3,0-0.3,0.2-0.4,0.4    C113.1,97.3,112.9,98.6,112.6,99.9c0,0.1,0,0.1,0,0.2C112.6,100,112.6,99.9,112.6,99.9z M127.8,59.5c0,0.1,0.1,0.1,0.1,0.2    C127.8,59.7,127.8,59.6,127.8,59.5c-0.2-1.4-1.1-4.1-1.6-5c-0.2,0.6-0.2,1.1,0.1,1.7c0.4,0.9,0.8,1.9,1.2,2.9    C127.5,59.2,127.5,59.5,127.8,59.5z M103.1,108.3c-1.4,0.3-2.8,0.6-4.2,0.8c-0.4,0.1-0.8,0.3-1.1,0.8c0.8,0.4,1,0.4,1.5,0.2    c1.2-0.5,2.4-1,3.6-1.5C103,108.6,103,108.4,103.1,108.3c0,0,0.1-0.1,0.2-0.1C103.2,108.3,103.2,108.3,103.1,108.3z M55.1,35.1    c-0.4,0.1-0.8,0.1-1,0.2c-1.7,0.5-3.3,1.3-4.8,2.3c-7.4,5.1-11.1,12.4-13,21.9c-1.1,5.3-0.7,10.6,1,15.7c1.5,4.3,2.9,7.7,6.2,10.4    c0.2,0.1,0.4,0.4,0.7,0.2c0.3-1.5,0.8-3,1.4-4.4c0.2-0.4,0.1-0.8,0.1-1.1c-0.6-3.2-0.4-6.3,0.2-9.4c0.1-0.7,0.1-1.3-0.2-2    c-1.1-2.5-1.6-5.1-1.2-7.8c0.3-2.3,0.8-4.4,1.7-6.5c1.1-2.5,2.4-4.8,4.1-6.9c0.3-0.4,0.6-0.9,0.6-1.4c0.1-0.5,0.2-0.9,0.3-1.4    c0.7-3.1,2-6,3.5-8.7C54.7,35.8,54.8,35.6,55.1,35.1z M80.8,111.3c-0.4-0.3-0.5-0.4-0.7-0.5c-0.9-0.6-1.8-1.2-2.6-1.9    c-2.4-1.9-4.3-4.4-6-7c-0.2-0.3-0.4-0.7-0.7-1c-3.5,0.2-6.8-0.6-10.1-2.1c-3.2-1.4-6.1-3.5-8.8-6.1c0,0.4,0,0.6,0.1,0.7    c0.3,1,0.5,1.9,0.9,2.9c1.1,2.8,2.6,5.3,4.5,7.5c3.4,4,7.4,6.5,12.3,7.5C73.3,112,76.9,112,80.8,111.3z M86.8,113.4    c0-0.1,0-0.1,0-0.2c-1.1-0.3-2.2-0.5-3.3-0.8c-0.4-0.1-0.8-0.2-1.2-0.1c-2,0.4-4.1,0.7-6.1,0.8c-1.6,0-3.1,0-4.7-0.2    c-2.6-0.3-5.2-1-7.6-2.3c-5.5-2.9-9.4-7.5-12-13.5c-0.7-1.6-1.1-3.3-1.3-5c0-0.4-0.1-0.8-0.2-1.1c-0.2-0.1-0.4-0.2-0.5-0.3    c-1.5-0.5-3-1.2-4.4-2.1c-0.1-0.1-0.3-0.1-0.5-0.1c-0.1,0.2-0.1,0.3-0.1,0.4c-0.2,2.1-0.1,4.1,0.3,6.2c0.8,3.7,2.4,6.8,4.7,9.5    c2.2,2.6,4.8,4.6,7.7,6.2c4.7,2.6,9.7,3.8,14.9,4.2c4.1,0.3,8.2-0.1,12.2-1C85.4,113.8,86.1,113.6,86.8,113.4z M133.9,84.3    c0.3-0.2,0.4-0.4,0.6-0.5c1.5-1.5,2.5-3.4,3.1-5.5c0.5-1.8,0.8-3.7,0.8-5.6c0.1-2.9-0.2-5.9-0.7-8.7c-0.9-4.6-2.3-9-4.2-13.2    c-1-2.2-2.1-4.4-3.5-6.4c-0.2-0.3-0.4-0.6-0.8-0.9c0.1,0.4,0.2,0.8,0.4,1.1c0.9,2.4,1.6,4.8,2.1,7.4c0.4,2,0.6,4,0.5,6    c-0.1,2.7-0.7,5.3-2.2,7.6c-0.1,0.2-0.3,0.4-0.3,0.6c-0.1,0.9-0.2,1.8-0.2,2.7c-0.1,0.6,0.1,1,0.4,1.5c1.9,3.3,3,6.8,3.6,10.7    C133.6,82,133.7,83,133.9,84.3z M132.5,87.1c-1.3,0.6-2.6,1.2-3.9,1.8c-0.1,0.3-0.2,0.6-0.3,1c-1.1,4.2-3.4,7.4-6.8,9.5    c-1.4,0.9-2.9,1.6-4.5,2c-1.5,0.4-2.9,0.7-4.5,1.1c0,0-0.1,0.1-0.1,0.1c-1,1.2-2.1,2.1-3.3,3.1c-1.1,1-2.2,2.1-3.4,2.8    c-1.1,0.7-2.3,1.2-3.4,1.9c-0.1,0.1-0.3,0.1-0.4,0.3c1.4,0.1,3.5,0.1,5.3-0.2c3.4-0.5,6.6-1.5,9.8-2.8c2.8-1.2,5.4-2.6,7.8-4.6    c4-3.2,6.4-7.5,7.3-12.9C132.4,89.1,132.6,88.2,132.5,87.1z M60.5,52.5c0.2,0,0.3,0,0.4,0c2-0.3,4-0.2,5.9,0.5    c0.7,0.2,1.3,0.1,1.9-0.3c0.7-0.5,1.5-1.1,2.1-1.8c1.5-1.9,3.3-3.5,5.4-4.8c0.2-0.1,0.4-0.2,0.5-0.4c-0.1-0.1-0.1-0.2-0.2-0.3    c-1.2-1.5-2.6-3-4-4.2c-0.3-0.2-0.6-0.4-0.9-0.5c-1.6-0.6-3.3-0.8-4.9-0.9c-0.7,0-1.5,0.1-2.1,0.2C62,43.9,60.2,49.6,60.5,52.5z     M87.7,21.9c-0.1-0.1-0.1-0.2-0.1-0.2c-2.8-1.5-5.7-2.1-8.7-1.4c-2.1,0.5-4.1,1.5-6,2.8c-3.9,2.7-7,6.3-9.6,10.5    c-0.1,0.1-0.1,0.3-0.2,0.5c0.6,0.2,1,0.4,1.5,0.6c0.5,0.2,0.9,0.5,1.4,0.5c0.1-0.1,0.1-0.1,0.2-0.1c0.2-0.2,0.4-0.5,0.7-0.8    c1.6-1.9,3.4-3.6,5.4-4.9c3.4-2.2,7-3.1,10.9-2.5c0.3,0,0.5,0,0.8,0c0.6-0.9,1.2-1.8,1.8-2.6C86.4,23.5,87.1,22.7,87.7,21.9z     M85,96.5c-0.3,0.1-0.6,0.1-0.8,0.2c-1.7,0.6-3.4,1.1-5.2,1.2c-0.7,0-1.3,0.3-2,0.7c-0.6,0.4-1.2,0.7-1.8,1.1    c-0.2,0.1-0.3,0.2-0.6,0.4c0.4,0.8,0.9,1.5,1.5,2.2c1.9,2.2,4.1,3.6,6.7,4.5c2,0.7,4.1,1.1,6.3,1.3c0.6,0.1,0.8-0.1,1.4-0.9    C87.6,104.3,85.8,100.7,85,96.5z M103.3,27c0.1,0.2,0.2,0.4,0.3,0.5c0.9,1.4,1.8,2.7,2.6,4.1c0.2,0.4,0.5,0.6,0.9,0.7    c2.8,0.8,5.3,2.3,7.6,4.2c0.7,0.6,1.4,0.9,2.3,0.5c0.4-0.2,0.8-0.3,1.3-0.4c-0.1-0.3-0.2-0.5-0.2-0.7c-0.9-2.1-2-4-3.3-5.8    c-0.8-1.1-1.6-2.1-2.4-3.2c-0.3-0.3-0.6-0.5-1-0.6c-1.1-0.2-2.2-0.3-3.3-0.3c-1.4,0-2.9,0.2-4.2,0.8    C103.7,26.8,103.5,26.9,103.3,27z M112.3,85.3c0.4,1.7,0.5,1.7,1.9,2.2c2.6,0.9,5.2,1.2,7.9,1.2c0.4,0,0.7-0.2,0.9-0.5    c0.7-0.9,1.2-1.9,1.7-2.9c1-2.3,1.6-4.7,1.8-7.2c0-0.1,0-0.2-0.1-0.4c-0.2,0.2-0.4,0.3-0.5,0.5c-1.2,1.2-2.6,2.1-4.1,2.7    c-1.7,0.7-3.4,1.2-5.2,1.5c-0.8,0.1-1.6,0.2-2.4,0.3c-0.3,0-0.6,0.2-0.8,0.5C113,83.9,112.6,84.5,112.3,85.3z M86.2,96    c0,0.2,0,0.4,0,0.6c0.7,3.7,2.3,6.9,4.9,9.5c0.1,0.1,0.3,0.2,0.5,0.3c1.4-1.4,2.3-3,2.9-5c0.6-2,0.6-4.1,0.5-6.3    c0-0.6-0.2-1.1-0.6-1.4c-1.4-0.2-2.8-0.3-4.1-0.5C88.9,94.2,87.6,95,86.2,96z M67.8,35.3C67.8,35.4,67.8,35.4,67.8,35.3    c0.3,0,0.5,0,0.7,0c2.4-0.8,4.9-0.8,7.3-0.1c1.4,0.4,2.8,1,4.1,1.8c0.2,0.1,0.4,0.4,0.8,0.3c0.3-1.2,0.8-2.3,1-3.4    c0.3-1.7,0.8-3.3,1.4-4.9c0.1-0.2,0.1-0.4,0.1-0.7c-2.5-0.3-4.9-0.2-7.3,0.8c-3.1,1.2-5.7,3.4-8,6C67.8,35.1,67.8,35.2,67.8,35.3z     M84.4,40.4c0.2-0.2,0.5-0.4,0.7-0.5c1.3-1,2.6-1.8,4.1-2.4c0.7-0.3,1.4-0.6,2.2-0.8c0.4-0.1,0.7-0.4,0.9-0.7    c0.4-0.7,0.8-1.3,1.3-2c0.1-0.2,0.2-0.4,0.3-0.6c-2.5-2-5.1-3.5-8-4.4c-0.2,0.3-0.4,0.5-0.5,0.7c-0.8,1.2-1.4,2.5-2,3.8    c-0.4,0.9-0.6,1.8-0.5,2.8c0,0.5,0.1,1.1,0.1,1.6C82.9,38.9,83.3,39.8,84.4,40.4z M115.3,73c0.1,2-0.1,3.8-0.4,5.6    c0,0.1,0,0.3,0.1,0.4c0.3,0,0.5,0,0.8,0c1.5-0.2,2.9-0.6,4.3-1.2c1.8-0.7,3.4-1.7,4.9-3.1c0.4-0.4,0.8-0.8,1.1-1.4    c-0.5-1.4-1-2.8-1.7-4c-0.3,0-0.5,0-0.8,0.1c-1.4,0.3-2.7,0.2-4.1,0.1c-0.2,0-0.5,0-0.7,0C117.9,70.9,116.7,72,115.3,73z     M91.5,19.1c0-0.1-0.1-0.1-0.1-0.2c-0.1,0-0.1-0.1-0.2-0.1c-3.2-1.3-6.4-1.7-9.8-1.4c-2.7,0.3-5.3,1.2-7.9,2.4    c-3.7,1.8-7,4.2-10.1,7.1c-1.8,1.7-3.5,3.6-5.1,5.6c-0.2,0.2-0.3,0.5-0.5,0.8c1.4,0.2,2.6,0.3,3.9,0.4c0.2-0.4,0.5-0.8,0.7-1.1    c1.5-2.4,3.2-4.6,5.2-6.6c2.4-2.5,5.1-4.6,8.1-5.9c1.5-0.7,3-1.2,4.7-1.3c2.2-0.2,4.4,0.2,6.5,1.1c0.7,0.3,1.3,0.6,2,1    C89.8,20.3,90.6,19.7,91.5,19.1z M55.9,80.1c0.3,1.5,0.8,2.6,1.8,3.5c2.4,2.2,5.1,3.7,8.2,4.4c0.5,0.1,0.9,0.3,1.5,0.1    c0.1-0.7,0.1-1.5,0.2-2.2c0.1-0.7,0.2-1.4,0.3-2.1c0.1-0.7,0.3-1.4,0.5-2.1c-0.8-0.9-0.8-0.9-1.7-0.9c-2.3,0-4.5-0.4-6.7-1.1    c-0.9-0.2-1.7-0.5-2.7-0.8C56.8,79.2,56.4,79.6,55.9,80.1z M113.7,100.6c0.1,0.1,0.2,0.1,0.2,0.1c2.6-0.4,5.1-1.3,7.4-2.8    c2.9-1.9,4.9-4.6,5.8-8.2c0-0.1,0-0.3,0.1-0.5c-0.2,0-0.3,0-0.5,0.1c-1,0.2-2.1,0.4-3.1,0.5c-0.4,0.1-0.7,0.2-1,0.5    c-1.1,1.2-2.3,2.2-3.7,2.9c-1,0.6-2.1,1-3.2,1.5c-0.2,0.1-0.4,0.2-0.7,0.3C115,97.1,114.6,98.9,113.7,100.6z M129.7,63.4    c0.2-0.3,0.3-0.5,0.4-0.7c0.4-1.1,0.7-2.3,0.8-3.5c0.3-2.2,0-4.4-0.3-6.5c-0.7-3.9-2-7.5-3.4-11c-0.4-1-1-1.8-1.9-2.3    c-0.1-0.1-0.2-0.2-0.4-0.2c-0.1-0.1-0.3-0.2-0.5,0c0.1,0.4,0.2,0.8,0.3,1.2c0.8,3.2,1.4,6.5,1.5,9.9c0,0.7,0.2,1.4,0.5,2    c1.4,3.2,2.5,6.6,2.9,10.2C129.5,62.7,129.6,63,129.7,63.4z M97.6,47.7c1.1-0.8,1.7-1.8,2.1-3.1c0.3-1.2,0.4-2.4,0.4-3.7    c0-0.5-0.2-0.8-0.4-1.2c-0.6-0.7-1.2-1.5-1.7-2.2c-0.3-0.4-0.7-0.6-1.2-0.5c-0.4,0.1-0.9,0.1-1.4,0.1c-0.4,0-0.7,0.2-1,0.5    c-0.9,1.2-1.6,2.6-2,4.1c-0.2,0.9-0.3,1.8-0.2,2.8c0,0.4,0.2,0.7,0.6,0.8c1.6,0.6,3,1.4,4.5,2.3C97.4,47.6,97.5,47.6,97.6,47.7z     M79,86.8c-0.7,0.4-1.5,0.8-2.3,1.2c-0.7,0.3-1.5,0.6-2.3,0.9c-0.8,0.3-1.6,0.4-2.5,0.7c-0.1,2.3,0.2,4.5,0.9,6.7    c1.4,0.4,2.8,0.5,4.2,0.5c0.4,0,0.6-0.2,0.8-0.5c1.9-2.1,2.7-4.7,2.2-7.7C80,87.7,79.7,87.1,79,86.8z M52.9,91.6    c0.1,0.5,0.4,0.6,0.7,0.9c3,2.7,6.4,4.8,10.1,6.1c1.8,0.6,3.6,1,5.5,1c0.3,0,0.6,0.1,0.9-0.2c-0.1-0.2-0.1-0.3-0.2-0.5    c-0.3-0.6-0.6-1.3-0.8-1.9c-0.2-0.6-0.5-0.9-1-1.1c-1.7-0.8-3.3-1.8-4.7-2.9c-0.5-0.4-0.9-0.5-1.5-0.5c-2.3,0.1-4.7,0-7-0.5    C54.2,91.8,53.5,91.7,52.9,91.6z M54.2,71.5c0.4-1.4,0.8-2.8,1.2-4.1c0.5-1.3,1.1-2.6,1.7-3.9c-0.8-0.7-1.7-1.4-2.5-2.1    c-0.8-0.8-1.5-1.7-2.2-2.5c-0.4,0.3-0.7,0.8-1,1.2c-0.4,0.5-0.6,1.1-0.7,1.8c-0.5,3.6-0.3,7.1,0.6,10.5c0.1,0.2,0.2,0.5,0.3,0.7    C52.6,72.5,53.4,72,54.2,71.5z M102.8,102c-0.5-0.2-0.9-0.4-1.3-0.6c-0.4-0.2-0.8-0.4-1.1-0.6c-0.4-0.2-0.8-0.5-1.2-0.8    c-0.4-0.3-0.7-0.6-1.1-0.9c-0.3-0.3-0.6-0.6-0.9-1c-0.3-0.3-0.5-0.8-1-1c-0.2,1.3-0.3,2.5-0.5,3.8c-0.2,1.2-0.6,2.4-1.3,3.4    c-0.6,1-1.3,2-2,3c0.3,0.2,0.6,0.5,0.9,0.7c0.2,0.1,0.5,0.2,0.7,0.2c1.2,0,2.3-0.1,3.5-0.2c0.4,0,0.7-0.1,1-0.4    c1.6-1.4,3.1-3.1,4.1-5.1C102.7,102.4,102.8,102.2,102.8,102z M111.3,43.2c-0.2,0.1-0.2,0.2-0.3,0.2c-1.6,2.8-2.4,5.9-2.6,9.1    c0,0.2,0.1,0.4,0.1,0.6c0.3,0,0.5,0.1,0.7,0.1c1.2,0,2.3,0.3,3.4,0.6c0.4,0.1,0.9,0.3,1.3,0.5c0.2,0.1,0.5,0.2,0.7,0    c0.7-0.4,1.5-0.8,2.1-1.6C115.4,49.2,113.6,46.1,111.3,43.2z M75.9,62.1c-0.5-0.9-1.1-1.7-1.8-2.5c-1.3-1.6-2.8-3-4.5-4    c-0.2-0.1-0.4-0.1-0.6-0.2c-0.7,1.2-1.2,2.3-1.7,3.5c-0.5,1.2-1,2.4-1.2,3.7c2.7,1.6,5.5,2,8.4,1.5C75,63.5,75.4,62.9,75.9,62.1z     M46.4,67.8c0.1-0.2,0.2-0.3,0.3-0.4c0.7-2.3,1.7-4.5,2.9-6.6c0.1-0.3,0.2-0.6,0.3-0.9c0.3-1.3,0.7-2.6,1-3.9    c0.1-0.3,0.1-0.6,0-0.9c-0.4-1.6-0.6-3.2-0.6-4.8c0-0.2,0-0.4-0.3-0.5c0,0.1-0.1,0.2-0.2,0.2c-1.4,2.1-2.6,4.3-3.4,6.7    c-0.8,2.4-1.3,4.8-1,7.3C45.5,65.3,45.8,66.5,46.4,67.8z M95.9,19.8c0.8,0.7,1.6,1.2,2.4,1.9c0.7,0.6,1.4,1.3,2.1,1.9    c0.7,0.7,1.3,1.5,2,2.2c0.4-0.1,0.8-0.3,1.2-0.4c0.4-0.1,0.9-0.3,1.3-0.4c0.4-0.1,0.8-0.2,1.2-0.2c0.4-0.1,0.9-0.1,1.4-0.2    c0.4,0,0.8,0,1.3,0c0.4,0,0.9,0.1,1.4-0.1c-0.2-0.2-0.3-0.4-0.4-0.5c-1.3-1.2-2.6-2.3-4.1-3.2c-1.5-0.9-3.1-1.5-4.8-2    C99.1,18.5,97.5,19,95.9,19.8z M101,84.1c-0.1,0.1-0.2,0.1-0.3,0.2c-1.1,1-2.3,1.6-3.6,2c-0.6,0.2-1.3,0.3-1.9,0.5    c-0.7,0.2-1,0.8-0.8,1.5c0.2,0.6,0.4,1.2,0.8,1.6c0.5,0.6,1.1,1.1,1.6,1.7c0.3,0.4,0.7,0.5,1.1,0.4c1.9-0.3,3.8-0.8,5.6-1.6    c0.2-0.1,0.3-0.2,0.4-0.3C103.5,88.1,102.3,85.5,101,84.1z M54.4,81.7c-1.9,2.4-2.8,5-2.8,8.1c0.3,0.1,0.5,0.2,0.8,0.3    c0.9,0.2,1.8,0.5,2.8,0.6c1.8,0.3,3.6,0.5,5.4,0.5c0.2,0,0.4,0.1,0.4-0.2c0,0,0-0.1,0-0.1c-0.2-0.2-0.3-0.4-0.5-0.6    c-1.8-1.9-3.4-4.1-4.5-6.6C55.5,82.9,55,82.4,54.4,81.7z M80.7,44c-0.1-1-0.3-1.8-0.3-2.6c-0.1-0.8,0-1.7,0-2.6    c-0.6-0.4-1.3-0.8-1.9-1.1c-2.9-1.5-6-2.1-9.2-1.2c-0.1,0-0.3,0.2-0.5,0.3c0.1,0.1,0.2,0.2,0.3,0.3c1.1,0.8,2.2,1.6,3.2,2.4    c0.3,0.2,0.6,0.4,0.9,0.5c2.1,0.9,3.9,2.2,5.7,3.8c0.2,0.1,0.3,0.3,0.5,0.5c0.2,0.2,0.5,0.3,0.8,0.2C80.3,44.2,80.5,44.1,80.7,44z     M46.9,81.3c0.3,1.4,0.7,2.7,1.2,3.9c0.6,1.2,1.2,2.4,2,3.4c0,0,0.1,0,0.2,0c0.2-1,0.3-2,0.6-2.9c0.3-0.9,0.6-1.8,1.1-2.7    c0.4-0.9,1-1.6,1.6-2.5c-0.5-0.8-0.9-1.6-1.3-2.4c-0.4-0.8-0.8-1.7-1.2-2.6C49.8,76.5,47.9,79,46.9,81.3z M122.5,61.5    c0.1-0.1,0.2-0.1,0.3-0.2c0.9-1.5,1.5-3.2,1.8-5.1c0.1-0.4,0-0.8-0.2-1.1c-0.9-1.8-2-3.6-3.2-5.2c-0.1-0.1-0.2-0.3-0.4-0.4    c-0.4,0.7-0.7,1.4-1.2,2c-0.4,0.6-0.9,1.2-1.3,1.8c0,0.1,0,0.3,0,0.4c0.4,1.4,0.8,2.8,1.2,4.2c0.1,0.3,0.2,0.5,0.4,0.8    c0.8,0.9,1.5,1.7,2.2,2.6C122.3,61.3,122.4,61.4,122.5,61.5z M107.9,67.8c-1.4,1.9-2.3,4.6-2.1,6.4c2.1,0.5,6.7-0.7,8.3-2.1    c0-1.5-0.4-3.4-0.8-4.2C111.4,67.9,109.7,67.9,107.9,67.8z M129.2,71.9c-0.3,1-0.6,1.9-1,2.7c-0.2,0.5-0.3,1-0.1,1.6    c0.9,3.4,1.2,7,0.9,10.5c0,0.2,0,0.3,0,0.5c1.4-0.4,2.7-1.1,3.6-1.9C132.9,81.7,131,74.8,129.2,71.9z M110.7,87.3    c-0.9,0.7-1.7,1.5-2.5,2.1c-0.9,0.7-1.9,1.2-2.8,1.8c0,0.5,0.1,0.9,0.1,1.4c0,0.4,0.1,0.9,0.1,1.3c0,0.4-0.1,0.9,0.2,1.4    c2.2,0,4.4-0.2,6.5-0.9c0.1-2.3-0.1-4.5-0.7-6.7C111.3,87.6,111,87.4,110.7,87.3z M94.7,32.2c0.3-0.3,0.6-0.7,0.8-1    c0.3-0.4,0.7-0.6,0.9-1.1c-1.4-2.5-4.5-5.8-6.1-6.5c-1.4,1.1-3.2,3.1-3.6,4.1c1.3,0.6,2.7,1.2,4,2C92,30.4,93.3,31.3,94.7,32.2z     M91.4,22.6c0.8,0.7,1.5,1.3,2.2,2c0.7,0.7,1.4,1.5,2,2.2c0.6,0.7,1.2,1.5,1.8,2.3c0.7-0.5,1.2-1,1.8-1.5c0.6-0.4,1.2-0.8,1.9-1.3    c-1-1.7-5.1-5.2-6.7-5.9C93.4,21.1,92.4,21.7,91.4,22.6z M56.8,34.8c-0.8,1.1-1.4,2.3-2,3.4c-1,2-1.9,4-2.4,6.2    c0,0.2-0.2,0.4,0.1,0.5c0.1-0.1,0.2-0.1,0.3-0.2c1.7-1.7,3.5-3.1,5.5-4.2c0.3-0.2,0.5-0.5,0.7-0.9c0.6-1.4,1.3-2.8,1.9-4.2    c0.1-0.2,0.1-0.3,0.2-0.5C59.6,34.7,58.6,34.7,56.8,34.8z M101.9,82.9c0.7,1.2,1.3,2.2,1.9,3.3c0.5,1.1,0.9,2.3,1.4,3.6    c1.5-0.7,2.8-1.7,4.1-2.9c0.1-0.1,0.2-0.3,0.4-0.5c-1.4-1.2-2.6-2.5-3.5-4.1c-0.1-0.3-0.3-0.4-0.6-0.4c-0.9-0.3-1.7-0.7-2.5-1.2    c-0.1-0.1-0.2-0.1-0.4-0.1C102.4,81.4,102.1,82.1,101.9,82.9z M79.2,82.6c0.9,0.1,1.9-0.1,2.9-0.3c0.2,0,0.4-0.2,0.5-0.3    c1-1.2,1.9-2.5,2.6-3.9c-0.9-0.7-1.9-0.9-2.9-1c-1.5-0.2-2.9,0.2-4.3,0.9c-0.6,0.3-1.2,0.6-1.6,1.2C77.4,80.3,78.3,81.4,79.2,82.6    z M69.8,54.2c0.5,0.3,0.9,0.6,1.3,0.9c1.9,1.4,3.5,3.1,5,5.1c0.2,0.3,0.4,0.5,0.6,0.8c0.5-0.5,1.1-1,1.5-1.6    c-0.7-1.7-0.9-3.5-0.9-5.4C77.2,54,77.1,54,77,53.9c-2.1-0.8-4.3-0.8-6.5-0.4C70.2,53.6,70,53.8,69.8,54.2z M65,67.8    c-0.2,1.5-0.2,2.9,0,4.2c1,0.8,1.9,1.5,2.8,2.2c0.2,0.1,0.4,0.2,0.6,0.3c0.9,0.3,1.7,0.5,2.6,0.8c0.1,0,0.3,0,0.4,0    c0.3-0.4,0.6-0.9,0.9-1.3c0.1-0.1,0.2-0.4,0.2-0.5c0-0.6-0.1-1.2-0.1-1.8C67.4,69.8,68.6,70.3,65,67.8z M55.2,76.4    c0.6,0.5,1.3,0.7,1.9,0.9c1-0.5,1.9-1.1,2.8-1.5c0.9-0.4,1.9-0.8,2.9-1.1c-0.2-0.7-0.5-1.3-0.7-2c-0.1-0.2-0.1-0.3-0.2-0.5    c-2.2-0.8-5-0.7-6.6,0.4C55.2,73.8,55,75.1,55.2,76.4z M104.7,100.9C104.8,101,104.8,101,104.7,100.9c1.9,0.5,3.7,0.4,5.5,0.3    c0.3,0,0.6-0.2,0.7-0.6c0.6-1.4,1-2.9,1.2-4.4c0-0.1-0.1-0.1-0.1-0.2c-0.1,0-0.3,0-0.4,0c-1.8,0.4-3.7,0.7-5.6,0.7    c-0.2,0-0.3,0.1-0.4,0.1C105.3,98.2,105,99.6,104.7,100.9z M87.4,109.2c-0.6-0.1-1-0.2-1.3-0.3c-1.3-0.2-2.6-0.6-3.9-1    c-3.6-1.3-6.5-3.5-8.6-7.1c-0.1-0.2-0.2-0.3-0.4-0.5c-0.3,0.1-0.6,0.2-0.9,0.3c0.1,0.2,0.2,0.4,0.3,0.6c1.4,2.2,3,4.3,4.9,6    c1.5,1.3,3.1,2.4,4.8,3.2c0.5,0.2,0.9,0.3,1.4,0.1c1-0.4,2.1-0.8,3.1-1.1C86.9,109.5,87.1,109.4,87.4,109.2z M57.7,54.7    c-1.7,0.7-3,1.8-4.3,3c0.8,1.7,2.7,3.7,4.5,4.6c0.7-1,1.3-2,2-2.9c-0.1-0.3-0.2-0.7-0.3-0.9C58.8,57.3,58.2,56.1,57.7,54.7z     M58.3,64.2c-1,1.8-1.8,3.6-2.3,5.5c-0.1,0.3-0.3,0.7-0.2,1.1c0.2,0,0.3,0,0.5-0.1c1.5-0.4,3.1-0.6,4.7-0.2c0.2,0,0.4,0,0.6,0    c-0.1-0.6-0.1-1.2-0.2-1.7c0-0.5,0-1.1,0-1.6c0-0.5,0-1.1,0.1-1.6C60.4,65.1,59.4,64.7,58.3,64.2z M96,93.8    c0.3,1.2,1.6,3.1,3.1,4.5c1.4,1.3,3.2,2.3,4.4,2.3c0.4-1.2,0.8-2.5,0.8-3.9c-0.6-0.1-1.1-0.2-1.6-0.3c-1.9-0.4-3.7-1.2-5.3-2.4    C96.9,93.6,96.5,93.5,96,93.8z M114.5,38.1c-1.8-1.9-5.5-4-7.1-4.2c0.3,0.9,0.6,1.7,0.8,2.5c0.2,0.9,0.4,1.7,0.5,2.7    c0.7,0.6,1.5,1.3,2.4,2C112.1,39.9,113.2,38.9,114.5,38.1z M122.2,36.6c0-0.2,0-0.3,0-0.4c-0.7-1.9-1.5-3.8-2.4-5.6    c-0.2-0.4-0.5-0.7-0.8-0.9c-1.2-1-2.6-1.8-4.1-2.4c-0.1,0-0.2,0-0.5,0c0.7,1.1,1.4,2,2,3c0.6,1,1.2,2,1.8,3c0.6,1,1,2.1,1.6,3.2    C120.5,36.5,121.3,36.6,122.2,36.6z M114,73.9c-0.7,0.2-1.4,0.7-2.1,0.9c-0.8,0.2-1.6,0.4-2.3,0.6c-0.7,0.2-1.5,0.1-2.3,0.4    c0.4,0.6,0.8,1.1,1.2,1.6c0.4,0.5,0.8,1,1.1,1.5c0.6,0.1,1.2,0.2,1.9,0.3c0.7,0.1,1.4,0.1,2,0C114,77.7,114.2,75.4,114,73.9z     M103.8,18.3c0,0.1,0,0.1,0,0.2c0.1,0.1,0.3,0.2,0.4,0.3c1.2,0.5,2.3,1.2,3.3,2c1.6,1.1,3,2.4,4.3,3.9c0.4,0.4,0.8,0.7,1.3,0.8    c1.1,0.4,2.1,0.8,3.2,1.2c0.2,0.1,0.4,0.3,0.8,0.1c-1.7-2.3-3.7-4.3-6.1-5.8C108.9,19.5,106.5,18.6,103.8,18.3z M84.8,95    c0-1.3,0.1-2.5,0.1-3.6c-0.1-0.1-0.1-0.2-0.2-0.2c-1-0.7-2-1.3-3.1-2c-0.1,0-0.2,0-0.3,0c0,0.9,0,1.7-0.1,2.6    c-0.1,0.9-0.3,1.7-0.7,2.4c-0.3,0.7-0.7,1.5-1.1,2.2C80.8,96.5,83.4,95.8,84.8,95z M86.9,86.2c0.5-0.7,0.9-1.3,1.4-1.9    c0.5-0.6,1.1-1.2,1.6-1.8c-0.4-0.5-0.7-1.1-1.2-1.4c-0.2,0.1-0.5,0.2-0.7,0.4c-1,0.6-2,1-3.1,1.4c-0.7,0.2-1.5,0.3-2.1,0.7    c-0.6,0.4-1.1,1-1.7,1.5c-0.1,0.1-0.2,0.3-0.4,0.5C82.9,86,84.9,86.1,86.9,86.2z M88.3,65.5c1.4-1.2,2.7-3.6,2.8-5.4    c-1.8-1.2-3.7-1.9-5.8-1.9c-0.1,0-0.2,0.1-0.3,0.2c0.3,0.9,0.9,1.5,1.3,2.3c0.4,0.8,0.8,1.5,1.1,2.3C87.8,63.7,88,64.6,88.3,65.5z     M104.1,102.3c-0.3,0.5-0.5,0.9-0.7,1.4c-0.3,0.5-0.5,0.9-0.8,1.4c-0.3,0.4-0.6,0.8-0.9,1.2c-0.3,0.4-0.7,0.7-0.9,1.3    c0.2,0,0.4,0,0.5,0c2.1-0.5,4.1-1.2,6-2.1c1-0.5,1.7-1.2,2.3-2.1c0.1-0.2,0.2-0.3,0.1-0.6C107.8,102.6,106,102.6,104.1,102.3z     M107.4,38.1c-0.3-1.8-0.9-3.3-1.6-4.7c-1.9-0.6-4.5-0.4-6,0.4c0.2,0.7,0.4,1.4,0.7,2c1.2,0.3,2.3,0.5,3.4,0.9    C105,37,106.1,37.6,107.4,38.1z M120.1,46.6c0.2-0.6,0.2-1.1,0.2-1.6c0.1-0.7-0.2-1.2-0.6-1.7c-1.1-1.3-2.3-2.7-3.5-3.8    c-0.2-0.2-0.4-0.3-0.6-0.5c-1,0.5-1.8,1.1-2.6,1.9c-0.2,0.2-0.5,0.4-0.6,0.9C115.3,42.5,117.8,44.2,120.1,46.6z M73.8,74.2    c0.1,1.1,0.4,2.1,0.8,3.1c0,0.1,0.1,0.1,0.1,0.2c0.2,0.4,0.6,0.5,0.9,0.3c0.7-0.4,1.3-0.8,1.9-1.4c1-1,1.5-2.3,1.7-3.8    c0-0.2,0-0.4,0-0.6c-0.1,0-0.2-0.1-0.3-0.1C78,71.9,77,72,76.1,72c-0.2,0-0.3,0.1-0.5,0.2C74.9,72.8,74.3,73.4,73.8,74.2z     M107.4,39.8c-1.3-1-2.7-1.6-4.2-2c-0.7-0.2-1.5-0.5-2.3-0.4c0.1,0.5,0.2,1,0.2,1.4c0.1,0.6,0.3,1.2,0.6,1.7    c0.4,0.6,0.8,1.3,1.2,1.9c0.1,0.2,0.3,0.3,0.4,0.5c1.2-0.8,2.5-1.2,3.9-1.5c0.1-0.2,0.1-0.5,0.2-0.7    C107.4,40.5,107.4,40.1,107.4,39.8z M120.3,37.9c0,0.1,0,0.2,0,0.3c0.5,1.6,0.9,3.2,1,4.9c0,0.4,0.2,0.7,0.4,0.9    c0.9,1.3,1.7,2.6,2.6,3.9c0.1,0.1,0.1,0.4,0.4,0.4c0-0.3,0-0.6,0-0.9c-0.3-2.9-0.9-5.7-1.7-8.4c-0.1-0.2-0.1-0.4-0.2-0.5    c-0.1-0.1-0.2-0.3-0.3-0.3C121.8,38,121.1,37.7,120.3,37.9z M51.8,53.2C51.9,53,52,53,52,52.9c1.4-3.2,3.2-6.2,5.3-8.9    c0.4-0.5,0.5-1,0.5-1.6c-0.1,0-0.1-0.1-0.1-0.1c-0.1,0-0.2,0.1-0.3,0.1c-2,1.3-3.8,2.9-5.4,4.7c-0.3,0.3-0.4,0.6-0.4,1    c-0.1,1.4-0.1,2.8,0,4.2C51.6,52.7,51.7,52.9,51.8,53.2z M57,46.9C56.8,47,56.7,47,56.7,47c-1.7,2.5-3.1,5.2-4.2,8.1    c-0.2,0.6,0,1,0.3,1.5c0.8-0.6,1.4-1.2,2.2-1.7c0.7-0.5,1.5-0.9,2.3-1.4C56.8,51.3,56.7,49.1,57,46.9z M119.8,48.1    c-1.7-2-3.7-3.6-6-4.6c-0.2-0.1-0.4-0.1-0.6-0.1c0.6,1,1.2,1.9,1.8,2.8c0.5,0.9,1,1.8,1.5,2.7c0.5,0.9,0.9,1.9,1.3,2.9    C118.8,50.8,119.5,49.6,119.8,48.1z M79.4,75.8c2.3-0.1,2.3-0.7,6.4,0.9c0.5-0.8,0.7-1.3,0.9-2.3c0,0,0-0.1-0.1-0.1    c-0.1,0-0.2-0.1-0.3-0.1c-1.7-0.4-3.2-1.2-4.5-2.5c-0.4-0.4-0.8-0.4-1.3-0.1C80.4,73,80.1,74.4,79.4,75.8z M107.2,53.2    c0.1-1,0.1-1.8,0.2-2.7c0.3-2.5,1-4.9,2.2-7.2c0.1-0.2,0.1-0.4,0.2-0.6c-0.7-0.2-1.2-0.2-1.7,0c-0.5,0.8-0.9,1.6-1.4,2.3    c-0.5,0.7-1.1,1.4-1.7,2.1c0.8,1.9,1.1,4,1.5,6c0,0,0,0.1,0.1,0.1C106.8,53.3,107,53.3,107.2,53.2z M58.5,52.9    c0.4,0,0.6-0.2,0.7-0.5c0-0.2,0-0.4,0.1-0.6c0.2-2.5,0.7-4.8,1.6-7.1c0.5-1.3,1.1-2.5,1.7-3.8c0.1-0.2,0.2-0.3,0-0.5    c-0.1,0-0.1,0-0.2,0.1c-1.2,1-2.3,2.2-3.3,3.4c-0.3,0.3-0.4,0.7-0.5,1.1c-0.4,1.9-0.6,3.8-0.4,5.7C58.1,51.5,58.2,52.2,58.5,52.9z     M100.6,70.2c0.3,0.6,0.5,1.2,0.7,1.7c1.1,0.5,2.1,1,3.1,1.5c0.3-1.1,0.5-2.1,0.8-3.1c0.3-1,0.8-1.9,1.2-2.9    c-0.6-0.2-1.1-0.4-1.6-0.5c-0.7,0.6-1.3,1.3-2,1.8C102.2,69.2,101.4,69.7,100.6,70.2z M127.2,66.4c0.7-0.3,0.9-0.8,0.7-1.4    c0-0.1-0.1-0.3-0.1-0.5c-0.4-2.2-1.1-4.2-2-6.3c-0.1-0.2-0.2-0.3-0.3-0.5c-0.3,0.9-0.6,1.8-0.9,2.5c-0.4,0.8-0.8,1.6-1.2,2.4    c0.3,0.6,0.8,0.8,1.3,1.2c0.4,0.4,0.9,0.8,1.3,1.2C126.3,65.6,126.7,66,127.2,66.4z M104.7,31.7c-0.2-0.9-1.7-3.2-2.7-4.2    c-1.4,0.6-3.2,1.9-3.9,2.9c0.3,0.6,0.7,1.3,1,1.9c1-0.2,1.9-0.4,2.8-0.5C102.8,31.8,103.8,31.8,104.7,31.7z M92.1,73.9    c-0.7,0.1-1.4,0.3-2,0.4c-0.7,0.1-1.4,0.1-2.1,0.2c-0.4,1-0.7,2-1.1,3c0.7,0.6,1.4,1.2,2.1,1.9c0.8-0.5,1.5-1.1,2.2-1.8    c0.1-0.2,0.2-0.4,0.4-0.6c0.3-0.6,0.7-1.3,1-1.9c0-0.1,0.1-0.2,0.1-0.3C92.5,74.4,92.3,74.2,92.1,73.9z M92.6,88.4    c-0.2-0.3-0.4-0.7-0.5-0.9c-1.6,0.1-3.1,0.1-4.5,0.2c-0.7,1.2-1,1.9-1.1,3c1,0.5,2,0.8,3,1.1c0.2,0,0.4,0,0.6-0.2    C91.1,90.6,91.9,89.6,92.6,88.4z M107.9,58.9c-0.6,0.3-1.1,0.4-1.5,0.9c0,0.2,0,0.3,0,0.5c0.2,1.8,0.1,3.5-0.7,5.1    c-0.1,0.1,0,0.3-0.1,0.4c0.6,0.3,1.1,0.5,1.7,0.4c0.9-0.9,1.7-1.7,2.6-2.6C109.1,62.2,108.5,60.6,107.9,58.9z M115.2,93.6    c2-0.7,3.9-1.7,5.6-3.2c0.1-0.1,0.1-0.2,0.2-0.4c-0.3,0-0.5-0.1-0.7-0.1c-2-0.1-4-0.4-5.9-1c-0.2,0-0.3,0-0.5,0    C114.4,90.5,114.8,92,115.2,93.6z M112.4,62.2c1-0.3,1.9-0.6,2.8-0.8c0.9-0.2,1.9-0.2,2.8-0.3c0-0.1,0-0.1,0-0.1    c-0.1-0.1-0.2-0.2-0.3-0.3c-1-0.7-2-1.3-3.1-1.7c-1.3-0.5-2.7-0.8-4.1-0.7c-0.2,0-0.3,0.1-0.5,0.2c0.4,0.7,0.8,1.2,1.2,1.8    C111.6,60.9,112,61.5,112.4,62.2z M118.8,64.9c0.2-1.2,0.2-1.3,0-2.2c-1.6-0.5-4.2-0.2-5.8,0.8c0.3,0.7,0.6,1.5,0.9,2.2    c0.2,0.4,0.5,0.6,1,0.5C116.2,66,117.6,65.6,118.8,64.9z M73.7,70.5c0.4,0,0.6,0.1,0.8,0.1c0.6,0.1,1.1-0.1,1.7-0.5    c0.6-0.5,1.3-0.8,1.9-1.2c0.2-0.1,0.4-0.3,0.6-0.4c-0.3-1.5-0.7-2.4-1.2-3.1c-0.8,0.2-1.5,0.5-2.3,0.7c-0.3,0.1-0.5,0.3-0.6,0.6    c-0.3,0.9-0.6,1.8-0.8,2.8C73.8,69.8,73.8,70.1,73.7,70.5z M84.3,59.9c-0.3,0.3-0.6,0.7-0.9,1c-0.3,0.3-0.6,0.6-0.9,0.9    c-0.3,0.3-0.7,0.5-0.9,0.9c1.1,1.4,3.5,3,5.1,3.5c0.1,0,0.2-0.1,0.3-0.1C86.7,63.8,85.5,61,84.3,59.9z M90.9,38.2    c-1.6,0.2-4.5,1.9-5.6,3.2c0.6,0.7,1.2,1.5,1.8,2.2c0.1,0.1,0.2,0.2,0.4,0.2c0.4,0,0.9,0.3,1.3,0.2c0.2-0.7,0.4-1.3,0.6-2    c0.2-0.6,0.4-1.2,0.7-1.8C90.4,39.5,90.7,38.9,90.9,38.2z M101,81.9c0.3-0.7,0.5-1.3,0.5-2c0-0.2,0-0.5-0.1-0.7    c-0.2-0.4-0.5-0.7-0.8-1.1c-0.3-0.4-0.5-0.7-0.7-1.1c-1.5-0.1-2.7,0.4-3.8,1.3c-0.5,0.4-0.5,0.5-0.2,1.3    C97.3,80,97.5,79.5,101,81.9z M72.5,70.1c0.1-0.4,0.2-0.8,0.3-1.2c0.1-0.4,0.2-0.7,0.3-1.1c0.1-0.4,0.3-0.7,0.2-1.1    c-2.4,0.3-4.8,0.3-7.3,0C67.1,68.2,70.6,70,72.5,70.1z M97.5,56.8c-1,1-1.7,2.1-2.3,3.4c-0.1,0.2-0.1,0.4,0,0.6    c0.4,1,0.7,2.1,1.5,2.9c0.1,0.1,0.2,0.3,0.5,0.2c0.3-1.6,0.9-3.1,1.6-4.5C98.5,58.4,98.1,57.6,97.5,56.8z M94.5,110.3    c-0.6-0.5-1.1-0.8-1.8-0.8c-0.8,0-1.6,0-2.4-0.1c-0.4,0-0.7,0.1-1.1,0.3c-1.1,0.5-2.2,1-3.3,1.6c-0.1,0.1-0.2,0.2-0.5,0.3    c1.9,0.5,3.8,0.4,5.6,0.3c0.1,0,0.3,0,0.4-0.1C92.5,111.4,93.5,111,94.5,110.3z M105.3,53.6c-0.1-1.9-0.7-4.4-1.3-5.5    c-0.5,0.3-1.1,0.7-1.6,1c-0.5,0.3-1.1,0.5-1.6,1c1.1,1.1,2.1,2.1,3,3.4c0.2,0.3,0.5,0.4,0.8,0.5C104.8,54,105,53.9,105.3,53.6z     M96.6,55.8c0-0.1-0.1-0.2-0.1-0.2c-1.1-1.2-2.4-2.1-4-2.5c-0.1,0-0.2,0-0.4,0.1c0.1,0.5,0.3,1,0.3,1.4c0.1,1.3,0.5,2.3,1.2,3.3    c0.3,0.3,0.4,0.8,0.7,1c0.4-0.6,0.7-1.1,1.1-1.6C95.8,56.7,96.2,56.3,96.6,55.8z M92.4,61.1c-0.1,0.1-0.1,0.1-0.2,0.2    c-0.6,2-1.6,3.7-3,5.2c-0.1,0.1-0.1,0.2-0.2,0.4c0.7,0.2,1.4,0.4,2.1,0.4c0.7,0,1.4,0.2,2.1-0.1c-0.4-1.8-0.3-3.6,0-5.3    C93,61.5,92.8,61.2,92.4,61.1z M105,59c-0.1-0.4-0.2-0.7-0.3-1c-0.1-0.3-0.3-0.4-0.5-0.5c-0.6-0.2-1.3-0.3-2-0.5    c-0.7,0.6-1.4,1.3-1.8,2.1c0.4,1.6,0.8,2.5,1.4,3.1C102.7,61,103.8,60,105,59z M50,74.7c-0.6-0.5-1-1-1.5-1.5    c-0.5-0.5-0.9-1.2-1.5-1.6c-0.6,1.8-0.7,6-0.2,7.4c0.4-0.5,0.7-1,1-1.5c0.3-0.5,0.7-0.9,1-1.4C49.1,75.7,49.5,75.2,50,74.7z     M59,86.3c1,1.8,2.2,3.1,3.6,4.4c0.3,0.2,0.6,0.3,0.9,0.2c1.2-0.2,2.3-0.4,3.5-0.8c0.1-0.1,0.3-0.2,0.4-0.2    c-0.1-0.5-0.3-0.5-0.6-0.5c-2.6-0.4-5.1-1.3-7.4-2.8C59.3,86.5,59.2,86.4,59,86.3z M95.3,85.4c2-0.2,4-1.2,4.8-2.4    c-1.1-1.3-2.8-2.1-4.2-1.8C95.7,82.6,95.5,84,95.3,85.4z M127.5,87.7c0.5-2.5,0.4-6.6-0.1-7.9c-0.2,1-0.4,2-0.7,2.9    c-0.3,1-0.6,2-1,2.9c-0.4,0.9-0.9,1.7-1.4,2.7C125.5,88.3,126.5,88.1,127.5,87.7z M63.5,76c-0.2,0-0.3,0-0.4,0    c-1.4,0.3-2.8,0.9-4.1,1.7C59,77.8,59,77.9,59,78c2.2,0.9,5.7,1.5,6.9,1.3c-0.3-0.4-0.6-0.7-0.8-1.1c-0.2-0.3-0.5-0.7-0.7-1    C64.1,76.8,63.8,76.5,63.5,76z M68.6,88.2c0.4,0.1,0.6,0.1,0.8,0.1c1,0,1.4-0.4,1.7-1.5c0.2-0.8,0.4-1.5,0.5-2.3    c0.1-0.2,0.1-0.4,0.2-0.7c-0.8-0.5-1.5-1.1-2.3-1.4C68.9,84.4,68.6,86.2,68.6,88.2z M60.9,58c0.1,0,0.2,0,0.2,0    c0.6-0.6,1.1-1.2,1.7-1.7c0.9-0.7,1.8-1.4,2.7-2.2c0,0,0-0.1,0-0.1c0,0,0-0.1,0-0.1c-1.4-0.5-4-0.5-5.1,0    C60.3,55.2,60.4,56.6,60.9,58z M99.3,75.7C99,74,99,74,97.9,73.3c0,0-0.1,0-0.1-0.1c-0.2,0-0.5-0.1-0.7-0.1    c-1.1,0.3-2.2,0.8-2.6,2.3c0.2,0.6,0.5,1.2,0.8,1.9C96.5,76.4,97.8,75.9,99.3,75.7z M49.3,64.1c-0.1,0-0.2,0-0.2,0.1    c-0.8,1.5-1.3,3.2-1.8,4.9c-0.1,0.3-0.1,0.5,0.1,0.8c0.8,1.2,1.6,2.2,2.8,3.2c-0.1-1.1-0.5-2-0.6-3c-0.1-1-0.3-2-0.3-3    C49.3,66.2,49.3,65.2,49.3,64.1z M98.9,93.4c1,0.7,1.9,1,2.8,1.3c0.9,0.3,1.7,0.6,2.6,0.5c0.2-1.3,0.1-2.6-0.3-3.4    c-0.8,0.3-1.7,0.6-2.5,0.8C100.7,92.9,99.9,93,98.9,93.4z M126.4,75.3c-0.1-0.1-0.1-0.1-0.2-0.2c-0.2,0.2-0.4,0.3-0.5,0.5    c-0.9,0.9-1.9,1.6-2.9,2.3c-1.7,1-3.5,1.7-5.4,2.1c-0.9,0.2-1.7,0.3-2.6,0.5c-0.4,0.1-0.5,0.2-0.4,0.8c1.3-0.1,2.6-0.3,3.9-0.7    c2-0.5,3.9-1.3,5.7-2.6c0.8-0.6,1.6-1.4,2.2-2.3C126.3,75.6,126.3,75.4,126.4,75.3z M70.8,89.5c-0.8,0.5-1.4,0.9-2,1.3    c0,1.4,0.5,3.2,1,4.3c0.4,0.1,0.8,0.3,1.2,0.4c0.2,0.1,0.3,0.1,0.5-0.2C71,93.6,70.8,91.7,70.8,89.5z M62.2,35.4    c-0.7,1.2-1.3,2.4-1.8,3.7c0,0.1,0,0.3,0,0.5c0.6-0.2,1.3-0.3,1.8-0.6c0.9-0.6,1.8-1.3,2.7-2c0.2-0.1,0.3-0.3,0.2-0.6    C64.1,35.8,63.2,35.5,62.2,35.4z M88.5,53.7c-0.3,1.3-0.4,2.6-0.2,3.6c1,0.4,2,0.9,3,1.3c0,0,0.1-0.1,0.2-0.1    c0.2-1,0.1-1.9-0.7-2.6c-0.4-0.4-0.7-0.8-1.1-1.2C89.4,54.4,89,54,88.5,53.7z M88.7,69.1c0.4,0.3,0.8,0.5,1.2,0.8    c0.5,0.4,1.1,0.6,1.7,0.6c0.7,0,1.4,0,2.1-0.1c0.3,0,0.6-0.1,1-0.2c-0.3-0.6-0.6-1.1-0.8-1.5c-1.1-0.1-2.2-0.2-3.2-0.3    c-0.6-0.1-1.1-0.2-1.7-0.2c-0.1,0-0.1,0.1-0.2,0.1C88.7,68.6,88.7,68.8,88.7,69.1z M82.6,45.1c0.4,1,1,1.8,2.1,2.6    c1,0.8,2.2,1.4,3.1,1.5c0-0.3,0.1-0.6,0.1-0.9c-1.2-0.9-2.2-1.9-3.2-3.1c-0.1-0.2-0.4-0.3-0.5-0.3C83.7,44.9,83.2,45,82.6,45.1z     M120,65.8c-0.2,0.8-0.4,1.5-0.5,2.2c1.4,0.4,2.7,0.2,4,0c0.1-0.5-0.2-0.8-0.4-1.1c-0.5-0.8-0.9-1.6-1.6-2.2    C121,65.1,120.6,65.4,120,65.8z M72,52c0.6,0,1.1,0,1.5,0c0.4,0,0.8,0,1.3,0.1c0.4,0.1,0.9,0.1,1.3,0.2c0.4,0.1,0.9,0.2,1.4,0.3    c0.2-0.9,0.4-1.7,0.6-2.6c-1.3,0-2.6,0.3-3.8,0.8C73.6,51.1,72.8,51.3,72,52z M72.2,87.9c0.5,0.2,0.9-0.1,1.3-0.2    c1.2-0.3,2.5-0.8,3.6-1.5c-0.5-0.3-3.4-1.4-4-1.5c-0.1,0.5-0.2,1.1-0.3,1.6C72.6,86.8,72.4,87.3,72.2,87.9z M121.5,45.8    c-0.1,0.6-0.2,1.1-0.2,1.5c-0.1,0.4,0,0.7,0.2,1c1.1,1.4,2.1,3,3,4.6c0.1,0.2,0.2,0.4,0.4,0.3c0.2-1,0-1.8-0.5-2.6    c-0.8-1.3-1.6-2.7-2.5-4.1C121.8,46.3,121.7,46.1,121.5,45.8z M78.6,54.8c0,1.4,0.1,2.7,0.7,4c0.5-0.3,1-0.5,1.5-0.8    c0.5-0.3,1.8-1.6,2.2-2C82.1,54.9,79.7,55,78.6,54.8z M84.5,70c-0.4,0.2-0.9,0.4-1.3,0.6c-0.1,0.1-0.3,0.2-0.4,0.3    c1.2,1.3,3,2.1,4.3,1.9c0.1-0.5,0.3-1.1,0.2-1.6C86.4,70.8,85.5,70.4,84.5,70z M81.3,50.3c0.9,1.8,1.6,3.5,2,5.4    c-0.9-1.5-0.4-1.1,1.2-1.2c-0.2-1.5-0.8-2.7-1.5-3.9C82.5,50.4,82,50.1,81.3,50.3z M48.6,88.5c-0.2-0.4-0.5-0.8-0.7-1.3    c-0.2-0.4-0.4-0.8-0.6-1.2c-0.2-0.4-0.4-0.9-0.6-1.4c-0.2-0.4-0.2-0.9-0.6-1.3c-0.6,1.2-0.9,2.5-0.9,3.6    C46.2,87.6,47.3,88.2,48.6,88.5z M81.6,54.2c-0.2-1.5-1.2-3.4-2.1-4.1c-0.5,0.9-0.8,2.1-0.7,3.1C79.8,53.8,80.4,53.8,81.6,54.2z     M69.6,78.3c-0.4-0.8-1.1-1.5-1.7-2.1c-0.6-0.6-1.2-0.6-2-0.4c0.1,0.3,0.1,0.4,0.2,0.6c0.5,1,1.2,1.8,1.9,2.6    C69,79.7,69.2,79.7,69.6,78.3z M81.5,87.1c0.7,0.9,2.5,2.2,3.8,2.7c0.3-0.7,0.6-1.4,0.8-2.3C84.5,87.4,83,87.2,81.5,87.1z     M112.3,56.9c0.6,0.2,1,0.3,1.4,0.4c0.4,0.1,0.9,0.3,1.3,0.4c0.4,0.1,0.8,0.3,1.2,0.5c0.4,0.2,0.8,0.5,1.2,0.7    c0.4,0.2,0.7,0.6,1.2,0.7c0.1-0.4-0.1-0.7-0.3-0.9c-1.1-1-2.3-1.8-3.5-2.5c-0.2-0.1-0.5-0.2-0.7-0.1    C113.5,56.3,113,56.6,112.3,56.9z M77.5,46.8c-1,0.4-2.1,1.1-3.2,2.1c-0.2,0.2-0.3,0.4-0.7,0.7c0.7-0.2,1.2-0.4,1.7-0.5    c0.5-0.1,1.1-0.2,1.6-0.3c0.5-0.1,1,0,1.6-0.3C78.3,47.8,78,47.3,77.5,46.8z M93.7,76.7c-1.4,1-1.8,2.5-1.7,4.2    c0.6-0.2,1.1-0.3,1.4-0.8c0.3-0.6,0.6-1.1,0.9-1.7c-0.1-0.4-0.2-0.8-0.3-1.1C93.8,77.1,93.8,77,93.7,76.7z M62.7,66    c0,0.5-0.1,1-0.1,1.5c0,0.7,0,1.5,0.1,2.2c0,0.4,0.1,0.8,0.2,1.1c0.1,0.4,0.2,0.5,0.8,0.4c0.1-1.3,0.2-2.6,0.3-3.9    c0.1-0.8,0-1-0.8-1.2C63,66,62.9,66,62.7,66z M92.4,48.8c-0.4-1-0.7-1.8-1.1-2.7c-0.5-0.1-1-0.4-1.5-0.4c-0.3,0.4-0.4,0.9-0.2,1.3    c0.2,0.5,0.4,1,0.8,1.2C90.9,48.5,91.6,48.8,92.4,48.8z M65,61.9c0.1-0.4,0.3-0.7,0.4-1c0.1-0.4,0.3-0.7,0.4-1.1    c0.1-0.3,0.2-0.6,0.4-1c0.1-0.3,0.3-0.6,0.4-1c0.2-0.3,0.3-0.7,0.5-1c0.1-0.3,0.3-0.5,0.3-1.1c-1.4,1.7-2.6,3.4-3.3,5.3    C64.2,61.5,64.5,61.7,65,61.9z M81.7,64.6c0.2,0.9,0.4,1.4,0.7,1.8c0.6,0.8,1.2,1.6,2.2,1.4c0.2,0,0.4,0.1,0.6,0.1    c0.3,0,0.6-0.1,0.8-0.5c-0.5-0.3-1-0.5-1.5-0.8c-0.5-0.3-0.9-0.6-1.4-0.9C82.8,65.4,82.3,65,81.7,64.6z M64.7,92.2    c0.7,0.7,1.5,1.2,2.8,1.9c0.2,0.1,0.4,0.1,0.7,0.2c-0.2-1-0.3-1.9-0.6-2.9C66.6,91.7,65.6,91.9,64.7,92.2z M114.6,67.9    c0.2,1.2,0.4,2.2,0.5,3.3c0,0,0,0.1,0.1,0.1c0,0,0.1,0,0.1,0c0.4-0.2,0.8-0.6,1.1-1c0.4-0.4,0.8-0.7,0.9-1.4    C116.5,68.7,115.7,68.3,114.6,67.9z M112.6,55.3c-1.2-0.5-2.3-0.7-3.4-0.8c-0.2,0-0.5,0.1-0.7,0.1c0,1,0,1,0.3,1.8    C110.1,56.3,111.3,55.9,112.6,55.3z M78.8,64.9C79.2,66,79.6,67,80,68c0,0,0.1,0,0.2,0.1c0.1-0.3,0.2-0.7,0.2-1    c0-0.4,0.4-0.5,0.6-0.8c-0.1-0.4-0.3-0.8-0.4-1.2c-0.1-0.4-0.2-0.8-0.3-1.3C79.8,64.3,79.3,64.6,78.8,64.9z M65.5,55.9    c-1.2,0.5-3,2.2-3.7,3.3c0.3,0.4,0.6,0.8,1.1,1c0.3-0.5,0.5-1,0.8-1.5c0.3-0.5,0.5-0.9,0.8-1.4C64.8,56.9,65.2,56.5,65.5,55.9z     M102.7,65.5c-0.5,0.3-1,0.6-1.4,0.9c-0.1,0.1-0.3,0.2-0.3,0.3c-0.2,0.6-0.5,1.2-0.5,1.9c1.4-0.5,2.5-1.4,3.1-2.4    C103.3,66,103,65.8,102.7,65.5z M90.7,83.7c-0.8,0.5-1.4,1.3-2,2.1c-0.1,0.1-0.1,0.3-0.1,0.4c1.1,0.1,2.1,0,3-0.2    C91.3,85.2,91.3,84.3,90.7,83.7z M98.9,50.7c-1,0.3-1.9,0.5-2.8,0.7c0.6,0.9,1.6,1.7,2.5,2C98.8,52.6,98.7,51.7,98.9,50.7z     M60.4,60.9c-0.6,0.7-1.1,1.3-1.3,2.1c1.1,0.7,1.9,1,2.6,1.1c0-0.1,0.1-0.2,0.1-0.2C61.3,62.9,60.9,62,60.4,60.9z M117,38.4    c0.6,0.8,2.3,2.5,2.9,3c-0.2-1.2-0.5-2.3-1-3.4C118.3,37.9,117.7,38.1,117,38.4z M87.9,80c-0.6-0.6-1-1.1-1.7-1.3    c-0.4,1-1.1,1.8-1.6,2.9C85.8,81.2,86.8,80.8,87.9,80z M95.5,67.1c0-1.3-0.2-2.4-0.5-3.4c-0.1-0.3-0.2-0.6-0.6-0.6    c-0.4,1.6-0.2,3.7,0.3,4.2C94.9,67.2,95.2,67.2,95.5,67.1z M86.2,91.9c-0.3,1-0.4,1.6-0.1,2.5c0.9-0.4,1.7-0.8,2.4-1.6    C87.7,92.5,87,92.2,86.2,91.9z M100.8,48.3c1.1-0.3,2.1-0.9,2.7-1.7c-0.2-0.5-0.4-0.9-0.7-1.5C101.9,45.9,101.4,47,100.8,48.3z     M109,66.4c1.2,0.3,2.7,0.3,3.4,0c-0.5-0.6-1.1-1.1-1.6-1.7C110.2,65.2,109.6,65.7,109,66.4z M92.7,37.6c-0.1,0.2-0.3,0.3-0.4,0.5    c-0.4,0.8-0.8,1.7-1.1,2.5c-0.4,1.1-0.8,2.3-1.1,3.4c0,0.1,0,0.2,0,0.3c0.4,0.2,0.4,0.2,0.9,0.1C91.3,42.6,90.7,42.2,92.7,37.6z     M103.8,44.2c0.2,0.4,0.3,0.7,0.5,1.1c0.1,0.1,0.2,0.2,0.2,0.4c0.9-0.7,1.6-1.6,1.9-2.6C105.5,43.2,104.9,43.5,103.8,44.2z     M93,46.9c0.2,0.8,0.5,1.6,1.1,2c1.4-0.1,1.4-0.1,2-0.6C95.1,47.7,94.1,47.3,93,46.9z M85.7,55.2c0.1,0.5-0.1,1.1,0,1.6    c0.4,0.2,0.8,0.2,1.2,0.1c0.3-1.1,0.2-1.7,0.1-2.7C86.6,54.4,86.2,54.7,85.7,55.2z M65.7,64c-0.1,0.5-0.2,0.8-0.2,1.2    c1.5,0.4,3,0.4,4.5,0.4c-0.7-0.3-1.4-0.5-2.1-0.7C67.2,64.6,66.5,64.3,65.7,64z M97.1,31.2c-0.6,0.7-1.1,1.2-1.6,1.8    c0.3,0.4,0.6,0.7,1,0.9c0.4-0.3,1-0.5,1.4-1C97.7,32.4,97.5,31.9,97.1,31.2z M72.7,99.2c-0.2-0.6-0.4-1.1-0.6-1.5    c-0.1-0.1-0.1-0.3-0.3-0.3c-0.4-0.2-0.9-0.4-1.4-0.3c0.3,0.9,0.6,1.8,1.2,2.4C71.9,99.3,72.2,99.3,72.7,99.2z M125.1,37.7    c-0.6-1.5-1.9-3.4-2.7-4c0.3,0.9,0.6,1.6,0.9,2.4c0.2,0.8,0.6,1.2,1.3,1.4C124.7,37.6,124.9,37.6,125.1,37.7z M94.5,81.5    c-0.5,0.1-0.5,0.1-0.6,0.4c-0.4,1.2-0.5,2.5-0.4,3.8c0,0,0.1,0.1,0.2,0.1C94.3,84.8,94.6,83.2,94.5,81.5z M102,53.4    c-0.7-0.8-1.2-1.5-2-2c-0.3,1.2-0.3,1.3-0.2,2.3C100.6,53.6,101.2,53.5,102,53.4z M71.1,78.2c0.2,0.3,0.4,0.6,0.5,0.8    c0.7-0.1,1.4-0.1,2.1-0.6c-0.6-0.6-1.3-1-2-1.3C71.5,77.6,71.3,77.9,71.1,78.2z M54,75.8c0-0.9,0-1.6,0.1-2.3    c0-0.1-0.1-0.1-0.1-0.2c-0.8,0.3-1.2,0.6-1.8,1.3C52.7,75.1,53.2,75.4,54,75.8z M78.8,60.9c-0.6,0.4-1,0.8-1.3,1.4    c0.2,0.3,0.3,0.6,0.5,0.9c0.7-0.1,1.2-0.4,1.7-0.9C79.4,61.8,79.1,61.3,78.8,60.9z M88.6,71.6c-0.1,0.5-0.2,1-0.1,1.5    c0.9,0,1.7,0,2.5-0.4C90.4,71.6,89.6,71.6,88.6,71.6z M127.2,71.4c0.3-0.7,0.5-1.3,0.7-1.8c-0.3-0.5-0.6-0.9-0.9-1.3    c-0.3,0.2-0.5,0.3-0.7,0.4C126.6,69.5,126.7,70.5,127.2,71.4z M99.1,61.8c-0.2,0.1-0.3,0.3-0.3,0.5c-0.2,0.9-0.4,1.7-0.6,2.6    c0,0.2-0.1,0.4,0,0.6c0,0.3,0.1,0.5,0.4,0.5C99.2,64.7,99.4,63,99.1,61.8z M65.4,38.4c1.3,0.1,2.4,0.1,3.5,0.2c0,0,0-0.1,0-0.2    c-0.5-0.4-1-0.7-1.6-1c-0.1-0.1-0.3-0.1-0.4-0.1C66.4,37.6,65.9,37.7,65.4,38.4z M93.7,92.2c-0.3-0.7-0.4-1.4-0.7-2    c-0.7,0.6-1.1,1.2-1.4,1.9C92.3,92.2,92.9,92.4,93.7,92.2z M102.9,78c-0.2,0.5-0.1,0.9,0.3,1.2c0.5,0.3,1,0.6,1.5,1    c0.2,0.1,0.3,0.2,0.5-0.1c-0.1-0.4-0.1-0.8-0.5-1.1C104.1,78.6,103.5,78.2,102.9,78z M84.8,51.2c0.3,0.9,0.6,1.6,0.8,2.3    c0.9-0.4,1-0.5,1.4-1C86.4,52,85.7,51.6,84.8,51.2z M81.6,39.9c0,0.4-0.1,0.7-0.1,1c0,0.3,0,0.7,0,1c0,0.4,0,0.4,0.4,0.9    c0.3-0.3,0.6-0.7,0.8-1C82.2,40.2,82.2,40.2,81.6,39.9z M118,56.7c-0.2-1-0.5-1.8-0.8-2.5c-0.5,0.3-1,0.6-1.4,1.1    C116.5,55.7,117.2,56.2,118,56.7z M110.4,80.5c0.1,0.8,0.4,1,0.9,1c0.4,0,0.8,0,1.1,0c0.1,0,0.3-0.2,0.4-0.3    c0.1-0.1,0-0.3,0.1-0.6C112.1,80.5,111.3,80.5,110.4,80.5z M107.7,82.6c0.7,1.1,1.5,2,2.8,2.8c-0.3-0.7-0.6-1-0.9-1.4    c-0.4-0.5-0.7-0.9-1.1-1.4C108.3,82.5,108.1,82.4,107.7,82.6z M63.5,62.6c-0.3,0.8-0.4,0.9-0.2,1.2c0.2,0.4,0.5,0.8,0.9,1.2    c0.2-0.5,0.4-1,0.3-1.6c-0.2-0.1-0.3-0.3-0.5-0.4C63.9,62.8,63.7,62.7,63.5,62.6z M100.9,45.2c0,0,0.1,0,0.1,0.1    c0.4-0.5,0.8-1,1.2-1.4c-0.2-0.5-0.4-1-0.8-1.4C101.2,43.4,101,44.3,100.9,45.2z M86.1,26.1c1-1.1,2-2.2,3-3.2c0,0,0-0.2,0-0.3    C88.1,23.2,86.9,24.6,86.1,26.1z M105.1,62.9c-0.4,0.5-0.8,1-1.2,1.5c0,0.1,0,0.1-0.1,0.3c0.2,0.1,0.4,0.3,0.7,0.5    C105,64.5,105.1,63.7,105.1,62.9z M105.7,76.3c0,0.5,0,0.8,0.1,1.1c0.1,0.2,0.2,0.4,0.4,0.5c0.4,0.2,0.8,0.4,1.3,0.5    C107,77.4,106.6,77,105.7,76.3z M93.7,35.8c0.3,0.2,0.6,0.1,0.8-0.1c0.3-0.3,0.6-0.6,0.8-0.9c0,0,0-0.1,0-0.3    c-0.2-0.1-0.4-0.3-0.6-0.4C94.3,34.7,93.9,35.2,93.7,35.8z M97.5,34.9c0.6,0.9,0.6,0.9,1.5,0.6c-0.1-0.4-0.2-0.9-0.6-1.3    C98.1,34.5,97.8,34.5,97.5,34.9z M104.4,75.7c-0.6-0.1-1.2-0.2-1.9-0.3c0.5,0.7,1.1,1.1,1.7,1.4c0,0,0.1,0,0.2-0.1    C104.4,76.4,104.4,76.1,104.4,75.7z M81.2,59.3c-0.6,0.1-1,0.4-1.3,0.7c0.1,0.5,0.3,0.8,0.7,1.1C80.8,60.5,80.9,60,81.2,59.3z     M80.1,48.3c0.5,0.6,1,0.5,1.7,0.5c-0.4-0.6-0.7-1.1-1.2-1.5C80.4,47.6,80.3,47.9,80.1,48.3z M75.2,98c-1-0.3-1.2-0.3-1.8-0.1    c0.1,0.3,0.3,0.6,0.4,0.9C74.8,98.4,74.8,98.4,75.2,98z M118.4,66.6c-0.6,0.2-1.2,0.4-1.7,0.6c0.4,0.4,0.9,0.4,1.4,0.6    C118.4,67.3,118.4,67.3,118.4,66.6z M75.6,82.2c-0.4-0.5-0.4-1-0.9-1.3c-0.3,0.3-0.6,0.6-0.5,1C74.6,82.1,75,82.3,75.6,82.2z     M72.4,80.3c0.1,0.6,0.1,0.6,0.4,1.2c0.4-0.4,0.6-0.9,0.9-1.4c-0.1,0-0.2-0.1-0.2-0.1C73.1,80.1,72.7,80.2,72.4,80.3z M53.1,77    c0.6,1.4,0.7,1.5,1.1,1.8C54.2,77.4,54.2,77.4,53.1,77z M104.3,61.5c-1.1,0.9-1.5,1.4-1.7,2.3C103.4,63.1,104,62.4,104.3,61.5z     M93.2,51.7c0,0.1,0,0.1,0,0.2c0.6,0.3,1.2,0.6,1.9,0.9c0,0,0.1,0,0.3-0.1c-0.3-0.4-0.6-0.7-0.9-1C94,51.7,93.6,51.7,93.2,51.7z     M101,55c1,0.7,1,0.6,1.6-0.1C101.8,54.6,101.6,54.7,101,55z M90.5,81.1c0.2-0.5,0.2-0.5,0.1-1.3c-0.3,0.2-0.6,0.2-0.7,0.7    C90.1,80.7,90.3,80.9,90.5,81.1z M91.1,54.2c0-0.2,0-0.3,0-0.4c0-0.2-0.1-0.4-0.2-0.6c-0.2-0.4-0.5-0.4-0.9,0    C90.4,53.6,90.6,54,91.1,54.2z M100,57.4c0.3-0.3,0.5-0.5,0.7-0.7c0.1-0.1,0-0.2,0.1-0.3c-0.3-0.1-0.5-0.2-0.9-0.3    C100,56.5,100,56.9,100,57.4z M111,62.8c-0.3-1.2-0.6-1.7-1.2-2.1c0.3,0.6,0.6,1.1,0.8,1.6C110.8,62.5,110.9,62.7,111,62.8z     M76.8,43.6c0.3,0.5,0.6,1,1,1.4c0.1,0.1,0.3,0.1,0.4-0.3c-0.4-0.3-0.8-0.7-1.2-1C76.9,43.6,76.8,43.6,76.8,43.6z M100.3,64.8    c0.4-0.4,0.5-0.8,0.7-1.1c-0.1-0.3-0.2-0.6-0.5-0.5C100.4,63.6,100.3,64.1,100.3,64.8z M107.9,80.1c0.3,0.5,0.6,0.8,0.9,1.1    c0.1,0.1,0.2,0.1,0.3-0.1C108.9,80.5,108.8,79.8,107.9,80.1z M81.6,69.3c0.1,0.1,0.2,0.3,0.3,0.3c0.4-0.1,0.8-0.2,1.2-0.6    C82.6,69,82.1,69,81.6,69.3z M88.8,51.9c0.5,0,0.9-0.1,1.5-0.4c-0.6-0.1-1-0.3-1.4-0.3c0,0.1-0.1,0.2-0.1,0.3    C88.7,51.6,88.7,51.7,88.8,51.9z M92.8,58.6c-0.1,1-0.1,1,0.8,1.4C93.3,59.6,93.1,59.2,92.8,58.6z M99.3,48.9    c0.3-0.4,0.4-0.8,0.5-1.4c-0.5,0.4-0.7,0.7-1,1.1C99,48.7,99.1,48.8,99.3,48.9z M113.5,92.4c0,0.5,0,0.9,0,1.3    c0,0.1,0.1,0.2,0.2,0.4C113.9,93.4,113.8,92.9,113.5,92.4z M79.3,47c0.1-0.2,0.2-0.3,0.3-0.4c0.2-0.4,0-0.6-0.4-0.6    c-0.1,0-0.2,0.1-0.4,0.2C78.9,46.5,79.1,46.7,79.3,47z M92.9,50.3c-0.6,0-1.1-0.4-1.8-0.3C91.7,50.4,92.3,50.4,92.9,50.3z     M96.6,69.5c0.4-0.4,0.7-0.5,0.6-1c0-0.1-0.2-0.2-0.3-0.3c0,0-0.2,0.1-0.2,0.2C96.7,68.7,96.7,69,96.6,69.5z M92.3,83.6    c0.1-0.4,0.2-0.8,0.1-1.2C91.9,82.8,91.9,82.8,92.3,83.6z M79.1,70.4c0-0.1,0-0.2-0.1-0.3c-0.4-0.1-0.6,0.1-1,0.5    C78.6,70.5,78.8,70.5,79.1,70.4z M107.3,55.6c0-0.3,0-0.5,0-0.6c0-0.1-0.2-0.2-0.3-0.2c-0.1,0-0.2,0.1-0.3,0.1    c0,0.1,0,0.3,0.1,0.4C106.9,55.3,107.1,55.4,107.3,55.6z M97.9,49.6c-0.6-0.2-0.6-0.2-1.4,0.4C97,49.8,97.3,49.7,97.9,49.6z     M120.8,61.6c-0.1-0.4-0.3-0.7-0.8-0.9C120.2,61.2,120.5,61.4,120.8,61.6z M120.2,63.2c-0.1,0.3-0.1,0.5,0.1,0.8    c0.1-0.2,0.3-0.3,0.3-0.4C120.7,63.3,120.5,63.2,120.2,63.2z M94.3,73.2c0-0.1-0.1-0.1-0.1-0.2c-0.2,0.1-0.5,0.2-0.7,0.4    c0,0,0,0.1,0,0.2c0,0.1,0.1,0.1,0.2,0.1C93.8,73.5,94,73.4,94.3,73.2z M77.5,82.6c-0.2-0.5-0.4-0.8-0.7-0.9    C76.9,82,77,82.3,77.5,82.6z M92.2,71.9c0.2,0.2,0.3,0.3,0.4,0.3c0.2,0,0.3-0.1,0.5-0.2c0,0,0-0.1,0-0.2    C92.8,71.8,92.5,71.9,92.2,71.9z M112.1,82.9c-0.3,0-0.5,0-0.8,0c0.2,0.2,0.1,0.5,0.5,0.6C111.9,83.3,112,83.1,112.1,82.9z     M96.7,65.9c-0.1,0.6-0.1,0.6,0.2,0.9C97.1,66.4,97,66.1,96.7,65.9z M89.2,49.2c-0.3,0.1-0.4,0.3-0.2,0.5c0.1,0.2,0.3,0.3,0.5,0    C89.4,49.6,89.3,49.4,89.2,49.2z M97.7,71.1c-0.1,0.1-0.2,0.1-0.2,0.1c0,0.1,0,0.2,0.1,0.3c0.1,0.1,0.2,0.1,0.3,0.1    c0.1,0,0.2-0.1,0.2-0.1c0-0.1,0-0.2-0.1-0.3C97.9,71.1,97.8,71.1,97.7,71.1z M63.7,73c0,0.3,0,0.7,0.4,0.9    C64,73.5,64,73.2,63.7,73z M109.2,41.2c-0.1-0.2-0.2-0.3-0.3-0.3c-0.1,0-0.2-0.1-0.3,0c0,0-0.1,0.2-0.1,0.2    c0.1,0.1,0.2,0.2,0.3,0.2C108.9,41.3,109,41.3,109.2,41.2z M84.8,42.8c0.2,0.7,0.2,0.7,0.7,0.7C85.2,43.2,85,43,84.8,42.8z     M86.3,45c0.4,0.5,0.4,0.5,0.9,0.8C87,45.5,86.9,45.1,86.3,45z M70.5,76.7c-0.2-0.2-0.3-0.4-0.6-0.3c0,0.3,0.1,0.5,0.4,0.5    C70.4,76.9,70.5,76.8,70.5,76.7z M81.6,67.3c-0.1,0.1-0.2,0.2-0.2,0.2c0,0.1,0.1,0.2,0.2,0.2c0.1-0.1,0.2-0.1,0.2-0.2    C81.8,67.5,81.7,67.4,81.6,67.3z M126,67.1c-0.1-0.1-0.2-0.2-0.3-0.3c0,0-0.1,0.1-0.1,0.1c0,0.1,0.1,0.2,0.1,0.3    C125.8,67.2,125.9,67.2,126,67.1z M73.9,72c-0.1-0.1-0.1-0.2-0.1-0.2c-0.1,0-0.1,0.1-0.2,0.2c0,0.1,0.1,0.1,0.1,0.2    C73.8,72.2,73.9,72.1,73.9,72z M72.7,75.6c-0.1,0.2-0.1,0.3-0.1,0.3c0,0.1,0.1,0.1,0.2,0.2c0-0.1,0.1-0.2,0.1-0.3    C72.9,75.8,72.8,75.8,72.7,75.6z M80.2,83.9C80.1,83.9,80.1,84,80,84c0.1,0.1,0.1,0.2,0.2,0.2c0.1,0,0.1-0.1,0.2-0.2    C80.4,84,80.3,83.9,80.2,83.9z M80.4,69.6C80.3,69.6,80.3,69.7,80.4,69.6c0,0.2,0,0.4,0.1,0.5c0,0,0.1,0,0.1,0    C80.5,69.9,80.5,69.8,80.4,69.6C80.4,69.6,80.4,69.6,80.4,69.6z M82.3,47.2C82.3,47.2,82.3,47.3,82.3,47.2c0,0.1,0,0.1,0,0.1    c0,0,0.1,0,0.1,0C82.4,47.3,82.4,47.2,82.3,47.2z M81.6,46.4c0,0,0.1-0.1,0.1-0.1c0-0.1-0.1-0.2-0.1-0.3c0,0-0.1-0.1-0.2-0.1    c0,0.1,0,0.2,0,0.3C81.5,46.3,81.6,46.3,81.6,46.4z M97.5,54.5C97.5,54.5,97.5,54.5,97.5,54.5c0,0.1,0,0.2,0.1,0.3    c0,0,0.1-0.1,0.1-0.1C97.7,54.6,97.6,54.6,97.5,54.5z M83.4,43.7c0.1-0.1,0.1-0.2,0.2-0.2c-0.1-0.1-0.2-0.2-0.2-0.2    c-0.1,0-0.1,0.1-0.2,0.2C83.2,43.6,83.3,43.6,83.4,43.7z M62.4,61.6c-0.1-0.1-0.2-0.1-0.2-0.2c0,0.1-0.1,0.2-0.1,0.2    c0.1,0.1,0.1,0.2,0.2,0.2C62.3,61.8,62.3,61.7,62.4,61.6z M102.3,73.8c-0.1,0-0.1,0-0.2,0c0,0,0,0,0,0.1    C102.1,73.8,102.2,73.8,102.3,73.8C102.3,73.8,102.3,73.8,102.3,73.8z M71,80.7C70.9,80.7,70.9,80.6,71,80.7c-0.1,0-0.1,0-0.1,0    c0,0,0.1,0.1,0.1,0.1C71,80.7,71,80.7,71,80.7z M76.6,63.5C76.6,63.5,76.6,63.5,76.6,63.5c-0.1,0-0.2,0.1-0.3,0.1    c0.1,0,0.1,0.1,0.2,0.1C76.6,63.7,76.6,63.6,76.6,63.5z M55.8,78.3c0-0.1-0.1-0.1-0.1-0.1c-0.1,0-0.1,0.1-0.2,0.1    c0.1,0.1,0.1,0.1,0.2,0.2C55.7,78.4,55.7,78.4,55.8,78.3z M95.3,68.6C95.3,68.6,95.2,68.6,95.3,68.6c-0.1,0.1,0,0.2,0,0.2    c0,0,0.1,0,0.1-0.1C95.4,68.7,95.3,68.6,95.3,68.6z M105.4,56C105.4,56,105.4,55.9,105.4,56c-0.1,0-0.1,0-0.1,0.1    c0,0,0,0.1,0.1,0.1C105.4,56.1,105.4,56,105.4,56z M98.6,69.2L98.6,69.2L98.6,69.2L98.6,69.2z M59.1,54.4    C59,54.3,59,54.3,59.1,54.4c-0.1,0-0.1,0-0.1,0.1c0,0,0,0.1,0.1,0.1C59,54.5,59,54.4,59.1,54.4z M65.4,74.2c0,0,0.1,0.1,0.1,0.1    c0,0,0,0,0.1-0.1C65.6,74.2,65.5,74.2,65.4,74.2C65.5,74.1,65.5,74.2,65.4,74.2z"></path>		<line class="st2" x1="85.5" y1="52.1" x2="85.7" y2="57.7"></line>		<path class="st3" d="M66.5,58.9c0,0-6.5,2.6-9.6,7c-3.4,4.8-4.3,14.9-4.3,14.9s4.4-0.2,6.3-1c3.7-1.5,8-5.5,8-5.5"></path>		<path class="st3" d="M109.1,58.9c0,0,6.5,2.6,9.6,7c3.4,4.8,4.3,14.9,4.3,14.9s-4.4-0.2-6.3-1c-3.7-1.5-8-5.5-8-5.5"></path>		<path class="st4" d="M109.3,54v16.3c0,13.2-9.7,23.9-21.6,23.9S66,83.6,66,70.3V53.9l1.2-1.5l2.4-0.4l0.2,1.4l0.7-1.6l2.5,0.3    c0,0,3.8,2.2,5.8,2c2-0.1,4.2-1.1,4.2-1.1s3.8-0.6,5-0.6c2.4,0,3.6,0.9,3.6,0.9s7.8-0.5,8.6-0.5c5.1,0.2,5.7,5,5.7,5"></path>		<g>			<path class="st5" d="M66.8,50.8c0,1.4,1.5,6.4,1.7,7.5c3.5,17.1,21.1,11.1,26.5-4.1c0.1-0.3,0.2-0.6,0.3-0.9l0.6-2.5"></path>			<path class="st5" d="M91.8,53.3c-1.4,3-2.7,5.8-4.4,7.5c-2.3,2.3-4.5,4.5-7.6,5.2c-7.9,2-9.1-5.4-7.4-13.6"></path>			<path class="st5" d="M103.8,53.9c-1.5,10.2-21.3,12.5-25.8,9.3c-2.6-1.8-4.4-4.7-2.6-10.7"></path>			<path class="st5" d="M99.5,53.4c-0.2,5.2-1,9.4-2.6,11.6c-2.1,2.8-6.3,2.6-9.3,1.4c-6.2-2.5-7.4-7.2-6.6-12.7"></path>			<path class="st5" d="M106.7,52.3c0,4.7-1.2,9.4-4.9,12.2c-3.6,2.8-8.9,2-12.3-0.5c-2.6-2-4-6.6-5.7-10.9"></path>			<path class="st5" d="M106.3,51.9c-4.6,4.8-13.7,8.6-20.1,6.8c-2.7-0.7-8.7-2.4-11.7-6.3"></path>			<path class="st5" d="M98.6,53.4c-4.6,4-10.1,7.8-15.9,9.4c-7.9,2.2-16.2-2.2-13-10.7"></path>		</g>		<path class="st5" d="M87.4,44.8c4.4-2.9,8-1.6,10.4,3.1"></path>		<path class="st6" d="M48.6,43.8c0,0,3.2,0.4,6.7,2.1c3.1,1.6,4.6,2,5.8,1.6c1.5-0.6,5.4-4.6,8.5-5.7c4.9-1.8,10.6,0.3,11.4,1.2    c0.1,0.1-3.6,1.2-7.3,2.7c-5,2-9,6.2-9.7,6.8c-1.3,1-4.4,2.4-7.6,1.1C51.3,51.8,48.6,43.8,48.6,43.8z"></path>		<path class="st6" d="M126.4,43.8c0,0-3.2,0.4-6.7,2.1c-3.1,1.6-4.6,2-5.8,1.6c-1.5-0.6-5.4-4.6-8.5-5.7    c-4.9-1.8-10.6,0.3-11.4,1.2c-0.1,0.1,3.6,1.2,7.3,2.7c5,2,9,6.2,9.7,6.8c1.3,1,4.4,2.4,7.6,1.1C123.6,51.8,126.4,43.8,126.4,43.8    z"></path>		<path class="st7" d="M103.5,114.7c0,0-7.8,2.9-18.3,3.8c-4.7,0.4-11-0.5-11-0.5"></path>		<path class="st7" d="M109.6,120c0,0-4.6,0.2-6.3-0.4c-4-1.3-4.9-6.7-4.9-6.7"></path>	</g>	<g>		<path class="st8" d="M81.3,121.2c-0.2-0.1-0.4-0.1-0.6-0.1c-0.4,0-0.9,0-1.3,0.1c-2.7,0.5-5.3,1.5-7.6,3c-0.2,0.2-0.4,0.2-0.7,0.1    c-0.2-0.1-0.3-0.1-0.5-0.2c-0.7-0.3-0.9-0.9-0.5-1.6c0.2-0.4,0.5-0.8,0.8-1.1c0.7-0.8,1.6-1.4,2.4-2c0.2-0.1,0.4-0.1,0.6-0.1    c2,0,3.9-0.4,5.7-1.2c0.5-0.2,1-0.5,1.5-0.8c0.2-0.1,0.5-0.3,0.4-0.6c-0.1-0.3-0.4-0.3-0.7-0.3c-0.4,0-0.9,0.1-1.3,0.2    c-2,0.4-3.9,1.1-5.7,2.2c-0.3,0.2-0.5,0.2-0.8,0.2c-0.8-0.1-1.6-0.2-2.3-0.5c-0.2,0.1-0.4,0.1-0.6,0.2c0.5,0.3,1.1,0.4,1.7,0.5    c0.3,0.1,0.6,0.1,0.9,0.1c-0.1,0.2-0.2,0.2-0.3,0.3c-0.9,0.6-1.7,1.3-2.3,2.2c-0.2,0.3-0.4,0.6-0.5,0.9c-0.2,0.7,0,1.2,0.5,1.6    c0.3,0.2,0.6,0.3,0.9,0.5c-0.3,0.3-0.6,0.5-0.9,0.8c-0.6,0.5-1.1,1.1-1.4,1.9c-0.4,0.9-0.2,1.7,0.6,2.2c0.2,0.1,0.3,0.2,0.5,0.2    c0.1,0,0.1,0.1,0.3,0.1c-0.1,0.1-0.2,0.2-0.3,0.3c-0.3,0.3-0.5,0.7-0.7,1.1c-0.2,0.5-0.1,1,0.3,1.4c0.3,0.3,0.7,0.5,1.1,0.7    c-0.1,0.1-0.2,0.2-0.4,0.3c-0.6,0.4-1.3,0.9-1.7,1.6c-0.1,0.2-0.2,0.3-0.3,0.5c-0.3,0.6-0.1,1.1,0.3,1.5c0.3,0.3,0.7,0.5,1.1,0.6    c0.6,0.1,1.2,0.2,1.7,0.3c0.1,0,0.3,0,0.5,0c-0.4,0.4-0.7,0.7-1,1c-0.3,0.3-0.5,0.7-0.7,1.1c-0.3,0.8-0.1,1.5,0.7,1.8    c0.2,0.1,0.4,0.2,0.6,0.3c-0.1,0.1-0.2,0.2-0.2,0.3l0.4,0.2c0.1-0.1,0.2-0.2,0.3-0.3c0.1-0.1,0.2-0.1,0.3-0.1    c2.5,0.1,4.9-0.6,7.1-1.7c0.3-0.2,0.6-0.4,0.9-0.6c0.3-0.3,0.2-0.6-0.2-0.8c-0.2-0.1-0.5-0.2-0.8-0.1c-0.6,0-1.3,0.1-1.9,0.2    c-1.9,0.4-3.6,1.2-5.1,2.4c-0.2,0.2-0.4,0.2-0.7,0.1c-0.2-0.1-0.5-0.2-0.7-0.3c-0.3-0.2-0.5-0.6-0.4-1c0.1-0.3,0.2-0.6,0.4-0.8    c0.4-0.6,0.9-1,1.4-1.5c0.2-0.2,0.4-0.2,0.7-0.3c2.4-0.2,4.7-0.8,6.9-1.9c0.3-0.1,0.5-0.3,0.8-0.4c0.1-0.1,0.3-0.2,0.4-0.3    c0.2-0.2,0.1-0.4-0.1-0.5c-0.1,0-0.3-0.1-0.5,0c-0.6,0.1-1.2,0.1-1.8,0.3c-2.1,0.4-4.1,1.2-5.9,2.4c-0.1,0.1-0.3,0.1-0.4,0.2    c-0.8,0-1.7,0-2.5-0.3c-0.3-0.1-0.7-0.3-1-0.5c-0.4-0.3-0.4-0.7-0.2-1.2c0.2-0.4,0.5-0.8,0.9-1.1c0.5-0.4,1-0.7,1.5-1.1    c0.1-0.1,0.3-0.1,0.4-0.1c1.7,0.2,3.4,0,5-0.4c1.2-0.3,2.3-0.6,3.3-1.1c0.4-0.2,0.8-0.4,1.1-0.7c0.4-0.3,0.4-0.8-0.2-0.9    c-0.3-0.1-0.7-0.1-1-0.1c-0.7,0.1-1.4,0.1-2,0.3c-2.2,0.4-4.2,1.2-6.1,2.3c-0.3,0.2-0.5,0.2-0.8,0.1c-0.3-0.1-0.5-0.2-0.8-0.4    c-0.5-0.4-0.6-0.8-0.3-1.4c0.2-0.4,0.5-0.7,0.8-1c0.1-0.1,0.2-0.1,0.4-0.1c2.9,0.5,5.7-0.3,8.4-1.5c0.5-0.2,1.1-0.6,1.5-1    c0.1-0.1,0.2-0.2,0.2-0.3c0.2-0.4,0.1-0.7-0.3-0.9c-0.2-0.1-0.4-0.2-0.7-0.2c-0.4,0-0.8,0-1.2,0c-2.9,0.4-5.7,1.4-8.1,3.1    c-0.2,0.1-0.3,0.2-0.5,0.1c-0.3-0.1-0.5-0.2-0.8-0.4c-0.4-0.3-0.6-0.7-0.4-1.2c0.1-0.4,0.3-0.7,0.5-1c0.5-0.8,1.2-1.4,2-2    c0.1-0.1,0.3-0.1,0.4-0.1c3.1,0.3,5.9-0.5,8.6-2c0.2-0.1,0.5-0.3,0.7-0.5c0.2-0.1,0.3-0.3,0.4-0.4    C81.7,121.6,81.7,121.3,81.3,121.2z M74.7,118.7c0.5-0.3,1-0.5,1.6-0.7c1.2-0.5,2.5-0.9,3.8-1.1c0.3,0,0.6-0.1,0.8,0    c-0.8,0.9-5,2.2-6.5,2C74.5,118.8,74.6,118.7,74.7,118.7z M72.6,142c1.5-1.1,3.2-1.8,5-2.2c0.5-0.1,1.1-0.1,1.6-0.1    c0.2,0,0.4,0.1,0.7,0.1c-0.3,0.4-0.7,0.6-1,0.7c-1.2,0.6-2.5,1.1-3.9,1.3c-0.8,0.2-1.6,0.2-2.4,0.3c-0.1,0-0.2,0-0.3,0    C72.6,142.1,72.6,142,72.6,142z M75.5,136.6c1.4-0.6,2.8-1,4.3-1.1c0.2,0,0.4-0.1,0.6,0c-2.3,1.3-4.6,2-7.1,2.3c0,0,0-0.1,0-0.1    C74.1,137.3,74.8,136.9,75.5,136.6z M71.9,133.2c2.3-1.2,4.7-2.1,7.2-2.3c0.3,0,0.7,0,1.1,0c0.2,0,0.3,0.1,0.5,0.1    c-0.2,0.2-0.3,0.3-0.4,0.4c-0.3,0.2-0.7,0.4-1.1,0.6c-1.4,0.6-2.8,1-4.3,1.2c-0.9,0.2-1.8,0.2-2.7,0.2c-0.1,0-0.3,0-0.5,0    C71.9,133.2,71.9,133.2,71.9,133.2z M71.1,129.7c0.1-0.1,0.2-0.1,0.3-0.2c2.3-1.5,4.9-2.4,7.6-2.7c0.3,0,0.7,0,1,0    c0.2,0,0.5,0,0.6,0.3c0,0.2-0.2,0.4-0.3,0.5c-0.5,0.3-0.9,0.6-1.4,0.8c-1.9,0.9-4,1.4-6.1,1.5c-0.6,0-1.2,0-1.8-0.1    C71.1,129.7,71.1,129.7,71.1,129.7z M81,122c-0.2,0.2-0.5,0.4-0.7,0.5c-2.4,1.4-5,2.1-7.7,2c-0.1,0-0.2,0-0.4,0c0-0.1,0-0.1,0-0.1    c0.1-0.1,0.2-0.1,0.2-0.2c2.2-1.3,4.5-2.2,7.1-2.7c0.4-0.1,0.8-0.1,1.2-0.1c0.2,0,0.3,0.1,0.6,0.1C81.2,121.8,81.1,121.9,81,122z"></path>		<path class="st9" d="M107.9,137.6c-0.4-0.6-1-1-1.7-1.4c-0.1-0.1-0.3-0.2-0.4-0.3c0.4-0.2,0.8-0.4,1.1-0.6    c0.4-0.3,0.5-0.8,0.4-1.2c-0.1-0.4-0.3-0.7-0.6-1c-0.1-0.1-0.2-0.2-0.3-0.3c0.1-0.1,0.2-0.1,0.3-0.1c0.2-0.1,0.3-0.1,0.5-0.2    c0.7-0.4,1-1.1,0.6-1.9c-0.3-0.7-0.8-1.2-1.3-1.7c-0.3-0.3-0.6-0.5-0.9-0.8c0.3-0.1,0.6-0.3,0.9-0.4c0.6-0.3,0.8-0.9,0.6-1.5    c-0.1-0.3-0.3-0.6-0.5-0.8c-0.6-0.8-1.4-1.4-2.3-2c-0.1-0.1-0.3-0.1-0.3-0.3c0.3,0,0.6-0.1,0.9-0.1c0.7-0.1,1.3-0.2,1.9-0.5    c0.6-0.3,0.9-0.7,1.1-1.2l-0.4,0c-0.1,0.3-0.4,0.6-0.7,0.8c-0.1,0.1-0.2,0.1-0.4,0.2c-0.8,0.4-1.7,0.4-2.6,0.5    c-0.3,0-0.5,0-0.8-0.2c-1.7-1-3.6-1.7-5.6-2.1c-0.4-0.1-0.9-0.1-1.3-0.2c-0.2,0-0.5,0-0.7,0.2c-0.1,0.3,0.1,0.4,0.3,0.6    c0.5,0.3,1,0.6,1.5,0.8c1.8,0.7,3.7,1.1,5.7,1.2c0.2,0,0.4,0,0.6,0.1c0.9,0.5,1.7,1.1,2.4,1.8c0.3,0.3,0.6,0.7,0.8,1    c0.4,0.7,0.2,1.2-0.5,1.5c-0.2,0.1-0.3,0.1-0.5,0.2c-0.2,0.1-0.4,0-0.7-0.1c-2.3-1.5-4.8-2.4-7.6-2.9c-0.4-0.1-0.9-0.1-1.3-0.1    c-0.2,0-0.4,0-0.6,0.1c-0.3,0.1-0.4,0.4-0.2,0.6c0.1,0.2,0.2,0.3,0.4,0.4c0.2,0.2,0.4,0.3,0.7,0.5c2.6,1.5,5.5,2.2,8.5,2    c0.1,0,0.3,0,0.4,0.1c0.7,0.5,1.4,1.1,2,1.9c0.2,0.3,0.3,0.6,0.4,0.9c0.1,0.4,0,0.8-0.5,1.1c-0.2,0.1-0.5,0.2-0.8,0.3    c-0.2,0.1-0.3,0-0.5-0.1c-2.4-1.7-5.1-2.6-8-3c-0.4-0.1-0.8-0.1-1.2,0c-0.2,0-0.4,0.1-0.7,0.1c-0.4,0.2-0.5,0.5-0.3,0.8    c0.1,0.1,0.1,0.2,0.2,0.3c0.4,0.4,0.9,0.7,1.5,0.9c2.6,1.1,5.4,1.8,8.3,1.5c0.2,0,0.3,0,0.4,0.1c0.3,0.3,0.6,0.6,0.8,0.9    c0.3,0.5,0.2,0.9-0.3,1.2c-0.2,0.2-0.5,0.2-0.8,0.4c-0.3,0.1-0.5,0.1-0.8-0.1c-1.9-1-3.9-1.8-6.1-2.2c-0.7-0.1-1.3-0.2-2-0.3    c-0.3,0-0.7,0-1,0.1c-0.5,0.1-0.6,0.5-0.2,0.8c0.3,0.2,0.7,0.5,1.1,0.6c1.1,0.5,2.2,0.8,3.3,1.1c1.6,0.4,3.3,0.6,5,0.4    c0.1,0,0.3,0,0.4,0.1c0.5,0.3,1,0.7,1.5,1c0.4,0.3,0.7,0.6,0.9,1c0.2,0.4,0.1,0.8-0.3,1c-0.3,0.2-0.6,0.3-1,0.4    c-0.8,0.2-1.6,0.3-2.5,0.2c-0.1,0-0.3-0.1-0.4-0.1c-1.8-1.1-3.8-1.8-5.8-2.3c-0.6-0.1-1.2-0.2-1.8-0.3c-0.1,0-0.3,0-0.5,0    c-0.2,0.1-0.3,0.3-0.2,0.5c0.1,0.1,0.2,0.2,0.4,0.3c0.3,0.1,0.5,0.3,0.8,0.4c2.2,1,4.4,1.6,6.8,1.8c0.2,0,0.5,0.1,0.7,0.2    c0.5,0.4,1,0.8,1.4,1.4c0.2,0.2,0.3,0.5,0.4,0.7c0.1,0.4,0,0.7-0.4,0.9c-0.2,0.1-0.5,0.2-0.7,0.3c-0.2,0.1-0.4,0-0.7-0.1    c-1.5-1.1-3.2-1.9-5.1-2.3c-0.6-0.1-1.3-0.2-1.9-0.2c-0.3,0-0.5,0-0.8,0.1c-0.4,0.1-0.5,0.4-0.2,0.7c0.2,0.2,0.5,0.4,0.8,0.6    c2.2,1,4.6,1.7,7.1,1.7c0.1,0,0.2,0,0.3,0.1c0.1,0.1,0.2,0.2,0.3,0.3l0.4-0.1c-0.1-0.1-0.1-0.2-0.2-0.3c0.2-0.1,0.4-0.1,0.6-0.2    c0.7-0.3,1-0.9,0.7-1.7c-0.2-0.4-0.4-0.7-0.7-1c-0.3-0.3-0.6-0.6-1-0.9c0.2,0,0.3,0,0.5,0c0.6-0.1,1.2-0.1,1.7-0.2    c0.4-0.1,0.8-0.3,1.1-0.5c0.5-0.4,0.6-0.8,0.3-1.4C108.1,137.9,108,137.8,107.9,137.6z M95.8,120.6c0.3-0.1,0.6,0,0.8,0    c1.3,0.2,2.5,0.6,3.8,1c0.5,0.2,1,0.5,1.6,0.7c0.1,0,0.2,0.1,0.3,0.2C100.7,122.7,96.5,121.5,95.8,120.6z M104,127.8    c-2.7,0-5.3-0.6-7.6-2c-0.3-0.1-0.5-0.3-0.7-0.5c-0.1-0.1-0.2-0.2-0.3-0.3c0.2,0,0.4-0.1,0.6-0.1c0.4,0,0.8,0,1.2,0.1    c2.5,0.4,4.8,1.3,7,2.5c0.1,0,0.2,0.1,0.2,0.2c0,0,0,0,0,0.1C104.2,127.8,104.1,127.8,104,127.8z M103.6,132.6    c-2.1-0.1-4.1-0.6-6-1.5c-0.5-0.2-0.9-0.5-1.4-0.8c-0.2-0.1-0.4-0.3-0.3-0.5c0.1-0.2,0.3-0.2,0.6-0.3c0.3,0,0.7,0,1,0    c2.7,0.3,5.2,1.2,7.6,2.6c0.1,0.1,0.2,0.1,0.3,0.2c0,0,0,0,0.1,0.2C104.8,132.6,104.2,132.7,103.6,132.6z M104.1,135.7    c-0.9,0-1.8-0.1-2.7-0.2c-1.5-0.2-2.9-0.6-4.2-1.2c-0.4-0.2-0.7-0.3-1-0.5c-0.1-0.1-0.2-0.2-0.4-0.3c0.2-0.1,0.4-0.1,0.5-0.1    c0.4,0,0.7,0,1.1,0c2.5,0.3,4.9,1.1,7.1,2.3c0,0,0.1,0,0.1,0.1C104.4,135.7,104.3,135.7,104.1,135.7z M102.9,139.8    c-2.4-0.3-4.8-1-7-2.2c0.3-0.1,0.5,0,0.6,0c1.5,0.2,2.9,0.6,4.3,1.1c0.7,0.3,1.4,0.6,2.1,1C102.9,139.7,102.9,139.7,102.9,139.8z     M103.4,143.8c-0.8-0.1-1.6-0.2-2.4-0.3c-1.3-0.3-2.6-0.7-3.8-1.3c-0.3-0.2-0.6-0.3-1-0.7c0.3-0.1,0.5-0.1,0.7-0.1    c0.5,0,1.1,0,1.6,0.1c1.8,0.3,3.4,1.1,4.9,2.1c0,0,0.1,0.1,0.2,0.1C103.6,143.8,103.5,143.8,103.4,143.8z"></path>		<circle class="st10" cx="101.1" cy="128.3" r="6"></circle>		<circle class="st10" cx="75" cy="128.3" r="6"></circle>	</g></g></svg>