<?xml version="1.0" encoding="UTF-8"?>
<svg xmlns="http://www.w3.org/2000/svg" version="1.1" viewBox="0 0 273 80.4">
  <defs>
    <style>
      .cls-1 {
        fill: #0e3d57;
      }
    </style>
  </defs>
  <!-- Generator: Adobe Illustrator 28.7.1, SVG Export Plug-In . SVG Version: 1.2.0 Build 142)  -->
  <g>
    <g id="Ebene_1">
      <g>
        <path class="cls-1" d="M34.2,2.8h0c0,0-14.3,30.2-14.3,30.2h-1.9L3.6,2.9h0c0-.1,7.2-.1,7.2-.1l6.5,14.3c.6,1.5,1.1,2.8,1.7,4.2.5-1.5,1.1-3,1.7-4.3l6.4-14.2h7.1Z"/>
        <path class="cls-1" d="M66.9,32.7h0c0,.1-6.8.1-6.8.1l-2.1-4.7h-12.7l-2.1,4.7h-6.8c0-.1,14.2-30.2,14.2-30.2h1.9l14.2,30ZM49.5,18.2l-2.3,5.1h8.8l-2.3-5.1c-.7-1.7-1.4-3.2-2.1-5.4-.7,2.2-1.4,3.8-2.1,5.4Z"/>
        <path class="cls-1" d="M76.9,2.8h6.5v24.1h12.2v6h-18.7V2.8Z"/>
        <path class="cls-1" d="M106.5,2.8h11.9c6.5,0,10.3,4.6,10.3,10s-3.8,9.8-10.4,9.8h-5.3v10.3h-6.5V2.8ZM117.4,17.1c3.3,0,4.8-2,4.8-4.4s-1.8-4.4-4.7-4.4h-4.5v8.8h4.4Z"/>
        <path class="cls-1" d="M159.6,27.2v5.6h-19.8V2.8h19.4v5.6h-12.9v6.5h11.3v5.5h-11.3v6.8h13.3Z"/>
        <path class="cls-1" d="M195,32.7h0c0,.1-7.3.1-7.3.1l-6.3-10.8h-3.4v10.8h-6.5V2.8h12.1c6.3,0,10.6,4.1,10.6,9.6s-2.4,7.3-6.4,8.8l7.3,11.5ZM182.7,16.9c3,0,4.8-1.7,4.8-4.3s-1.9-4.3-4.7-4.3h-4.9v8.6h4.9Z"/>
        <path class="cls-1" d="M204.1,17.8c0-9.1,6.5-15.6,15.8-15.6s7.9,1.2,11.3,4.2l-3.2,4.6c-2-1.8-4.6-2.8-7.9-2.8-5.6,0-9.4,3.9-9.4,9.8s3.7,9.8,9.1,9.8,6.2-1.4,8.2-3.8l3.9,4.3c-3.3,3.5-7.2,5.3-12.3,5.3-9.4,0-15.6-7-15.6-15.6Z"/>
        <path class="cls-1" d="M270.5,32.7h0c0,.1-6.8.1-6.8.1l-2.1-4.7h-12.7l-2.1,4.7h-6.8c0-.1,14.2-30.2,14.2-30.2h1.9l14.2,30ZM253.2,18.2l-2.3,5.1h8.8l-2.3-5.1c-.7-1.7-1.4-3.2-2.1-5.4-.7,2.2-1.4,3.8-2.1,5.4Z"/>
      </g>
      <g>
        <path class="cls-1" d="M16.5,41.5h0s-3.3,9.6-3.3,9.6h-.4l-2.4-5.6c-.2-.3-.3-.7-.4-1.1-.1.4-.3.8-.4,1.1l-2.4,5.6h-.4l-3.3-9.5h0s1.3,0,1.3,0l1.9,5.5c.2.5.3.9.5,1.5.2-.6.3-1,.5-1.5l2.1-5h.3l2,4.7c.3.6.5,1.2.7,1.8.2-.6.4-1.2.5-1.7l1.8-5.4h1.3Z"/>
        <path class="cls-1" d="M27.3,51h0s-1.3,0-1.3,0l-.9-1.9h-4.9l-.9,1.9h-1.3s4.5-9.6,4.5-9.6h.4l4.5,9.5ZM22,45.1l-1.3,2.9h3.9l-1.3-2.9c-.2-.5-.4-1-.6-1.5-.2.5-.4,1-.6,1.5Z"/>
        <path class="cls-1" d="M30.9,41.5h1.3v8.3h4.4v1.1h-5.7v-9.5Z"/>
        <path class="cls-1" d="M40.3,41.5h1.3v8.3h4.4v1.1h-5.7v-9.5Z"/>
        <path class="cls-1" d="M49.8,41.5h1.3v9.5h-1.3v-9.5Z"/>
        <path class="cls-1" d="M55.2,50l.6-1c.7.6,1.7,1,2.7,1s2-.5,2-1.5-1.1-1.5-2.2-1.9c-1.5-.5-2.9-1.3-2.9-2.8s1.4-2.5,3-2.5,2,.3,3,1l-.6.9c-.8-.5-1.5-.8-2.4-.8s-1.8.4-1.8,1.3,1,1.4,2.1,1.8c1.6.5,2.9,1.3,2.9,2.9s-1.4,2.7-3.2,2.7-2.5-.4-3.4-1.1Z"/>
        <path class="cls-1" d="M71.8,49.9v1.1h-5.9v-9.5h5.8v1.1h-4.6v3h4v1.1h-4v3.2h4.7Z"/>
        <path class="cls-1" d="M82.7,51h0s-1.4,0-1.4,0l-2.5-3.8h-1.8v3.8h-1.3v-9.5h3.6c1.8,0,3.1,1.2,3.1,2.9s-.9,2.4-2.4,2.7l2.6,3.9ZM79.4,46.1c1.2,0,2-.7,2-1.7s-.8-1.8-1.9-1.8h-2.3v3.5h2.3Z"/>
        <path class="cls-1" d="M11.5,62c0,1.6-1.2,2.7-3,2.7h-3.9v-9.5h3.7c1.6,0,2.8,1,2.8,2.5s-.4,1.6-1.1,2c.9.4,1.5,1.3,1.5,2.4ZM5.9,59.2h2.3c1,0,1.6-.6,1.6-1.5s-.7-1.4-1.7-1.4h-2.3v2.9ZM10.2,61.9c0-1-.7-1.6-1.8-1.6h-2.6v3.3h2.6c1.1,0,1.8-.6,1.8-1.7Z"/>
        <path class="cls-1" d="M21.5,63.5v1.1h-5.9v-9.5h5.8v1.1h-4.6v3h4v1.1h-4v3.2h4.7Z"/>
        <path class="cls-1" d="M32.5,64.6h0s-1.4,0-1.4,0l-2.5-3.8h-1.8v3.8h-1.3v-9.5h3.6c1.8,0,3.1,1.2,3.1,2.9s-.9,2.4-2.4,2.7l2.6,3.9ZM29.1,59.8c1.2,0,2-.7,2-1.7s-.8-1.8-1.9-1.8h-2.3v3.5h2.3Z"/>
        <path class="cls-1" d="M44.5,59.5v3.5c-.9,1.2-2.3,1.8-3.9,1.8-2.9,0-4.9-2.1-4.9-4.9s1.9-4.9,4.9-4.9,2.7.6,3.6,1.6l-.8.8c-.8-.8-1.7-1.2-2.8-1.2-2.2,0-3.6,1.6-3.6,3.8s1.5,3.8,3.7,3.8,2-.4,2.6-1.1v-2h-2.8v-1.1h3.9Z"/>
        <path class="cls-1" d="M60.5,55.2h0s-3.3,9.6-3.3,9.6h-.4l-2.4-5.6c-.2-.3-.3-.7-.4-1.1-.1.4-.3.8-.4,1.1l-2.4,5.6h-.4l-3.3-9.5h0s1.3,0,1.3,0l1.9,5.5c.2.5.3.9.5,1.5.2-.6.3-1,.5-1.5l2.1-5h.3l2,4.7c.3.6.5,1.2.7,1.8.2-.6.4-1.2.5-1.7l1.8-5.4h1.3Z"/>
        <path class="cls-1" d="M71.3,64.6h0s-1.3,0-1.3,0l-.9-1.9h-4.9l-.9,1.9h-1.3s4.5-9.6,4.5-9.6h.4l4.5,9.5ZM66,58.8l-1.3,2.9h3.9l-1.3-2.9c-.2-.5-.4-1-.6-1.5-.2.5-.4,1-.6,1.5Z"/>
        <path class="cls-1" d="M74.1,63.7l.6-1c.7.6,1.7,1,2.7,1s2-.5,2-1.5-1.1-1.5-2.2-1.9c-1.5-.5-2.9-1.3-2.9-2.8s1.4-2.5,3-2.5,2,.3,3,1l-.6.9c-.8-.5-1.5-.8-2.4-.8s-1.8.4-1.8,1.3,1,1.4,2.1,1.8c1.6.5,2.9,1.3,2.9,2.9s-1.4,2.7-3.2,2.7-2.5-.4-3.4-1.1Z"/>
        <path class="cls-1" d="M84.1,63.7l.6-1c.7.6,1.7,1,2.7,1s2-.5,2-1.5-1.1-1.5-2.2-1.9c-1.5-.5-2.9-1.3-2.9-2.8s1.4-2.5,3-2.5,2,.3,3,1l-.6.9c-.8-.5-1.5-.8-2.4-.8s-1.8.4-1.8,1.3,1,1.4,2.1,1.8c1.6.5,2.9,1.3,2.9,2.9s-1.4,2.7-3.2,2.7-2.5-.4-3.4-1.1Z"/>
        <path class="cls-1" d="M100.7,63.5v1.1h-5.9v-9.5h5.8v1.1h-4.6v3h4v1.1h-4v3.2h4.7Z"/>
        <path class="cls-1" d="M111.7,64.6h0s-1.4,0-1.4,0l-2.5-3.8h-1.8v3.8h-1.3v-9.5h3.6c1.8,0,3.1,1.2,3.1,2.9s-.9,2.4-2.4,2.7l2.6,3.9ZM108.3,59.8c1.2,0,2-.7,2-1.7s-.8-1.8-1.9-1.8h-2.3v3.5h2.3Z"/>
        <path class="cls-1" d="M4.6,68.8h5.8v1.1h-4.6v3.2h4.1v1.1h-4.1v4h-1.3v-9.5Z"/>
        <path class="cls-1" d="M14.3,68.8h1.3v9.5h-1.3v-9.5Z"/>
        <path class="cls-1" d="M19.7,77.4l.6-1c.7.6,1.7,1,2.7,1s2-.5,2-1.5-1.1-1.5-2.2-1.9c-1.5-.5-2.9-1.3-2.9-2.8s1.4-2.5,3-2.5,2,.3,3,1l-.6.9c-.8-.5-1.5-.8-2.4-.8s-1.8.4-1.8,1.3,1,1.4,2.1,1.8c1.6.5,2.9,1.3,2.9,2.9s-1.4,2.7-3.2,2.7-2.5-.4-3.4-1.1Z"/>
        <path class="cls-1" d="M29.8,73.6c0-2.8,2-4.9,4.8-4.9s2.5.5,3.6,1.5l-.7.8c-.7-.7-1.6-1.2-2.9-1.2-2.1,0-3.6,1.6-3.6,3.8s1.4,3.8,3.6,3.8,2.3-.6,2.9-1.5l.9.8c-.8,1.1-2.1,1.9-3.8,1.9-2.9,0-4.8-2.2-4.8-4.9Z"/>
        <path class="cls-1" d="M42.2,68.8h1.3v4.1h5.3v-4.1h1.2v9.5h-1.2v-4.2h-5.3v4.2h-1.3v-9.5Z"/>
        <path class="cls-1" d="M53.9,78l4.4-7c.2-.3.4-.7.6-1-.3,0-.7,0-1,0h-3.7v-1.1h6.6v.4l-4.5,7.1c-.2.3-.4.6-.6.9.3,0,.6,0,.9,0h4.2v1.1h-6.9v-.4Z"/>
        <path class="cls-1" d="M64.5,75v-6.2h1.3v6.1c0,1.6,1,2.4,2.5,2.4s2.4-.8,2.4-2.4v-6.1h1.3v6.2c0,2.3-1.6,3.5-3.7,3.5s-3.7-1.2-3.7-3.5Z"/>
        <path class="cls-1" d="M75.9,73.6c0-2.8,2-4.9,4.8-4.9s2.5.5,3.6,1.5l-.7.8c-.7-.7-1.6-1.2-2.9-1.2-2.1,0-3.6,1.6-3.6,3.8s1.4,3.8,3.6,3.8,2.3-.6,2.9-1.5l.9.8c-.8,1.1-2.1,1.9-3.8,1.9-2.9,0-4.8-2.2-4.8-4.9Z"/>
        <path class="cls-1" d="M88.3,68.8h1.3v4.1h5.3v-4.1h1.2v9.5h-1.2v-4.2h-5.3v4.2h-1.3v-9.5Z"/>
        <path class="cls-1" d="M106.7,70h-2.8v8.3h-1.3v-8.3h-2.8v-1.1h6.9v1.1Z"/>
      </g>
    </g>
  </g>
</svg>